<svg width="25" height="17" viewBox="0 0 25 17" fill="none" xmlns="http://www.w3.org/2000/svg">
<path d="M16.649 0.956505C16.204 1.40154 16.4265 1.71568 19.3716 4.66077C20.9554 6.24457 22.2513 7.57968 22.2513 7.63204C22.2513 7.69748 17.382 7.73675 11.4133 7.73675C1.81888 7.73675 0.549224 7.76293 0.287438 7.94618C-0.0397937 8.1687 -0.10524 8.79698 0.182724 9.03259C0.313617 9.1504 3.18017 9.18966 11.1385 9.17657C17.8794 9.17657 22.0026 9.22893 22.1204 9.30747C22.2774 9.41218 21.7277 10.0143 19.4109 12.3442C17.0417 14.7133 16.492 15.3285 16.492 15.6165C16.492 16.0354 17.0024 16.4411 17.3689 16.3233C17.4998 16.2841 19.2669 14.5824 21.3088 12.5405C24.123 9.71323 25 8.75772 25 8.52211C25 8.27341 24.123 7.3179 21.2957 4.5037C18.0758 1.28374 17.5522 0.799433 17.1988 0.799433C16.9894 0.799433 16.7407 0.86488 16.649 0.956505Z" fill="black"/>
</svg>
