<?xml version="1.0" encoding="UTF-8"?>
<svg xmlns="http://www.w3.org/2000/svg" width="72" height="71" viewBox="0 0 72 71" fill="none">
  <g clip-path="url(#clip0_1607_1459)">
    <path d="M44.3873 55.84C44.3873 56.94 42.5593 58.485 41.3743 58.852C41.2483 59.339 41.5603 60.249 41.9723 61.561C43.1063 65.171 40.6013 68.028 37.3003 68.028C34.9343 68.028 21.8353 64.123 19.8673 61.427L14.6953 53.577M24.0713 63.93L22.4403 71M45.4023 36C47.3523 38.64 50.0673 42.253 50.0673 43.98C50.0673 46.463 47.0573 46.658 44.9333 46.972C45.3973 49.458 47.3453 50.652 46.9293 51.377C46.5143 52.105 40.0363 53.106 36.1983 53.106M14.6953 1C20.8333 1 26.6753 2.712 30.5683 4.316C41.5233 8.829 45.2743 19.94 45.1593 25.92" stroke="#34A9FF" stroke-width="2"></path>
    <path d="M8.609 32.9574H29.913C31.625 36.0004 36 39.0434 40.565 39.0434C45.13 39.0434 48.174 32.0694 48.174 29.9134C48.174 29.0884 48.227 28.3914 48.174 26.8704H10.13C3.537 26.8704 1 30.4204 1 36.0004V39.0434M51.217 34.4784L71 48.1744V8.60938L49.696 23.8264" stroke="#34A9FF" stroke-width="2"></path>
  </g>
  <defs>
    <clipPath id="clip0_1607_1459">
      <rect width="72" height="71" fill="white"></rect>
    </clipPath>
  </defs>
</svg>
