<?xml version="1.0" encoding="UTF-8"?>
<svg xmlns="http://www.w3.org/2000/svg" width="100" height="80" viewBox="0 0 100 80" fill="none">
  <g clip-path="url(#clip0_1561_1444)">
    <path d="M28.3212 31.7744C28.6672 31.5236 29.1464 31.5745 29.4318 31.8924L37.6643 41.0693L74.0823 15.0553L77.247 12.8088C77.2605 12.799 77.2747 12.7896 77.2889 12.7811L82.7511 9.38064C83.1359 9.14093 83.6412 9.25286 83.8892 9.63141L86.4411 13.5244L89.6022 1.61757L77.7395 0L80.2353 3.7154C80.479 4.0781 80.4012 4.56713 80.0573 4.83665L74.8473 8.91684C74.8394 8.92289 74.8313 8.92914 74.8231 8.93519L72.5162 10.6092L38.9477 34.5828C38.6031 34.8292 38.1285 34.7775 37.8446 34.4632L29.5575 25.2939L4.32422 43.6097L6.97903 47.269L28.3212 31.7744Z" fill="#34A9FF"></path>
    <path d="M98.7732 78.3328H90.3712V23.6348H76.7641V78.3328H67.8647V35.3347H54.2569V78.3326H45.3503V47.5018H31.7427V78.3328H22.8436V57.088H9.23556V78.3328H0.833797C0.373333 78.3328 0 78.7061 0 79.1666C0 79.627 0.373333 80.0004 0.833797 80.0004H98.7732C99.2337 80.0004 99.607 79.627 99.607 79.1666C99.607 78.7061 99.2337 78.3328 98.7732 78.3328Z" fill="#34A9FF"></path>
  </g>
  <defs>
    <clipPath id="clip0_1561_1444">
      <rect width="100" height="80" fill="white"></rect>
    </clipPath>
  </defs>
</svg>
