<svg xmlns="http://www.w3.org/2000/svg" xmlns:xlink="http://www.w3.org/1999/xlink" version="1.1" id="Layer_1" x="0px" y="0px" width="100%" height="100%" viewBox="0 0 64 64" enable-background="new 0 0 64 64" xml:space="preserve">
<path fill="none" stroke="#000000" stroke-width="2" stroke-miterlimit="10" d="M21,40v5h22l0.001-5.107C49,36.195,53,29.564,53,22  c0-11.598-9.402-21-21-21s-21,9.402-21,21C11,29.565,14.998,36.304,21,40z" style="stroke-dasharray: 142, 144; stroke-dashoffset: 0;"></path>
<path fill="none" stroke="#000000" stroke-width="2" stroke-miterlimit="10" d="M28,45L25,25" style="stroke-dasharray: 21, 23; stroke-dashoffset: 0;"></path>
<path fill="none" stroke="#000000" stroke-width="2" stroke-miterlimit="10" d="M36,45L39,25" style="stroke-dasharray: 21, 23; stroke-dashoffset: 0;"></path>
<path fill="none" stroke="#000000" stroke-width="2" stroke-miterlimit="10" d="M25,26L29,29L32,26L35,29L39,26" style="stroke-dasharray: 19, 21; stroke-dashoffset: 0;"></path>
<path fill="none" stroke="#000000" stroke-width="2" stroke-miterlimit="10" width="22" height="6" d="M21 45 L43 45 L43 51 L21 51 Z" style="stroke-dasharray: 56, 58; stroke-dashoffset: 0;"></path>
<path fill="none" stroke="#000000" stroke-width="2" stroke-miterlimit="10" width="18" height="6" d="M23 51 L41 51 L41 57 L23 57 Z" style="stroke-dasharray: 48, 50; stroke-dashoffset: 0;"></path>
<path fill="none" stroke="#000000" stroke-width="2" stroke-miterlimit="10" width="14" height="6" d="M25 57 L39 57 L39 63 L25 63 Z" style="stroke-dasharray: 40, 42; stroke-dashoffset: 0;"></path>
</svg>