<?xml version="1.0" encoding="UTF-8"?>
<svg xmlns="http://www.w3.org/2000/svg" width="88" height="88" viewBox="0 0 88 88" fill="none">
  <g clip-path="url(#clip0_112_228)">
    <mask id="mask0_112_228" style="mask-type:luminance" maskUnits="userSpaceOnUse" x="0" y="0" width="88" height="88">
      <path d="M88 0H0V88H88V0Z" fill="white"></path>
    </mask>
    <g mask="url(#mask0_112_228)">
      <path d="M74.6427 61.9929C74.8784 62.0715 75.1927 62.1501 75.4284 62.1501V80.9286H28.207L28.6784 80.1429H74.6427V61.9929Z" fill="#34A9FF"></path>
      <path d="M43.9999 27.5001L20.7428 44.0001H2.35701V18.8572H15.7142V18.0715H1.57129V80.9287H19.8785L19.407 80.143H2.35701V44.7858H6.91415H20.9785L44.2356 28.2858H74.6428H75.4285V27.5001H43.9999Z" fill="#34A9FF"></path>
      <path d="M68.7499 29.8574H59.8713C55.0785 29.8574 51.2285 33.7074 51.2285 38.5003C51.2285 42.4288 53.7427 45.6503 57.2785 46.7503C57.5142 46.8288 57.8285 46.9074 58.0642 46.986C58.6142 47.1431 59.2427 47.1431 59.8713 47.1431H68.7499C68.9856 47.1431 69.1428 46.986 69.1428 46.7503V30.2503C69.1428 30.0145 68.9856 29.8574 68.7499 29.8574ZM59.8713 46.3574C55.5499 46.3574 52.0142 42.8217 52.0142 38.5003C52.0142 34.1788 55.5499 30.6431 59.8713 30.6431H68.357V46.3574H59.8713Z" fill="#34A9FF"></path>
      <path d="M68.7499 46.3574H59.8713C59.2427 46.3574 58.6142 46.436 58.0642 46.5145C57.7499 46.5931 57.5142 46.6717 57.2785 46.7503C53.7427 47.8503 51.2285 51.0717 51.2285 55.0003C51.2285 58.9288 53.7427 62.1503 57.2785 63.2503C57.5142 63.3288 57.8285 63.4074 58.0642 63.486C58.6142 63.6431 59.2427 63.6431 59.8713 63.6431H68.7499C68.9856 63.6431 69.1428 63.486 69.1428 63.2503V46.7503C69.1428 46.5145 68.9856 46.3574 68.7499 46.3574Z" fill="#34A9FF"></path>
      <path d="M68.7499 62.8574H59.8713C59.2427 62.8574 58.6142 62.936 58.0642 63.0145C57.7499 63.0931 57.5142 63.1717 57.2785 63.2503C53.7427 64.3503 51.2285 67.5717 51.2285 71.5003C51.2285 76.2931 55.0785 80.1431 59.8713 80.1431H60.107C65.057 80.1431 69.1428 76.0574 69.1428 71.1074V63.2503C69.1428 63.0145 68.9856 62.8574 68.7499 62.8574ZM68.357 63.6431V71.1074C68.357 75.6645 64.6642 79.3574 60.107 79.3574H59.8713C55.5499 79.3574 52.0142 75.8217 52.0142 71.5003C52.0142 67.1788 55.5499 63.6431 59.8713 63.6431H68.357Z" fill="#34A9FF"></path>
      <path d="M77.6284 29.8574H68.7498C68.5141 29.8574 68.3569 30.0145 68.3569 30.2503V46.7503C68.3569 46.986 68.5141 47.1431 68.7498 47.1431H77.6284C78.3355 47.1431 78.9641 47.0645 79.6712 46.9074C83.5212 46.0431 86.2712 42.586 86.2712 38.5003C86.2712 33.7074 82.4212 29.8574 77.6284 29.8574Z" fill="#34A9FF"></path>
      <path d="M79.6714 46.9074C78.8071 46.5932 77.8642 46.436 76.8428 46.436C76.3714 46.436 75.8999 46.5146 75.4285 46.5932C75.1928 46.6717 74.8785 46.6717 74.6428 46.7503C74.2499 46.8289 73.8571 46.986 73.5428 47.1432C71.4999 48.0074 69.9285 49.5789 69.1428 51.6217C68.9856 52.0146 68.8285 52.4074 68.7499 52.8003C68.5928 53.4289 68.5142 54.136 68.5142 54.7646C68.5142 55.3932 68.5928 56.1003 68.7499 56.7289C68.8285 57.1217 68.9856 57.5146 69.1428 57.9074C70.0856 60.2646 72.1285 62.0717 74.6428 62.7789C74.8785 62.8574 75.1928 62.936 75.4285 62.936C75.8999 63.0146 76.3714 63.0146 76.8428 63.0146C81.4785 63.0146 85.1714 59.3217 85.1714 54.686C85.1714 51.0717 82.8928 48.086 79.6714 46.9074ZM76.8428 62.3074C76.3714 62.3074 75.8999 62.2289 75.4285 62.1503C75.1928 62.1503 74.8785 62.0717 74.6428 61.9932C71.5785 61.0503 69.2999 58.1432 69.2999 54.7646C69.2999 51.386 71.5785 48.4789 74.6428 47.536C74.8785 47.4574 75.1928 47.3789 75.4285 47.3789C75.8999 47.3003 76.3714 47.2217 76.8428 47.2217C81.0071 47.2217 84.3856 50.6003 84.3856 54.7646C84.3856 58.9289 81.0071 62.3074 76.8428 62.3074Z" fill="#34A9FF"></path>
      <path d="M28.2859 65.843V58.9287H19.6431V59.0073L19.7216 65.9216L8.64307 64.5859L18.9359 80.143L19.4859 80.9287L24.2002 88.0001L28.7574 80.9287L29.2288 80.143L39.2859 64.4287L28.2859 65.843ZM24.1216 86.5859L9.90021 65.5287L20.4288 66.8644L20.3502 59.7144H27.5002L27.5788 66.7859L38.0288 65.4501L24.1216 86.5859Z" fill="#34A9FF"></path>
      <path d="M15.7143 22.0002H5.5V44.0002H15.7143V22.0002Z" fill="#34A9FF"></path>
      <path d="M29.857 0.785889H29.0713V14.9287H29.857V0.785889Z" fill="#34A9FF"></path>
      <path d="M71.4996 1.5716V0.785889H28.9139L14.9282 14.9287V44.0002H15.7139V15.7144H29.8568V14.9287H16.1068L29.2282 1.5716H71.4996Z" fill="#34A9FF"></path>
      <path d="M71.5001 0.785889H70.7144V27.5002H71.5001V0.785889Z" fill="#34A9FF"></path>
      <path d="M2.35701 57.593H1.57129V80.143H2.35701V57.593Z" fill="#34A9FF"></path>
    </g>
  </g>
  <defs>
    <clipPath id="clip0_112_228">
      <rect width="88" height="88" fill="white"></rect>
    </clipPath>
  </defs>
</svg>
