<?xml version="1.0" encoding="UTF-8"?>
<svg xmlns="http://www.w3.org/2000/svg" width="88" height="88" viewBox="0 0 88 88" fill="none">
  <g clip-path="url(#clip0_112_184)">
    <mask id="mask0_112_184" style="mask-type:luminance" maskUnits="userSpaceOnUse" x="0" y="0" width="88" height="88">
      <path d="M88 0H0V88H88V0Z" fill="white"></path>
    </mask>
    <g mask="url(#mask0_112_184)">
      <path d="M0.785714 15.7144H0V88.0001H0.785714V15.7144Z" fill="#34A9FF"></path>
      <path d="M48.7144 79.3572H47.9287V88H48.7144V79.3572Z" fill="#34A9FF"></path>
      <path d="M47.9285 87.2144H0.785645V88.0001H47.9285V87.2144Z" fill="#34A9FF"></path>
      <path d="M17.2857 15.7144H0V16.5001H17.2857V15.7144Z" fill="#34A9FF"></path>
      <path d="M17.2857 20.4285H0V21.2142H17.2857V20.4285Z" fill="#34A9FF"></path>
      <path d="M18.0714 7.85718H17.2856V80.1429H18.0714V7.85718Z" fill="#34A9FF"></path>
      <path d="M65.9999 7.85718H17.2856V8.64289H65.9999V7.85718Z" fill="#34A9FF"></path>
      <path d="M65.2142 79.3572H18.0713V80.1429H65.2142V79.3572Z" fill="#34A9FF"></path>
      <path d="M66.0001 7.85718V51.3072L65.2144 51.8572V7.85718H66.0001Z" fill="#34A9FF"></path>
      <path d="M65.2144 61.4429L66.0001 61.9143V80.1429H65.2144V61.4429Z" fill="#34A9FF"></path>
      <path d="M65.2142 12.5715H18.0713V13.3572H65.2142V12.5715Z" fill="#34A9FF"></path>
      <path d="M17.2858 80.1429V24.3572H3.92871V84.0715H44.7858V80.1429H17.2858Z" fill="#34A9FF"></path>
      <path d="M50.207 0.942871L58.6928 19.4857L74.0928 29.5429L58.6928 39.6786L50.207 58.1429L41.7999 39.6786L26.3213 29.5429L41.7999 19.4857L50.207 0.942871Z" fill="#34A9FF"></path>
      <path d="M87.8428 56.3356L78.1 49.9713L72.7571 38.2642C72.6 38.0285 72.2071 38.0285 72.05 38.2642L66.7071 49.9713L66 50.3642L65.2143 50.9142L56.9643 56.3356C56.8857 56.4142 56.8071 56.4928 56.8071 56.6499C56.8071 56.807 56.8857 56.8856 56.9643 56.9642L65.2143 62.3856L66 62.9356L66.7071 63.407L72.05 75.1142C72.1286 75.2713 72.2857 75.3499 72.4428 75.3499C72.6 75.3499 72.7571 75.2713 72.7571 75.1142L78.1 63.407L87.8428 57.0428C87.9214 56.9642 88 56.8856 88 56.7285C88 56.5713 87.9214 56.3356 87.8428 56.3356ZM77.55 62.6999C77.4714 62.7785 77.4714 62.7785 77.3928 62.857L72.3643 73.857L67.3357 62.857C67.3357 62.7785 67.2571 62.6999 67.1786 62.6999L66 61.9142L65.2143 61.3642L57.9071 56.5713L65.2143 51.857L66 51.307L67.2571 50.5213C67.3357 50.4428 67.3357 50.4428 67.4143 50.3642L72.4428 39.3642L77.4714 50.3642C77.4714 50.4428 77.55 50.5213 77.6286 50.5213L86.9786 56.6499L77.55 62.6999Z" fill="#34A9FF"></path>
    </g>
  </g>
  <defs>
    <clipPath id="clip0_112_184">
      <rect width="88" height="88" fill="white"></rect>
    </clipPath>
  </defs>
</svg>
