<?xml version="1.0" encoding="UTF-8"?>
<svg xmlns="http://www.w3.org/2000/svg" width="88" height="88" viewBox="0 0 88 88" fill="none">
  <g clip-path="url(#clip0_112_214)">
    <mask id="mask0_112_214" style="mask-type:luminance" maskUnits="userSpaceOnUse" x="0" y="0" width="88" height="88">
      <path d="M88 0H0V88H88V0Z" fill="white"></path>
    </mask>
    <g mask="url(#mask0_112_214)">
      <path d="M0.785714 15.7141H0V87.9998H0.785714V15.7141Z" fill="#34A9FF"></path>
      <path d="M17.2857 15.7141L16.5 16.4998H0V15.7141H17.2857Z" fill="#34A9FF"></path>
      <path d="M47.9285 87.2141H0.785645V87.9998H47.9285V87.2141Z" fill="#34A9FF"></path>
      <path d="M38.1072 31.4286C37.8715 31.4286 37.7144 31.5857 37.7144 31.8215V58.1429H38.5001V32.2143H46.043V31.4286H38.1072ZM37.9501 81.4C26.243 81.4 16.5787 72.6 15.243 61.2857H14.4572C15.8715 72.9929 25.9287 82.1857 37.9501 82.1857H38.5001C40.4644 82.1072 42.2715 81.8715 44.0001 81.4V83.2857H4.71442V25.1429H15.7144C15.7144 24.9072 15.7144 24.5929 15.7144 24.3572H3.92871V84.0715H44.7858V80.3786C42.8215 81.0072 40.7001 81.3215 38.5001 81.4H37.9501Z" fill="#34A9FF"></path>
      <path d="M71.8928 8.87841L67.8856 0.156982L63.957 8.87841L59.1642 12.0213L56.6499 13.6713L61.2856 16.7356L63.957 18.4641L67.8856 27.1856L71.8928 18.4641L79.1999 13.6713L71.8928 8.87841ZM71.4999 17.8356L71.3428 17.9927L71.2642 18.2284L67.9642 25.3784L64.7428 18.2284L64.6642 17.9927L64.4285 17.8356L60.8928 15.557L58.0642 13.7499L59.557 12.807L64.3499 9.66413L64.507 9.50699L64.5856 9.27127L67.8071 2.12127L71.107 9.27127L71.1856 9.50699L71.3428 9.66413L77.6285 13.8284L71.4999 17.8356Z" fill="#34A9FF"></path>
      <path d="M48.7144 79.3572H47.9287V88H48.7144V79.3572Z" fill="#34A9FF"></path>
      <path d="M61.5999 58.1426H14.2998V58.9283C14.5356 71.8141 25.0641 82.1855 37.9498 82.1855C40.7784 82.1855 43.5284 81.7141 46.0427 80.7712C46.1213 80.7712 46.1999 80.6926 46.357 80.6926C48.6356 79.8283 50.8356 78.5712 52.7213 77.0783C53.0356 76.8426 53.3499 76.6069 53.6641 76.2926C58.457 72.0498 61.5213 65.9212 61.5999 59.0069L60.8141 58.9283C60.657 65.9212 57.4356 72.1283 52.407 76.2141C52.0927 76.4498 51.7784 76.7641 51.3856 76.9998C49.8141 78.0998 48.1641 79.1212 46.2784 79.8283C46.1999 79.8283 46.1213 79.9069 46.0427 79.9069C43.6856 80.7712 41.1713 81.3212 38.4998 81.3998C38.3427 81.3998 38.107 81.3998 37.9498 81.3998C25.457 81.3998 15.3213 71.3426 15.0856 58.9283H60.8141H61.5999V58.1426Z" fill="#34A9FF"></path>
      <path d="M15.7142 20.4285H0.785645V21.2142H15.7142V20.4285Z" fill="#34A9FF"></path>
      <path d="M61.2856 31.4285C62.0713 29.0714 62.4642 26.5571 62.4642 23.9643C62.4642 21.45 62.0713 19.0142 61.2856 16.7357C61.1285 16.3428 61.0499 15.95 60.8142 15.4785L57.9856 13.6714L59.4785 12.7285C59.3213 12.4928 59.2428 12.2571 59.0856 12.0214C55.0785 5.10711 47.5356 0.392822 38.8928 0.392822C25.9285 0.392822 15.3213 11 15.3213 23.9643C15.3213 36.5357 25.2999 46.9071 37.7142 47.5357V58.9285H38.4999V32.2143H87.2142V76.2142H52.407C52.0928 76.45 51.7785 76.7643 51.3856 77H87.9999V31.4285H61.2856Z" fill="#34A9FF"></path>
    </g>
  </g>
  <defs>
    <clipPath id="clip0_112_214">
      <rect width="88" height="88" fill="white"></rect>
    </clipPath>
  </defs>
</svg>
