<?xml version="1.0" encoding="UTF-8"?>
<svg xmlns="http://www.w3.org/2000/svg" width="88" height="88" viewBox="0 0 88 88" fill="none">
  <path d="M50.9931 18.8572L51.4645 19.6429H77.0002V34.5715C77.236 34.7286 77.4717 34.9643 77.6288 35.1215C77.7074 35.1215 77.7074 35.2 77.786 35.2V18.8572H50.9931ZM2.35742 18.8572V79.3572H3.14313V19.6429H31.4288L31.9002 18.8572H2.35742ZM77.0002 67.9643V78.5715H2.35742V79.3572H77.786V67.3357C77.7074 67.4143 77.0002 67.9643 77.0002 67.9643Z" fill="#34A9FF"></path>
  <path d="M54.0571 23.5715L54.45 24.3572H77V23.5715H54.0571Z" fill="#34A9FF"></path>
  <path d="M41.4858 4.32147L13.5144 49.5H45.3358C45.3358 49.7358 45.2572 50.05 45.2572 50.2858H12.1001L41.4858 2.82861L59.1644 31.1929C58.8501 31.2715 58.5358 31.35 58.3001 31.4286L41.4858 4.32147Z" fill="#34A9FF"></path>
  <path d="M33.7856 78.5715V85.643H46.3571V78.5715H33.7856ZM45.5714 84.8573H34.5714V79.3572H45.5714V84.8573Z" fill="#34A9FF"></path>
  <path d="M56.5713 84.8572H23.5713V85.6429H56.5713V84.8572Z" fill="#34A9FF"></path>
  <path d="M3.14258 23.5715V24.3572H28.5998L29.0712 23.5715H3.14258Z" fill="#34A9FF"></path>
  <path d="M13.1213 60.8927L12.4927 61.2855L13.0427 61.9141L13.7499 61.5213L13.1213 60.8927ZM32.3713 54.2927L20.507 76.057L17.207 67.6498L16.8927 66.9427L16.1856 67.3355L16.4999 68.0427L20.4284 77.8641L33.3142 54.2141H32.3713V54.2927Z" fill="#34A9FF"></path>
  <path d="M16.8929 66.9426L16.1858 67.3354L9.82147 71.1069L6.60004 65.6854L12.9643 61.914L13.6715 61.5212L13.1215 60.8926L12.4929 61.2854L5.57861 65.4497L9.58576 72.2069L16.5 68.1211L17.2072 67.7283L16.8929 66.9426Z" fill="#34A9FF"></path>
  <path d="M33.786 53.5071L33.3931 54.2928H7.70029L13.2002 60.8928L12.5717 61.2857L6.05029 53.5071H33.786Z" fill="#34A9FF"></path>
  <path d="M66.2356 72.7572C78.0822 72.7572 87.6856 63.1537 87.6856 51.3072C87.6856 39.4607 78.0822 29.8572 66.2356 29.8572C54.3891 29.8572 44.7856 39.4607 44.7856 51.3072C44.7856 63.1537 54.3891 72.7572 66.2356 72.7572Z" fill="#34A9FF"></path>
</svg>
