<?xml version="1.0" encoding="UTF-8"?>
<svg xmlns="http://www.w3.org/2000/svg" width="70" height="75" viewBox="0 0 70 75" fill="none">
  <g clip-path="url(#clip0_1607_1434)">
    <path d="M35 0V14.17M17.5 4.64L24.66 16.913M4.689 17.32L17.089 24.405M0 34.639H14.318M4.689 51.958L17.089 44.873M65.311 51.958L52.911 44.873M70 34.638H55.682M65.311 17.318L52.911 24.404M52.5 4.64L45.34 16.913M25.454 59.83H44.546M25.454 66.127H44.546M25.454 34.64C25.454 29.421 29.728 25.193 35 25.193M30.228 39.361L35 44.085M35 44.085L39.772 39.361M35 44.085V55.107" stroke="#34A9FF" stroke-width="2"></path>
    <path d="M41.3618 72.4256H39.7718L38.1798 74.0006H31.8158L30.2238 72.4256H28.6338M42.9518 55.1076V53.5306C42.9518 50.6886 43.9518 48.0666 45.9468 46.0506C48.9528 43.0166 50.9068 39.2636 50.9068 34.6386C50.9068 25.9416 43.7838 18.8926 34.9978 18.8926C26.2108 18.8926 19.0898 25.9426 19.0898 34.6386C19.0898 39.2636 21.0448 43.0166 24.0498 46.0506C26.0448 48.0656 27.0438 50.6886 27.0438 53.5316V55.1066" stroke="#34A9FF" stroke-width="2"></path>
  </g>
  <defs>
    <clipPath id="clip0_1607_1434">
      <rect width="70" height="75" fill="white"></rect>
    </clipPath>
  </defs>
</svg>
