<?xml version="1.0" encoding="UTF-8"?>
<svg xmlns="http://www.w3.org/2000/svg" width="59" height="80" viewBox="0 0 59 80" fill="none">
  <g clip-path="url(#clip0_1561_1500)">
    <path d="M40.1744 48.3303C50.2786 48.3303 58.5304 44.2045 58.5304 31.911C58.5304 23.6593 54.7413 16.4179 49.2682 12.6289C46.3212 13.0499 43.2899 13.3025 40.2586 13.3025C37.2274 13.3025 34.1119 13.0499 31.2491 12.6289C25.6918 16.4179 21.9869 23.6593 21.9869 31.911C21.8185 44.2045 30.0703 48.3303 40.1744 48.3303ZM38.4062 21.2174V19.365C38.4062 18.944 38.743 18.6072 39.164 18.6072H41.1849C41.6059 18.6072 41.9427 18.944 41.9427 19.365V21.1332C44.1319 21.3858 45.816 23.1541 45.9844 25.3433C45.9844 25.5117 45.9002 25.7643 45.816 25.8485C45.6475 26.0169 45.4791 26.1011 45.2265 26.1011H43.1215C42.7847 26.1011 42.4479 25.8485 42.4479 25.5117C42.3637 25.0065 41.8585 24.5855 41.3533 24.5855H39.5008C38.5746 24.5855 37.7326 25.2591 37.6484 26.1853C37.5642 26.6905 37.7326 27.1957 38.0694 27.5326C38.4062 27.8694 38.9114 28.122 39.4166 28.122H41.0165C42.5321 28.122 43.9635 28.7956 44.9739 29.8902C45.9844 30.9848 46.4896 32.5004 46.3212 34.0161C46.0686 36.2895 44.3003 38.142 42.0269 38.6472V40.4996C42.0269 40.9206 41.6901 41.2574 41.2691 41.2574H39.164C38.743 41.2574 38.4062 40.9206 38.4062 40.4996V38.7314C36.217 38.4788 34.5329 36.7105 34.3645 34.5213C34.3645 34.3529 34.4487 34.1003 34.5329 34.0161C34.7013 33.8477 34.8697 33.7635 35.1224 33.7635H37.2274C37.5642 33.7635 37.901 34.0161 37.901 34.3529C37.9852 34.8581 38.4904 35.2791 38.9956 35.2791H40.8481C41.7743 35.2791 42.6163 34.6055 42.7005 33.6793C42.7847 33.1741 42.6163 32.6688 42.2795 32.332C41.9427 31.9952 41.4375 31.7426 40.9323 31.7426H39.585C36.7222 31.7426 34.2803 29.6376 34.0277 26.9431C33.7751 24.2487 35.7118 21.7226 38.4062 21.2174Z" fill="#34A9FF"></path>
    <path d="M32.429 9.17595C34.7867 9.51276 37.3969 9.68116 40.1756 9.68116C42.9542 9.68116 45.4803 9.51276 47.9221 9.17595L49.8587 2.35562C50.2798 0.924197 48.9325 -0.338827 47.5011 0.0821816C42.7016 1.59781 37.6495 1.59781 32.85 0.0821816C31.4186 -0.338827 30.0714 0.924197 30.4924 2.35562L32.429 9.17595Z" fill="#34A9FF"></path>
    <path d="M4.2206 64.748L0.26313 69.9685C-0.157878 70.5579 -0.0736764 71.3999 0.515735 71.821L10.8725 79.7359C11.4619 80.1569 12.304 80.0727 12.725 79.4833L16.6824 74.2628L4.47321 65.0006C4.38901 64.9164 4.30481 64.8322 4.2206 64.748Z" fill="#34A9FF"></path>
    <path d="M58.0271 52.2875C57.1851 51.4455 55.922 51.1087 54.8274 51.4455L45.3126 54.3926C45.3126 54.6452 45.3126 54.8136 45.3126 55.0662C45.1442 57.7606 43.2076 60.0341 40.5973 60.5393L40.0079 60.6235C36.5557 61.3813 32.935 61.8023 29.3985 61.8865L26.5357 61.9707C25.6095 61.9707 24.9358 61.2971 24.8516 60.4551C24.8516 59.5289 25.5253 58.8552 26.3673 58.771L29.2301 58.6868C32.5982 58.6026 35.9663 58.1816 39.2501 57.508L39.8395 57.4238C41.0183 57.1712 41.9446 56.1608 41.9446 54.8978C41.9446 54.14 41.692 53.4663 41.271 52.9611C40.7657 52.4559 40.0921 52.1191 39.4185 52.1191L24.178 51.5297C22.494 51.4455 20.81 51.9507 19.3785 52.9611L6.66406 62.1391L19.7996 72.0749L32.5982 73.3379C34.8716 73.5905 37.0609 72.9169 38.8291 71.5697L57.6061 57.0028C58.2797 56.4134 58.7849 55.6556 58.7849 54.7294C58.9533 53.8032 58.6165 52.8769 58.0271 52.2875Z" fill="#34A9FF"></path>
  </g>
  <defs>
    <clipPath id="clip0_1561_1500">
      <rect width="59" height="80" fill="white"></rect>
    </clipPath>
  </defs>
</svg>
