<?xml version="1.0" encoding="UTF-8"?>
<svg xmlns="http://www.w3.org/2000/svg" width="81" height="80" viewBox="0 0 81 80" fill="none">
  <g clip-path="url(#clip0_1561_1461)">
    <path d="M22.5117 18.8125C22.5117 29.1875 30.3242 43.75 40.0117 43.75C49.6992 43.75 57.5117 29.1875 57.5117 18.8125C57.5117 8.4375 49.6992 0 40.0117 0C30.3242 0 22.5117 8.4375 22.5117 18.8125Z" fill="#34A9FF"></path>
    <path d="M75.1987 80C78.0112 80 80.1987 77.75 80.0112 75C79.5737 68.625 78.3237 58 74.9487 54.8125C71.7612 51.8125 52.8237 46.25 52.8237 46.25L40.0112 55.625L27.1987 46.25C27.1987 46.25 8.26121 51.8125 5.07371 54.8125C1.69871 58 0.448712 68.5625 0.011212 75C-0.176288 77.75 2.01121 80 4.82371 80H75.1987Z" fill="#34A9FF"></path>
  </g>
  <defs>
    <clipPath id="clip0_1561_1461">
      <rect width="81" height="80" fill="white"></rect>
    </clipPath>
  </defs>
</svg>
