<?xml version="1.0" encoding="UTF-8"?>
<svg xmlns="http://www.w3.org/2000/svg" width="80" height="80" viewBox="0 0 80 80" fill="none">
  <g clip-path="url(#clip0_1561_1441)">
    <path d="M33.5469 19.3145V39.9596C33.5469 42.0129 34.3626 43.9821 35.8145 45.434C37.2664 46.8859 39.2356 47.7016 41.2888 47.7016H56.7727V39.9596H41.2888V19.3145H33.5469Z" fill="#34A9FF"></path>
    <path d="M72.1418 37.3788C72.2063 38.2304 72.2579 39.0949 72.2579 39.9594C72.2579 47.6191 69.5323 55.0288 64.5688 60.8627C59.6053 66.6966 52.7278 70.574 45.1671 71.8009C37.6063 73.0278 29.8556 71.5243 23.302 67.5594C16.7484 63.5945 11.8195 57.4269 9.39727 50.1603C6.97507 42.8937 7.21765 35.0023 10.0816 27.8982C12.9455 20.7941 18.244 14.9409 25.0287 11.386C31.8135 7.83106 39.6419 6.80644 47.113 8.49545C54.5842 10.1845 61.2105 14.4769 65.8063 20.6046H54.1934V28.3466H74.8385C75.8652 28.3466 76.8498 27.9387 77.5757 27.2128C78.3017 26.4868 78.7095 25.5022 78.7095 24.4756V3.83047H70.9676V14.6821C65.0003 7.38314 56.6466 2.42655 47.3807 0.686929C38.1148 -1.05269 28.5322 0.53648 20.3239 5.17401C12.1156 9.81154 5.80916 17.1994 2.5174 26.0338C-0.774359 34.8683 -0.839846 44.5815 2.33249 53.4595C5.50484 62.3375 11.7111 69.8097 19.8561 74.5575C28.0012 79.3053 37.5615 81.0235 46.85 79.409C56.1385 77.7945 64.5582 72.951 70.6234 65.7332C76.6886 58.5154 80.0094 49.3872 79.9998 39.9594C79.9998 39.0949 79.9998 38.2304 79.9095 37.3788H72.1418Z" fill="#34A9FF"></path>
  </g>
  <defs>
    <clipPath id="clip0_1561_1441">
      <rect width="80" height="80" fill="white"></rect>
    </clipPath>
  </defs>
</svg>
