<?xml version="1.0" encoding="UTF-8"?>
<svg xmlns="http://www.w3.org/2000/svg" width="80" height="80" viewBox="0 0 80 80" fill="none">
  <mask id="mask0_1645_1498" style="mask-type:luminance" maskUnits="userSpaceOnUse" x="0" y="0" width="80" height="80">
    <path d="M80 0H0V80H80V0Z" fill="white"></path>
  </mask>
  <g mask="url(#mask0_1645_1498)">
    <path d="M14.57 39.9284L13.126 41.7851C12.9266 42.0415 12.8276 42.362 12.8478 42.6863C12.868 43.0105 13.0059 43.3163 13.2356 43.546L15.1211 45.4315C15.3508 45.6612 15.6566 45.7992 15.9809 45.8194C16.3052 45.8397 16.6257 45.7407 16.8822 45.5413L18.739 44.0973L19.7151 44.5014L20.0067 46.8345C20.0468 47.1571 20.2034 47.4539 20.447 47.6691C20.6906 47.8843 21.0045 48.0031 21.3295 48.0032H23.9959C24.3208 48.0032 24.6346 47.8845 24.8782 47.6694C25.1218 47.4544 25.2785 47.1577 25.3187 46.8353L25.6104 44.5022L26.5864 44.0981L28.4432 45.5421C28.6997 45.7416 29.0203 45.8406 29.3446 45.8203C29.6689 45.8 29.9746 45.6621 30.2043 45.4323L32.0898 43.5469C32.3195 43.3171 32.4574 43.0114 32.4776 42.6871C32.4978 42.3628 32.3989 42.0424 32.1995 41.7859L30.7555 39.9293L31.1597 38.9532L33.4928 38.6614C33.8155 38.6213 34.1124 38.4645 34.3276 38.2208C34.5428 37.977 34.6615 37.6629 34.6613 37.3377V34.6714C34.6613 34.3464 34.5426 34.0327 34.3276 33.7891C34.1125 33.5455 33.8159 33.3888 33.4935 33.3485L31.1604 33.0567L30.7561 32.0807L32.2001 30.2241C32.3995 29.9676 32.4985 29.6471 32.4783 29.3228C32.4581 28.9986 32.3202 28.6929 32.0905 28.4631L30.205 26.5777C29.9753 26.3479 29.6695 26.2099 29.3452 26.1897C29.0209 26.1695 28.7004 26.2684 28.4439 26.4678L26.5871 27.9118L25.611 27.5077L25.3194 25.1746C25.2793 24.8519 25.1226 24.555 24.8789 24.3398C24.6351 24.1246 24.3211 24.0058 23.9959 24.0059H21.3295C21.0046 24.006 20.6908 24.1246 20.4472 24.3397C20.2037 24.5548 20.047 24.8514 20.0067 25.1738L19.7151 27.5069L18.739 27.911L16.8822 26.467C16.6257 26.2675 16.3052 26.1686 15.9809 26.1889C15.6566 26.2091 15.3508 26.347 15.1211 26.5768L13.2356 28.4631C13.0059 28.6929 12.868 28.9986 12.8478 29.3228C12.8276 29.6471 12.9266 29.9676 13.126 30.2241L14.57 32.0807L14.1657 33.0567L11.8326 33.3485C11.5101 33.3887 11.2133 33.5453 10.9981 33.7889C10.7829 34.0325 10.6641 34.3463 10.6641 34.6714V37.3377C10.6641 37.6627 10.7828 37.9764 10.9979 38.22C11.2129 38.4636 11.5095 38.6203 11.832 38.6606L14.165 38.9524L14.57 39.9284ZM13.3305 35.8482L15.2661 35.6063C15.4998 35.5771 15.7216 35.4865 15.909 35.3438C16.0963 35.201 16.2425 35.0111 16.3326 34.7935L17.33 32.3845C17.4201 32.1669 17.451 31.9293 17.4195 31.696C17.388 31.4626 17.2953 31.2417 17.1507 31.0558L15.9532 29.5161L16.1741 29.295L17.714 30.4927C17.8999 30.6372 18.1208 30.73 18.3541 30.7614C18.5875 30.7929 18.8251 30.762 19.0426 30.6718L21.4517 29.6741C21.6693 29.584 21.8592 29.4378 22.002 29.2505C22.1448 29.0632 22.2354 28.8413 22.2646 28.6076L22.5064 26.6723H22.819L23.0608 28.6079C23.09 28.8417 23.1806 29.0635 23.3234 29.2508C23.4662 29.4382 23.6561 29.5843 23.8737 29.6745L26.2828 30.6718C26.5004 30.7619 26.7379 30.7928 26.9713 30.7612C27.2046 30.7297 27.4255 30.6369 27.6113 30.4924L29.1511 29.2947L29.3721 29.5158L28.1746 31.0555C28.03 31.2414 27.9372 31.4624 27.9057 31.6958C27.8743 31.9293 27.9052 32.1669 27.9954 32.3845L28.9932 34.7935C29.0833 35.0111 29.2295 35.201 29.4168 35.3438C29.6042 35.4865 29.826 35.5771 30.0597 35.6063L31.995 35.8482V36.1609L30.0594 36.4028C29.8256 36.432 29.6038 36.5226 29.4165 36.6654C29.2291 36.8081 29.083 36.998 28.9928 37.2156L27.9954 39.6246C27.9053 39.8422 27.8744 40.0798 27.9059 40.3132C27.9374 40.5466 28.0302 40.7674 28.1748 40.9533L29.3723 42.493L29.1513 42.7141L27.6115 41.5164C27.4256 41.3719 27.2047 41.2791 26.9713 41.2477C26.7379 41.2162 26.5004 41.2471 26.2828 41.3373L23.8737 42.335C23.6561 42.4251 23.4662 42.5713 23.3234 42.7586C23.1806 42.946 23.09 43.1678 23.0608 43.4015L22.819 45.3368H22.5064L22.2646 43.4012C22.2354 43.1675 22.1448 42.9456 22.002 42.7583C21.8592 42.5709 21.6693 42.4248 21.4517 42.3347L19.0426 41.3373C18.8251 41.2472 18.5875 41.2164 18.3542 41.2479C18.1208 41.2794 17.9 41.3722 17.7141 41.5168L16.1743 42.7145L15.9533 42.4933L17.1509 40.9537C17.2955 40.7677 17.3882 40.5468 17.4197 40.3133C17.4512 40.0799 17.4202 39.8422 17.33 39.6246L16.3323 37.2156C16.2422 36.998 16.096 36.8081 15.9086 36.6654C15.7213 36.5226 15.4995 36.432 15.2657 36.4028L13.3305 36.1609V35.8482Z" fill="#34A9FF"></path>
    <path d="M22.6636 40.005C23.4546 40.005 24.2279 39.7704 24.8856 39.331C25.5433 38.8915 26.056 38.2668 26.3587 37.536C26.6614 36.8052 26.7406 36.001 26.5863 35.2252C26.432 34.4493 26.051 33.7367 25.4917 33.1774C24.9323 32.618 24.2197 32.2371 23.4439 32.0828C22.668 31.9284 21.8639 32.0076 21.133 32.3104C20.4022 32.6131 19.7776 33.1257 19.3381 33.7834C18.8986 34.4412 18.6641 35.2144 18.6641 36.0055C18.6652 37.0658 19.087 38.0824 19.8368 38.8322C20.5866 39.582 21.6032 40.0038 22.6636 40.005ZM22.6636 34.6723C22.9273 34.6723 23.185 34.7505 23.4043 34.897C23.6235 35.0434 23.7944 35.2517 23.8953 35.4953C23.9962 35.7389 24.0226 36.0069 23.9712 36.2655C23.9197 36.5242 23.7927 36.7617 23.6063 36.9482C23.4198 37.1346 23.1823 37.2616 22.9237 37.313C22.6651 37.3645 22.397 37.3381 22.1534 37.2372C21.9098 37.1362 21.7016 36.9654 21.5551 36.7461C21.4086 36.5269 21.3304 36.2691 21.3304 36.0055C21.3308 35.652 21.4714 35.3131 21.7213 35.0632C21.9713 34.8133 22.3101 34.6727 22.6636 34.6723Z" fill="#34A9FF"></path>
    <path d="M78.8241 19.9338L74.7445 19.4237L73.779 17.0928L76.303 13.8473C76.5025 13.5908 76.6014 13.2703 76.5812 12.946C76.561 12.6217 76.4231 12.316 76.1934 12.0862L73.2474 9.14019C73.0176 8.91046 72.7118 8.77256 72.3875 8.7524C72.0632 8.73224 71.7427 8.83121 71.4862 9.0307L68.2409 11.5547L65.9099 10.5882L65.3999 6.50883C65.3595 6.18654 65.2027 5.89012 64.9591 5.67524C64.7156 5.46035 64.4019 5.34178 64.0771 5.3418H59.9109C59.586 5.34181 59.2722 5.46049 59.0286 5.67555C58.785 5.89061 58.6284 6.18723 58.5881 6.50966L58.0778 10.589L55.7467 11.5556L52.5018 9.0307C52.2453 8.83121 51.9248 8.73224 51.6005 8.7524C51.2762 8.77256 50.9704 8.91046 50.7406 9.14019L47.7946 12.0862C47.5649 12.316 47.4269 12.6217 47.4068 12.946C47.3866 13.2703 47.4855 13.5908 47.685 13.8473L50.209 17.0928L49.2435 19.4235L45.1639 19.9336C44.8415 19.9739 44.5448 20.1306 44.3298 20.3742C44.1147 20.6179 43.996 20.9317 43.9961 21.2566V25.4228C43.9961 25.7478 44.1148 26.0615 44.3298 26.3051C44.5449 26.5487 44.8415 26.7054 45.1639 26.7457L49.2435 27.2558L50.209 29.5867L47.685 32.8321C47.4855 33.0886 47.3866 33.4091 47.4068 33.7334C47.4269 34.0577 47.5649 34.3635 47.7946 34.5933L50.7406 37.5392C50.9704 37.769 51.2762 37.9069 51.6005 37.927C51.9248 37.9472 52.2453 37.8482 52.5018 37.6487L55.7471 35.1247L58.0781 36.0912L58.5881 40.1706C58.6285 40.4929 58.7853 40.7893 59.0289 41.0042C59.2724 41.2191 59.5861 41.3377 59.9109 41.3376H64.0771C64.402 41.3376 64.7158 41.2189 64.9594 41.0039C65.203 40.7888 65.3596 40.4922 65.3999 40.1698L65.9099 36.0904L68.2409 35.1239L71.4862 37.6479C71.7427 37.8474 72.0632 37.9464 72.3875 37.9262C72.7118 37.906 73.0176 37.7681 73.2474 37.5384L76.1934 34.5924C76.4231 34.3627 76.561 34.0569 76.5812 33.7326C76.6014 33.4083 76.5025 33.0878 76.303 32.8313L73.779 29.5858L74.7445 27.2549L78.8241 26.7448C79.1463 26.7046 79.4429 26.548 79.6579 26.3046C79.8729 26.0612 79.9917 25.7476 79.9919 25.4228V21.2566C79.9919 20.9317 79.8732 20.6179 79.6582 20.3743C79.4431 20.1307 79.1465 19.9741 78.8241 19.9338ZM77.3256 24.2459L73.6443 24.7062C73.4106 24.7354 73.1888 24.826 73.0014 24.9688C72.8141 25.1115 72.6679 25.3014 72.5778 25.519L71.0186 29.283C70.9285 29.5006 70.8976 29.7382 70.9291 29.9716C70.9606 30.2049 71.0534 30.4258 71.1979 30.6117L73.476 33.54L72.1943 34.8216L69.266 32.5438C69.0801 32.3992 68.8592 32.3064 68.6259 32.2749C68.3925 32.2434 68.1549 32.2742 67.9373 32.3643L64.1732 33.9237C63.9556 34.0138 63.7658 34.16 63.623 34.3473C63.4803 34.5347 63.3897 34.7565 63.3605 34.9902L62.9002 38.6713H61.0878L60.6275 34.99C60.5983 34.7563 60.5077 34.5345 60.365 34.3472C60.2222 34.1598 60.0324 34.0136 59.8147 33.9235L56.0507 32.3642C55.8331 32.2741 55.5955 32.2432 55.3621 32.2747C55.1288 32.3063 54.9079 32.3991 54.722 32.5437L51.7938 34.8217L50.5122 33.5402L52.7899 30.6117C52.9345 30.4258 53.0272 30.2049 53.0587 29.9716C53.0902 29.7382 53.0593 29.5006 52.9692 29.283L51.4101 25.519C51.3199 25.3014 51.1737 25.1115 50.9864 24.9688C50.7991 24.826 50.5772 24.7354 50.3435 24.7062L46.6624 24.2459V22.4335L50.3437 21.9734C50.5774 21.9442 50.7992 21.8536 50.9866 21.7109C51.1739 21.5681 51.3201 21.3782 51.4102 21.1606L52.9694 17.3966C53.0595 17.179 53.0904 16.9414 53.0589 16.7081C53.0274 16.4747 52.9346 16.2538 52.7901 16.0679L50.512 13.1394L51.7937 11.8579L54.722 14.1356C54.9079 14.2802 55.1288 14.373 55.3621 14.4045C55.5955 14.4361 55.8331 14.4052 56.0507 14.3151L59.8147 12.7558C60.0324 12.6656 60.2222 12.5195 60.365 12.3321C60.5077 12.1448 60.5983 11.923 60.6275 11.6892L61.0878 8.00816H62.9002L63.3605 11.6894C63.3897 11.9231 63.4803 12.1449 63.623 12.3323C63.7658 12.5196 63.9556 12.6658 64.1732 12.7559L67.9373 14.3153C68.1549 14.4054 68.3925 14.4362 68.6259 14.4047C68.8592 14.3732 69.0801 14.2804 69.266 14.1358L72.1942 11.8577L73.4758 13.1392L71.1981 16.0677C71.0535 16.2536 70.9608 16.4745 70.9293 16.7079C70.8978 16.9413 70.9287 17.1788 71.0188 17.3964L72.5779 21.1605C72.6681 21.3781 72.8143 21.5679 73.0016 21.7107C73.1889 21.8535 73.4108 21.944 73.6445 21.9732L77.3256 22.4335V24.2459Z" fill="#34A9FF"></path>
    <path d="M61.9926 16.0078C60.5424 16.0078 59.1247 16.4379 57.9189 17.2436C56.7131 18.0493 55.7732 19.1945 55.2183 20.5343C54.6633 21.8741 54.5181 23.3484 54.801 24.7708C55.0839 26.1932 55.7823 27.4997 56.8077 28.5252C57.8332 29.5506 59.1397 30.249 60.5621 30.5319C61.9845 30.8148 63.4588 30.6696 64.7986 30.1146C66.1384 29.5597 67.2836 28.6198 68.0893 27.414C68.895 26.2082 69.3251 24.7905 69.3251 23.3403C69.3229 21.3963 68.5497 19.5325 67.1751 18.1578C65.8004 16.7832 63.9366 16.01 61.9926 16.0078ZM61.9926 28.0064C61.0697 28.0064 60.1676 27.7328 59.4002 27.2201C58.6329 26.7073 58.0348 25.9786 57.6816 25.126C57.3285 24.2733 57.2361 23.3351 57.4161 22.43C57.5962 21.5249 58.0406 20.6934 58.6931 20.0409C59.3457 19.3883 60.1771 18.9439 61.0823 18.7638C61.9874 18.5838 62.9256 18.6762 63.7782 19.0294C64.6309 19.3825 65.3596 19.9806 65.8723 20.7479C66.3851 21.5153 66.6587 22.4174 66.6587 23.3403C66.6573 24.5774 66.1652 25.7634 65.2905 26.6382C64.4157 27.513 63.2297 28.005 61.9926 28.0064Z" fill="#34A9FF"></path>
    <path d="M18.6645 58.3164V61.3362C18.3109 61.3362 17.9718 61.4767 17.7218 61.7267C17.4718 61.9767 17.3313 62.3158 17.3313 62.6694V78.6676C17.3313 79.0211 17.4718 79.3602 17.7218 79.6103C17.9718 79.8603 18.3109 80.0007 18.6645 80.0007H26.6636C27.0172 80.0007 27.3563 79.8603 27.6063 79.6103C27.8563 79.3602 27.9968 79.0211 27.9968 78.6676V62.6694C27.9968 62.3158 27.8563 61.9767 27.6063 61.7267C27.3563 61.4767 27.0172 61.3362 26.6636 61.3362V58.3164C37.2599 56.422 45.3281 47.1379 45.3281 36.0058C45.3281 23.5089 35.1611 13.3418 22.664 13.3418C10.167 13.3418 0 23.5089 0 36.0058C0 47.1379 8.06823 56.422 18.6645 58.3164ZM25.3304 77.3344H19.9977V64.0026H25.3304V77.3344ZM21.3309 61.3362V58.6699H23.9972V61.3362H21.3309ZM22.664 16.0081C26.6192 16.0081 30.4856 17.181 33.7742 19.3783C37.0628 21.5757 39.6259 24.6989 41.1395 28.353C42.6531 32.0071 43.0491 36.028 42.2775 39.9072C41.5059 43.7863 39.6013 47.3496 36.8046 50.1463C34.0078 52.943 30.4446 54.8476 26.5654 55.6193C22.6862 56.3909 18.6654 55.9949 15.0113 54.4813C11.3572 52.9677 8.23395 50.4045 6.03658 47.1159C3.8392 43.8273 2.66636 39.961 2.66636 36.0058C2.67236 30.7039 4.78118 25.6209 8.53017 21.8719C12.2792 18.1229 17.3622 16.0141 22.664 16.0081Z" fill="#34A9FF"></path>
    <path d="M22.6634 53.3365C26.0912 53.3365 29.442 52.32 32.2922 50.4156C35.1423 48.5113 37.3637 45.8045 38.6755 42.6376C39.9872 39.4707 40.3304 35.9859 39.6617 32.624C38.993 29.262 37.3423 26.1739 34.9185 23.7501C32.4947 21.3262 29.4065 19.6756 26.0446 19.0069C22.6826 18.3381 19.1979 18.6813 16.031 19.9931C12.8641 21.3049 10.1573 23.5263 8.25289 26.3764C6.3485 29.2265 5.33203 32.5774 5.33203 36.0052C5.33724 40.6001 7.16488 45.0054 10.414 48.2545C13.6632 51.5037 18.0684 53.3313 22.6634 53.3365ZM22.6634 21.3402C25.5639 21.3402 28.3992 22.2003 30.8108 23.8117C33.2225 25.4231 35.1021 27.7135 36.2121 30.3931C37.322 33.0728 37.6124 36.0214 37.0466 38.8662C36.4807 41.7109 35.084 44.3239 33.0331 46.3749C30.9822 48.4258 28.3691 49.8225 25.5244 50.3884C22.6797 50.9542 19.731 50.6638 17.0514 49.5538C14.3717 48.4439 12.0813 46.5642 10.4699 44.1526C8.85848 41.7409 7.99839 38.9056 7.99839 36.0052C8.0028 32.1171 9.54927 28.3896 12.2986 25.6403C15.0478 22.8911 18.7754 21.3446 22.6634 21.3402Z" fill="#34A9FF"></path>
    <path d="M45.3281 70.6685V73.3349H49.3277V80.0008H51.994V73.3349H62.6595C63.013 73.3349 63.3521 73.1944 63.6022 72.9444C63.8522 72.6944 63.9926 72.3553 63.9926 72.0017V56.0035H70.6585C70.8398 56.0035 71.0192 55.9666 71.1857 55.8949C71.3523 55.8232 71.5024 55.7183 71.627 55.5866C71.7516 55.4549 71.848 55.2992 71.9104 55.129C71.9728 54.9587 71.9998 54.7776 71.9897 54.5965L71.175 39.9316L68.5128 40.0792L69.2492 53.3372H62.6595C62.3059 53.3372 61.9668 53.4776 61.7168 53.7277C61.4667 53.9777 61.3263 54.3168 61.3263 54.6704V60.0031H53.3272V62.6694H61.3263V70.6685H45.3281Z" fill="#34A9FF"></path>
    <path d="M17.5664 9.76543L19.5162 11.5839C24.0083 6.76541 30.0552 3.6847 36.5939 2.88334C43.1326 2.08199 49.7445 3.61129 55.2672 7.20239L56.7234 4.96932C50.6769 1.02926 43.4337 -0.650057 36.2703 0.227344C29.107 1.10475 22.4832 4.48254 17.5664 9.76543Z" fill="#34A9FF"></path>
  </g>
</svg>
