<?xml version="1.0" encoding="UTF-8"?>
<svg xmlns="http://www.w3.org/2000/svg" width="80" height="80" viewBox="0 0 80 80" fill="none">
  <g clip-path="url(#clip0_1645_1475)">
    <path d="M78.6667 10.6667H48V5.33334H60.24C60.5545 6.22296 61.1734 6.97275 61.9873 7.45018C62.8012 7.92762 63.7576 8.10196 64.6876 7.9424C65.6176 7.78284 66.4613 7.29965 67.0695 6.57822C67.6777 5.8568 68.0112 4.94359 68.0112 4.00001C68.0112 3.05642 67.6777 2.14322 67.0695 1.42179C66.4613 0.70037 65.6176 0.217176 64.6876 0.0576142C63.7576 -0.101948 62.8012 0.0723968 61.9873 0.549833C61.1734 1.02727 60.5545 1.77706 60.24 2.66667H46.6667C46.313 2.66667 45.9739 2.80715 45.7239 3.0572C45.4738 3.30725 45.3333 3.64639 45.3333 4.00001V10.6667H34.6667V4.00001C34.6667 3.64639 34.5262 3.30725 34.2761 3.0572C34.0261 2.80715 33.687 2.66667 33.3333 2.66667H19.76C19.4455 1.77706 18.8266 1.02727 18.0127 0.549833C17.1988 0.0723968 16.2423 -0.101948 15.3124 0.0576142C14.3824 0.217176 13.5387 0.70037 12.9305 1.42179C12.3223 2.14322 11.9888 3.05642 11.9888 4.00001C11.9888 4.94359 12.3223 5.8568 12.9305 6.57822C13.5387 7.29965 14.3824 7.78284 15.3124 7.9424C16.2423 8.10196 17.1988 7.92762 18.0127 7.45018C18.8266 6.97275 19.4455 6.22296 19.76 5.33334H32V10.6667H1.33333C0.979711 10.6667 0.640573 10.8072 0.390524 11.0572C0.140476 11.3072 0 11.6464 0 12V62.6667C0 63.0203 0.140476 63.3594 0.390524 63.6095C0.640573 63.8595 0.979711 64 1.33333 64H30.6667V72H17.3333C16.9797 72 16.6406 72.1405 16.3905 72.3905C16.1405 72.6406 16 72.9797 16 73.3333V78.6667C16 79.0203 16.1405 79.3594 16.3905 79.6095C16.6406 79.8595 16.9797 80 17.3333 80H62.6667C63.0203 80 63.3594 79.8595 63.6095 79.6095C63.8595 79.3594 64 79.0203 64 78.6667V73.3333C64 72.9797 63.8595 72.6406 63.6095 72.3905C63.3594 72.1405 63.0203 72 62.6667 72H49.3333V64H78.6667C79.0203 64 79.3594 63.8595 79.6095 63.6095C79.8595 63.3594 80 63.0203 80 62.6667V12C80 11.6464 79.8595 11.3072 79.6095 11.0572C79.3594 10.8072 79.0203 10.6667 78.6667 10.6667ZM64 2.66667C64.2637 2.66667 64.5215 2.74487 64.7408 2.89138C64.96 3.03789 65.1309 3.24613 65.2318 3.48976C65.3327 3.7334 65.3592 4.00149 65.3077 4.26013C65.2563 4.51877 65.1293 4.75635 64.9428 4.94282C64.7563 5.12929 64.5188 5.25627 64.2601 5.30772C64.0015 5.35917 63.7334 5.33276 63.4898 5.23185C63.2461 5.13093 63.0379 4.96003 62.8914 4.74077C62.7449 4.5215 62.6667 4.26372 62.6667 4.00001C62.6667 3.64639 62.8071 3.30725 63.0572 3.0572C63.3072 2.80715 63.6464 2.66667 64 2.66667ZM16 5.33334C15.7363 5.33334 15.4785 5.25514 15.2592 5.10863C15.04 4.96213 14.8691 4.75389 14.7682 4.51025C14.6672 4.26662 14.6408 3.99853 14.6923 3.73989C14.7437 3.48125 14.8707 3.24367 15.0572 3.0572C15.2437 2.87073 15.4812 2.74374 15.7399 2.69229C15.9985 2.64085 16.2666 2.66725 16.5102 2.76817C16.7539 2.86909 16.9621 3.03998 17.1086 3.25925C17.2551 3.47851 17.3333 3.7363 17.3333 4.00001C17.3333 4.35363 17.1929 4.69277 16.9428 4.94282C16.6928 5.19286 16.3536 5.33334 16 5.33334ZM45.3333 13.3333V26.3467L44.16 27.5067L44 27.44V25.3333C44 24.9797 43.8595 24.6406 43.6095 24.3905C43.3594 24.1405 43.0203 24 42.6667 24H37.3333C36.9797 24 36.6406 24.1405 36.3905 24.3905C36.1405 24.6406 36 24.9797 36 25.3333V27.44L35.84 27.5067L34.6667 26.3467V13.3333H45.3333ZM47.04 33.5333C47.3023 34.0163 47.5124 34.5258 47.6667 35.0533C47.7523 35.3368 47.9298 35.5837 48.1712 35.7551C48.4126 35.9265 48.7042 36.0126 49 36H50.6667V38.6667H48.9467C48.6509 38.654 48.3593 38.7402 48.1178 38.9116C47.8764 39.083 47.6989 39.3299 47.6133 39.6133C47.459 40.1408 47.249 40.6504 46.9867 41.1333C46.8666 41.386 46.829 41.67 46.8793 41.9452C46.9295 42.2204 47.065 42.4728 47.2667 42.6667L48.48 43.88L46.6667 45.8133L45.3333 44.6C45.1292 44.3953 44.864 44.2625 44.5779 44.2217C44.2917 44.1808 44 44.234 43.7467 44.3733C43.2637 44.6356 42.7542 44.8457 42.2267 45C41.9432 45.0856 41.6963 45.2631 41.5249 45.5045C41.3535 45.7459 41.2674 46.0375 41.28 46.3333V48H38.6667V46.28C38.6793 45.9842 38.5931 45.6926 38.4217 45.4512C38.2503 45.2098 38.0034 45.0323 37.72 44.9467C37.1925 44.7924 36.683 44.5823 36.2 44.32C35.9467 44.1807 35.655 44.1274 35.3688 44.1683C35.0826 44.2092 34.8175 44.342 34.6133 44.5467L33.4 45.76L31.52 44L32.7333 42.7867C32.938 42.5825 33.0708 42.3174 33.1117 42.0312C33.1526 41.745 33.0993 41.4533 32.96 41.2C32.6977 40.717 32.4876 40.2075 32.3333 39.68C32.2477 39.3966 32.0702 39.1497 31.8288 38.9783C31.5874 38.8069 31.2958 38.7207 31 38.7333H29.3333V36H31.0533C31.3491 36.0126 31.6407 35.9265 31.8822 35.7551C32.1236 35.5837 32.3011 35.3368 32.3867 35.0533C32.5409 34.5258 32.751 34.0163 33.0133 33.5333C33.1334 33.2807 33.171 32.9967 33.1207 32.7215C33.0705 32.4463 32.9349 32.1939 32.7333 32L31.52 30.7867L33.4 28.9067L34.6133 30.12C34.8175 30.3247 35.0826 30.4575 35.3688 30.4984C35.655 30.5392 35.9467 30.486 36.2 30.3467C36.683 30.0844 37.1925 29.8743 37.72 29.72C38.0034 29.6344 38.2503 29.4569 38.4217 29.2155C38.5931 28.9741 38.6793 28.6825 38.6667 28.3867V26.6667H41.3333V28.3867C41.3207 28.6825 41.4069 28.9741 41.5783 29.2155C41.7497 29.4569 41.9966 29.6344 42.28 29.72C42.8075 29.8743 43.317 30.0844 43.8 30.3467C44.0526 30.4667 44.3367 30.5043 44.6118 30.4541C44.887 30.4038 45.1394 30.2683 45.3333 30.0667L46.5467 28.8533L48.4267 30.7333L47.2133 31.9467C47.0171 32.1571 46.8943 32.4252 46.863 32.7112C46.8318 32.9972 46.8939 33.2856 47.04 33.5333ZM32 13.3333V26.48L28.68 29.7867C28.555 29.9106 28.4558 30.0581 28.3881 30.2206C28.3205 30.383 28.2856 30.5573 28.2856 30.7333C28.2856 30.9094 28.3205 31.0836 28.3881 31.2461C28.4558 31.4086 28.555 31.5561 28.68 31.68L30.1733 33.1733C30.1569 33.2289 30.1345 33.2825 30.1067 33.3333H28C27.6464 33.3333 27.3072 33.4738 27.0572 33.7239C26.8071 33.9739 26.6667 34.313 26.6667 34.6667V36H13.0933C12.7788 35.1104 12.1599 34.3606 11.346 33.8832C10.5321 33.4057 9.57568 33.2314 8.64569 33.3909C7.7157 33.5505 6.87205 34.0337 6.26386 34.7551C5.65567 35.4765 5.3221 36.3898 5.3221 37.3333C5.3221 38.2769 5.65567 39.1901 6.26386 39.9115C6.87205 40.633 7.7157 41.1162 8.64569 41.2757C9.57568 41.4353 10.5321 41.2609 11.346 40.7835C12.1599 40.3061 12.7788 39.5563 13.0933 38.6667H26.6667V40C26.6667 40.3536 26.8071 40.6928 27.0572 40.9428C27.3072 41.1929 27.6464 41.3333 28 41.3333H30.1067C30.1345 41.3841 30.1569 41.4378 30.1733 41.4933L28.68 42.9867C28.5564 43.1113 28.4587 43.259 28.3923 43.4215C28.326 43.5839 28.2923 43.7579 28.2933 43.9333C28.2982 44.2864 28.4364 44.6245 28.68 44.88L32.4533 48.6533C32.5773 48.7783 32.7248 48.8775 32.8872 48.9452C33.0497 49.0129 33.224 49.0477 33.4 49.0477C33.576 49.0477 33.7503 49.0129 33.9128 48.9452C34.0752 48.8775 34.2227 48.7783 34.3467 48.6533L35.84 47.16L36 47.2267V49.3333C36 49.687 36.1405 50.0261 36.3905 50.2761C36.6406 50.5262 36.9797 50.6667 37.3333 50.6667H42.6667C43.0203 50.6667 43.3594 50.5262 43.6095 50.2761C43.8595 50.0261 44 49.687 44 49.3333V47.2267L44.16 47.16L45.6533 48.6533C45.7773 48.7783 45.9247 48.8775 46.0872 48.9452C46.2497 49.0129 46.424 49.0477 46.6 49.0477C46.776 49.0477 46.9503 49.0129 47.1128 48.9452C47.2752 48.8775 47.4227 48.7783 47.5467 48.6533L51.32 44.88C51.5636 44.6245 51.7018 44.2864 51.7067 43.9333C51.7077 43.7579 51.674 43.5839 51.6077 43.4215C51.5413 43.259 51.4436 43.1113 51.32 42.9867L49.8267 41.4933C49.8431 41.4378 49.8655 41.3841 49.8933 41.3333H52C52.3536 41.3333 52.6928 41.1929 52.9428 40.9428C53.1929 40.6928 53.3333 40.3536 53.3333 40V38.6667H66.9067C67.2212 39.5563 67.8401 40.3061 68.654 40.7835C69.4678 41.2609 70.4243 41.4353 71.3543 41.2757C72.2843 41.1162 73.1279 40.633 73.7361 39.9115C74.3443 39.1901 74.6779 38.2769 74.6779 37.3333C74.6779 36.3898 74.3443 35.4765 73.7361 34.7551C73.1279 34.0337 72.2843 33.5505 71.3543 33.3909C70.4243 33.2314 69.4678 33.4057 68.654 33.8832C67.8401 34.3606 67.2212 35.1104 66.9067 36H53.3333V34.6667C53.3333 34.313 53.1929 33.9739 52.9428 33.7239C52.6928 33.4738 52.3536 33.3333 52 33.3333H49.8933C49.8655 33.2825 49.8431 33.2289 49.8267 33.1733L51.32 31.68C51.445 31.5561 51.5442 31.4086 51.6119 31.2461C51.6795 31.0836 51.7144 30.9094 51.7144 30.7333C51.7144 30.5573 51.6795 30.383 51.6119 30.2206C51.5442 30.0581 51.445 29.9106 51.32 29.7867L48 26.48V13.3333H77.3333V56H2.66667V13.3333H32ZM10.6667 37.3333C10.6667 37.597 10.5885 37.8548 10.442 38.0741C10.2955 38.2934 10.0872 38.4643 9.84358 38.5652C9.59994 38.6661 9.33185 38.6925 9.07321 38.641C8.81457 38.5896 8.57699 38.4626 8.39052 38.2761C8.20405 38.0897 8.07707 37.8521 8.02562 37.5935C7.97417 37.3348 8.00058 37.0667 8.10149 36.8231C8.20241 36.5795 8.37331 36.3712 8.59257 36.2247C8.81184 36.0782 9.06962 36 9.33333 36C9.68695 36 10.0261 36.1405 10.2761 36.3905C10.5262 36.6406 10.6667 36.9797 10.6667 37.3333ZM69.3333 37.3333C69.3333 37.0696 69.4115 36.8118 69.558 36.5926C69.7045 36.3733 69.9128 36.2024 70.1564 36.1015C70.4001 36.0006 70.6681 35.9742 70.9268 36.0256C71.1854 36.0771 71.423 36.2041 71.6095 36.3905C71.7959 36.577 71.9229 36.8146 71.9744 37.0732C72.0258 37.3319 71.9994 37.5999 71.8985 37.8436C71.7976 38.0872 71.6267 38.2955 71.4074 38.442C71.1882 38.5885 70.9304 38.6667 70.6667 38.6667C70.313 38.6667 69.9739 38.5262 69.7239 38.2761C69.4738 38.0261 69.3333 37.687 69.3333 37.3333ZM61.3333 77.3333H18.6667V74.6667H61.3333V77.3333ZM46.6667 72H33.3333V64H46.6667V72ZM2.66667 61.3333V58.6667H77.3333V61.3333H2.66667Z" fill="#34A9FF"></path>
  </g>
  <defs>
    <clipPath id="clip0_1645_1475">
      <rect width="80" height="80" fill="white"></rect>
    </clipPath>
  </defs>
</svg>
