<?xml version="1.0" encoding="UTF-8"?>
<svg xmlns="http://www.w3.org/2000/svg" width="80" height="80" viewBox="0 0 80 80" fill="none">
  <g clip-path="url(#clip0_1645_1467)">
    <mask id="mask0_1645_1467" style="mask-type:luminance" maskUnits="userSpaceOnUse" x="0" y="0" width="80" height="80">
      <path d="M80 0H0V80H80V0Z" fill="white"></path>
    </mask>
    <g mask="url(#mask0_1645_1467)">
      <path d="M78.75 38.75H75.125C74.5 20.375 59.625 5.5 41.25 4.875V1.25C41.25 0.5 40.75 0 40 0C39.25 0 38.75 0.5 38.75 1.25V4.875C20.375 5.5 5.5 20.375 4.875 38.75H1.25C0.5 38.75 0 39.25 0 40C0 40.75 0.5 41.25 1.25 41.25H4.875C5.5 59.625 20.375 74.5 38.75 75.125V78.75C38.75 79.5 39.25 80 40 80C40.75 80 41.25 79.5 41.25 78.75V75.125C59.625 74.5 74.5 59.625 75.125 41.25H78.75C79.5 41.25 80 40.75 80 40C80 39.25 79.5 38.75 78.75 38.75ZM41.25 72.625V69C41.25 68.25 40.75 67.75 40 67.75C39.25 67.75 38.75 68.25 38.75 69V72.625C21.75 72 8 58.25 7.375 41.25H11C11.75 41.25 12.25 40.75 12.25 40C12.25 39.25 11.75 38.75 11 38.75H7.375C8 21.75 21.75 8 38.75 7.375V11C38.75 11.75 39.25 12.25 40 12.25C40.75 12.25 41.25 11.75 41.25 11V7.375C58.25 8 72 21.75 72.625 38.75H69C68.25 38.75 67.75 39.25 67.75 40C67.75 40.75 68.25 41.25 69 41.25H72.625C72 58.25 58.25 72 41.25 72.625Z" fill="#34A9FF"></path>
      <path d="M55.4993 45.2504L56.7493 46.8754C57.1243 47.3754 57.9993 47.5004 58.4993 47.1254C58.9993 46.7504 59.1243 45.8754 58.7493 45.3754L57.1243 43.2504C56.8743 42.8754 56.4993 42.7504 56.1243 42.7504H53.9993C53.8743 41.5004 53.6243 40.2504 53.2493 39.1254H55.4993L56.7493 40.7504C57.1243 41.2504 57.9993 41.3754 58.4993 41.0004C58.9993 40.6254 59.1243 39.7504 58.7493 39.2504L57.1243 37.1254C56.8743 36.7504 56.4993 36.6254 56.1243 36.6254H52.3743C51.2493 34.2504 49.7493 32.1254 47.8743 30.6254C47.8743 30.3754 47.9993 30.1254 47.9993 29.7504C47.9993 26.6254 46.2493 24.0004 43.6243 22.6254C44.2493 21.6254 45.2493 21.1254 46.4993 20.8754C47.1243 20.7504 47.6243 20.2504 47.6243 19.6254C47.6243 18.8754 46.9993 18.2504 46.2493 18.3754C43.4993 18.7504 41.9993 20.2504 41.2493 21.7504C40.8743 21.7504 40.4993 21.6254 40.1243 21.6254C39.7493 21.6254 39.3743 21.6254 38.9993 21.7504C37.9993 19.8754 36.2493 18.7504 33.9993 18.3754C33.2493 18.2504 32.6243 18.8754 32.6243 19.6254C32.6243 20.2504 33.1243 20.7504 33.7493 20.8754C34.9993 21.1254 35.9993 21.6254 36.6243 22.6254C33.9993 24.0004 32.2493 26.6254 32.2493 29.7504C32.2493 30.0004 32.2493 30.3754 32.3743 30.6254C30.3743 32.2504 28.8743 34.2504 27.7493 36.6254H23.9993C23.6243 36.6254 23.2493 36.7504 22.9993 37.1254L21.2493 39.2504C20.8743 39.7504 20.9993 40.6254 21.4993 41.0004C21.9993 41.3754 22.8743 41.2504 23.2493 40.7504L24.4993 39.1254H26.6243C26.2493 40.2504 25.9993 41.5004 25.8743 42.7504H23.7493C23.3743 42.7504 22.9993 42.8754 22.7493 43.2504L21.2493 45.3754C20.8743 45.8754 20.9993 46.7504 21.4993 47.1254C21.9993 47.5004 22.8743 47.3754 23.2493 46.8754L24.4993 45.2504H25.8743C25.8743 46.5004 26.1243 47.7504 26.3743 48.8754H23.8743C23.4993 48.8754 23.1243 49.0004 22.8743 49.3754L21.2493 51.5004C20.8743 52.0004 20.9993 52.8754 21.4993 53.2504C21.9993 53.6254 22.8743 53.5004 23.2493 53.0004L24.4993 51.3754H27.1243C29.2493 57.3754 34.2493 61.6254 40.1243 61.6254C45.8743 61.6254 50.8743 57.3754 53.1243 51.3754H55.7493L56.9993 53.0004C57.3743 53.5004 58.2493 53.6254 58.7493 53.2504C59.2493 52.8754 59.3743 52.0004 58.9993 51.5004L57.3743 49.3754C57.1243 49.0004 56.7493 48.8754 56.3743 48.8754H53.8743C54.1243 47.7504 54.2493 46.5004 54.3743 45.2504H55.4993ZM38.7493 59.0004C32.8743 58.2504 28.3743 52.1254 28.3743 44.6254C28.3743 40.0004 30.1243 35.7504 32.9993 33.0004C34.1243 34.6254 35.9993 35.5004 38.7493 35.7504V59.0004ZM39.9993 33.3754C34.4993 33.3754 34.4993 30.6254 34.4993 29.6254C34.4993 26.6254 36.9993 24.1254 39.9993 24.1254C42.9993 24.1254 45.4993 26.6254 45.4993 29.6254C45.4993 30.6254 45.4993 33.3754 39.9993 33.3754ZM41.2493 59.0004V35.8754C43.9993 35.6254 45.8743 34.7504 46.9993 33.1254C49.8743 35.8754 51.6243 40.1254 51.6243 44.7504C51.6243 52.1254 47.1243 58.2504 41.2493 59.0004Z" fill="#34A9FF"></path>
    </g>
  </g>
  <defs>
    <clipPath id="clip0_1645_1467">
      <rect width="80" height="80" fill="white"></rect>
    </clipPath>
  </defs>
</svg>
