<?xml version="1.0" encoding="UTF-8"?>
<svg xmlns="http://www.w3.org/2000/svg" width="81" height="80" viewBox="0 0 81 80" fill="none">
  <g clip-path="url(#clip0_1645_1477)">
    <mask id="mask0_1645_1477" style="mask-type:luminance" maskUnits="userSpaceOnUse" x="0" y="0" width="81" height="80">
      <path d="M81 0H0V80H81V0Z" fill="white"></path>
    </mask>
    <g mask="url(#mask0_1645_1477)">
      <path d="M39.9987 36.127C37.7963 36.1325 35.6251 36.6479 33.6552 37.6328C31.6853 38.6178 29.9703 40.0455 28.6445 41.8041L30.7089 43.3524C31.7905 41.9102 33.1931 40.7397 34.8055 39.9335C36.418 39.1272 38.196 38.7075 39.9987 38.7075C41.8015 38.7075 43.5795 39.1272 45.1919 39.9335C46.8043 40.7397 48.2069 41.9102 49.2885 43.3524L51.353 41.8041C50.0271 40.0455 48.3121 38.6178 46.3422 37.6328C44.3723 36.6479 42.2011 36.1325 39.9987 36.127Z" fill="#34A9FF"></path>
      <path d="M75.0193 14.5089C76.441 14.154 77.7032 13.3337 78.6049 12.1788C79.5067 11.0238 79.9963 9.60039 79.9959 8.13506V1.29026C79.9959 0.948059 79.8599 0.619877 79.6179 0.377907C79.376 0.135937 79.0478 0 78.7056 0H71.8672C70.4023 0.00050171 68.9795 0.490493 67.825 1.39214C66.6704 2.29378 65.8502 3.55538 65.4947 4.97652L64.6418 8.38666C61.5362 11.5026 58.5273 14.7528 55.6229 18.0842C54.2277 18.0657 52.8386 18.2731 51.5096 18.6984C50.6164 16.9314 49.3259 15.3954 47.7395 14.2109V7.74153C47.7395 5.68835 46.9238 3.71926 45.472 2.26744C44.0202 0.815623 42.0511 0 39.9979 0C37.9447 0 35.9757 0.815623 34.5238 2.26744C33.072 3.71926 32.2564 5.68835 32.2564 7.74153V14.2109C30.6724 15.3945 29.3838 16.9287 28.4914 18.6932C27.1626 18.2671 25.7735 18.0592 24.3781 18.0778C21.4724 14.7463 18.4648 11.4975 15.3592 8.3815L14.5089 4.97652C14.1519 3.55593 13.3312 2.29507 12.1766 1.39365C11.0221 0.492228 9.59981 0.0017826 8.13506 0H1.29026C0.948059 0 0.619877 0.135937 0.377907 0.377907C0.135938 0.619877 3.24005e-07 0.948059 3.24005e-07 1.29026V8.13506C-0.000459792 9.60039 0.489147 11.0238 1.39092 12.1788C2.2927 13.3337 3.55483 14.154 4.97652 14.5089L8.3815 15.3605C10.6317 17.6021 12.9434 19.7955 15.3166 21.9408C13.5576 23.7188 12.3593 25.9741 11.8704 28.4269C8.88885 28.6695 6.08427 29.9405 3.93638 32.0225C1.7885 34.1045 0.430768 36.8682 0.0954602 39.8407C-0.239848 42.8132 0.4681 45.8099 2.0982 48.318C3.7283 50.8262 6.17925 52.6901 9.03179 53.5908C9.03895 55.9423 9.72279 58.242 11.0017 60.2154C12.2805 62.1888 14.1004 63.7523 16.2438 64.7194C18.3873 65.6864 20.7638 66.0161 23.0896 65.669C25.4154 65.3219 27.5921 64.3127 29.3598 62.7619C30.1561 63.9169 31.1343 64.9352 32.2564 65.7772V68.3836C32.2564 68.6254 32.3243 68.8623 32.4525 69.0674L38.9038 79.3894C39.0195 79.5761 39.181 79.7302 39.3729 79.8371C39.5648 79.9439 39.7808 80 40.0005 80C40.2202 80 40.4362 79.9439 40.6281 79.8371C40.82 79.7302 40.9815 79.5761 41.0972 79.3894L47.5485 69.0674C47.6749 68.8618 47.741 68.6249 47.7395 68.3836V65.7772C48.8616 64.9352 49.8398 63.9169 50.6361 62.7619C52.4038 64.3127 54.5805 65.3219 56.9063 65.669C59.232 66.0161 61.6085 65.6864 63.752 64.7194C65.8955 63.7523 67.7153 62.1888 68.9942 60.2154C70.2731 58.242 70.9569 55.9423 70.9641 53.5908C73.8231 52.6968 76.2816 50.8353 77.9175 48.3259C79.5533 45.8166 80.2644 42.8159 79.9286 39.8393C79.5928 36.8627 78.231 34.0958 76.0771 32.014C73.9233 29.9322 71.1118 28.6652 68.1255 28.4308C67.6384 25.9743 66.44 23.7152 64.6792 21.9343C67.0456 19.7925 69.3573 17.5991 71.6144 15.354L75.0193 14.5089ZM69.0403 3.74948C69.4105 3.37702 69.8511 3.08186 70.3364 2.88118C70.8217 2.6805 71.3421 2.5783 71.8672 2.58051H77.4153V8.13506C77.4159 9.02495 77.1187 9.88943 76.5711 10.5909C76.0235 11.2923 75.257 11.7904 74.3936 12.0058L71.3602 12.7645L67.2313 8.63568L67.9965 5.60229C68.1695 4.90128 68.5304 4.26071 69.0403 3.74948ZM53.8669 27.7663L50.0374 30.8371C49.9434 30.9013 49.8342 30.9395 49.7207 30.9478C49.6072 30.9562 49.4935 30.9343 49.3912 30.8846C49.2889 30.8348 49.2015 30.7588 49.138 30.6644C49.0746 30.5699 49.0372 30.4604 49.0297 30.3468C49.0281 30.207 49.0735 30.0706 49.1587 29.9597L52.2295 26.1277C55.3339 22.2492 58.6124 18.4623 62.0187 14.8134L65.1824 17.9771C61.5323 21.3834 57.7467 24.6632 53.8669 27.7663ZM39.9979 2.58051C41.3667 2.58051 42.6794 3.12426 43.6473 4.09214C44.6152 5.06002 45.1589 6.37275 45.1589 7.74153H34.8369C34.8369 6.37275 35.3807 5.06002 36.3485 4.09214C37.3164 3.12426 38.6291 2.58051 39.9979 2.58051ZM34.8369 10.322H45.1589V12.6819C43.5298 11.9764 41.7733 11.6123 39.9979 11.6123C38.2226 11.6123 36.466 11.9764 34.8369 12.6819V10.322ZM14.8134 17.9771L17.9771 14.8134C21.3834 18.4623 24.6619 22.2492 27.7663 26.1277L30.8371 29.9584C30.9246 30.0685 30.9724 30.2049 30.9726 30.3455C30.9641 30.4585 30.9259 30.5673 30.862 30.6609C30.7981 30.7544 30.7107 30.8295 30.6085 30.8786C30.5064 30.9276 30.3931 30.9489 30.2801 30.9403C30.1671 30.9316 30.0584 30.8934 29.9649 30.8294L26.129 27.7663C22.2492 24.6632 18.4636 21.3834 14.8134 17.9771ZM3.74819 10.9569C3.37664 10.5871 3.08212 10.1473 2.88168 9.66293C2.68125 9.17856 2.57888 8.65925 2.58051 8.13506V2.58051H8.13506C9.02466 2.58109 9.88859 2.87869 10.5898 3.42611C11.291 3.97353 11.7894 4.73942 12.0058 5.60229L12.7645 8.63568L8.63568 12.7645L5.60229 12.0058C4.9008 11.8302 4.26004 11.4677 3.74819 10.9569ZM14.1928 10.8601C14.8689 11.5452 15.5308 12.2484 16.1979 12.9464L12.949 16.1953C12.2523 15.5282 11.5478 14.8663 10.8627 14.1902L14.1928 10.8601ZM45.1589 65.9734L43.2945 64.7295C43.0463 64.564 42.7484 64.4897 42.4515 64.5191C42.1547 64.5485 41.8771 64.6798 41.6662 64.8908L41.2882 65.2689V46.4492H45.1589V65.9734ZM35.3053 68.7629L37.2536 67.4636L39.0857 69.2958C39.3277 69.5376 39.6558 69.6735 39.9979 69.6735C40.3401 69.6735 40.6682 69.5376 40.9101 69.2958L42.7423 67.4636L44.6906 68.7629L43.3152 70.9641H36.6807L35.3053 68.7629ZM38.7077 65.2689L38.3296 64.8908C38.1187 64.6798 37.8412 64.5485 37.5443 64.5191C37.2474 64.4897 36.9495 64.564 36.7013 64.7295L34.8369 65.9734V46.4492H38.7077V65.2689ZM39.9979 76.2709L38.2935 73.5446H41.7024L39.9979 76.2709ZM65.7347 29.8217C65.787 30.1433 65.9529 30.4355 66.2021 30.6455C66.4513 30.8554 66.7675 30.9691 67.0933 30.9661C69.6276 30.9761 72.0696 31.918 73.9542 33.6124C75.8387 35.3069 77.0341 37.6354 77.3124 40.1543C77.5908 42.6733 76.9327 45.2066 75.4636 47.2717C73.9945 49.3367 71.817 50.7891 69.3461 51.3522C69.1788 51.3915 69.0212 51.4644 68.8829 51.5664C66.2927 51.3658 63.8733 50.1965 62.1068 48.2916C60.3404 46.3867 59.3567 43.8861 59.3518 41.2882H56.7712C56.7751 44.4806 57.9607 47.5585 60.0995 49.9286C62.2382 52.2987 65.1786 53.7931 68.3539 54.1236C68.2425 56.0497 67.5571 57.8983 66.3859 59.4313C65.2147 60.9644 63.6113 62.1117 61.7823 62.7254C59.9533 63.3392 57.9824 63.3914 56.1235 62.8752C54.2646 62.359 52.6028 61.2981 51.3522 59.8292C51.214 59.667 51.0379 59.5416 50.8396 59.4641C50.6412 59.3866 50.4267 59.3594 50.2152 59.3849C50.0038 59.4105 49.8019 59.488 49.6277 59.6105C49.4535 59.7331 49.3123 59.8968 49.2168 60.0872C48.8209 60.8821 48.3243 61.6228 47.7395 62.291V45.1589C47.7395 44.8168 47.6035 44.4886 47.3616 44.2466C47.1196 44.0046 46.7914 43.8687 46.4492 43.8687H33.5466C33.2045 43.8687 32.8763 44.0046 32.6343 44.2466C32.3923 44.4886 32.2564 44.8168 32.2564 45.1589V62.291C31.6699 61.6238 31.1716 60.884 30.7739 60.0898C30.6784 59.8994 30.5372 59.7357 30.363 59.6131C30.1888 59.4906 29.9869 59.4131 29.7755 59.3875C29.564 59.362 29.3495 59.3892 29.1511 59.4667C28.9528 59.5442 28.7766 59.6696 28.6385 59.8317C27.3542 61.3366 25.6392 62.4113 23.725 62.9109C21.8108 63.4106 19.7893 63.3111 17.9334 62.6258C16.0775 61.9406 14.4763 60.7027 13.346 59.079C12.2157 57.4553 11.6106 55.524 11.6123 53.5456C11.6123 53.2669 11.6329 52.9934 11.6549 52.7198C11.6811 52.4089 11.5937 52.0989 11.4089 51.8475C11.2241 51.596 10.9544 51.42 10.6498 51.3522C8.18341 50.7906 6.00912 49.343 4.53967 47.2841C3.07022 45.2252 2.40792 42.6984 2.67852 40.1835C2.94912 37.6685 4.13377 35.3405 6.00756 33.6413C7.88136 31.9422 10.3138 30.9902 12.8432 30.9661C12.8638 30.9661 12.8819 30.9571 12.9026 30.9584V30.9661C15.6392 30.9692 18.2629 32.0577 20.1979 33.9928C22.133 35.9279 23.2215 38.5515 23.2246 41.2882H25.8051C25.8005 38.1462 24.6503 35.1137 22.5701 32.7589C20.4899 30.4042 17.6225 28.8887 14.5051 28.4966C14.9504 26.6583 15.8973 24.9797 17.2404 23.6478C19.6248 25.7496 22.0479 27.8063 24.5161 29.7817L28.3469 32.846C28.9622 33.3375 29.7371 33.5849 30.5234 33.5409C31.3097 33.4969 32.0521 33.1646 32.6088 32.6076C33.1655 32.0506 33.4973 31.308 33.5408 30.5217C33.5844 29.7354 33.3365 28.9607 32.8447 28.3456L29.7817 24.5149C28.8153 23.3085 27.8257 22.115 26.8283 20.9267C27.4547 21.065 28.0668 21.2615 28.6566 21.5137C28.8161 21.5836 28.9882 21.6205 29.1624 21.6222C29.3366 21.6238 29.5093 21.5902 29.6701 21.5232C29.8309 21.4563 29.9766 21.3575 30.0982 21.2328C30.2198 21.1081 30.3149 20.9601 30.3778 20.7976C31.126 18.8534 32.4457 17.1815 34.163 16.0022C35.8803 14.823 37.9147 14.1918 39.9979 14.1918C42.0812 14.1918 44.1155 14.823 45.8328 16.0022C47.5502 17.1815 48.8699 18.8534 49.6181 20.7976C49.6809 20.9601 49.7761 21.1081 49.8977 21.2328C50.0193 21.3575 50.1649 21.4563 50.3257 21.5232C50.4866 21.5902 50.6593 21.6238 50.8335 21.6222C51.0077 21.6205 51.1797 21.5836 51.3393 21.5137C51.9289 21.2614 52.5411 21.0652 53.1676 20.9279C52.1702 22.115 51.1793 23.3085 50.2142 24.5149L47.1498 28.3469C46.6593 28.9621 46.4126 29.7364 46.4567 30.5219C46.5008 31.3075 46.8327 32.0493 47.3889 32.6057C47.9452 33.1621 48.6869 33.4942 49.4724 33.5385C50.258 33.5829 51.0323 33.3363 51.6476 32.846L55.481 29.7817C57.9493 27.8063 60.3724 25.7496 62.7567 23.6478C64.4294 25.3019 65.481 27.4817 65.7347 29.8204V29.8217ZM67.0494 16.1966L63.8006 12.9477C64.4676 12.2497 65.1295 11.5465 65.8056 10.8614L69.1358 14.1928C68.4506 14.8663 67.7462 15.5282 67.0494 16.1953V16.1966Z" fill="#34A9FF"></path>
    </g>
  </g>
  <defs>
    <clipPath id="clip0_1645_1477">
      <rect width="81" height="80" fill="white"></rect>
    </clipPath>
  </defs>
</svg>
