<?xml version="1.0" encoding="UTF-8"?>
<svg xmlns="http://www.w3.org/2000/svg" width="74" height="80" viewBox="0 0 74 80" fill="none">
  <g clip-path="url(#clip0_1645_1448)">
    <mask id="mask0_1645_1448" style="mask-type:luminance" maskUnits="userSpaceOnUse" x="0" y="0" width="74" height="80">
      <path d="M74 0H0V80H74V0Z" fill="white"></path>
    </mask>
    <g mask="url(#mask0_1645_1448)">
      <path d="M72.3294 79.9998H1.53892C1.13078 79.9998 0.739345 79.8376 0.450741 79.549C0.162136 79.2604 0 78.869 0 78.4608C0 78.0527 0.162136 77.6613 0.450741 77.3727C0.739345 77.0841 1.13078 76.9219 1.53892 76.9219H72.3294C72.7376 76.9219 73.129 77.0841 73.4176 77.3727C73.7062 77.6613 73.8683 78.0527 73.8683 78.4608C73.8683 78.869 73.7062 79.2604 73.4176 79.549C73.129 79.8376 72.7376 79.9998 72.3294 79.9998Z" fill="#34A9FF"></path>
      <path d="M4.75383 79.9991C4.39479 79.9987 4.04719 79.8728 3.77112 79.6433C3.49506 79.4137 3.30787 79.0949 3.24195 78.742C3.1321 78.1413 3.07727 77.5319 3.07813 76.9213C3.07783 74.607 3.82291 72.3542 5.20301 70.4964C6.58311 68.6387 8.52484 67.2748 10.7406 66.6068C12.9564 65.9389 15.3284 66.0023 17.5053 66.7877C19.6822 67.5732 21.5483 69.0389 22.8271 70.9677C23.0531 71.3077 23.1348 71.7236 23.0542 72.1238C22.9736 72.524 22.7373 72.8758 22.3973 73.1018C22.0573 73.3278 21.6415 73.4095 21.2413 73.3289C20.8411 73.2483 20.4893 73.012 20.2632 72.672C19.164 71.0051 17.4573 69.8333 15.5067 69.4063C14.9626 69.2879 14.4074 69.2277 13.8506 69.2267C11.8106 69.2291 9.85483 70.0405 8.41232 71.483C6.96982 72.9255 6.15837 74.8813 6.15598 76.9213C6.15543 77.3429 6.19316 77.7636 6.26869 78.1784C6.30989 78.4007 6.30165 78.6293 6.24455 78.8481C6.18745 79.0668 6.08289 79.2703 5.9383 79.4441C5.79371 79.6179 5.61264 79.7577 5.40793 79.8536C5.20322 79.9495 4.9799 79.9992 4.75383 79.9991Z" fill="#34A9FF"></path>
      <path d="M15.8352 69.4442C15.592 69.4436 15.3524 69.3855 15.1359 69.2746C14.9194 69.1637 14.7323 69.0032 14.5897 68.8061C14.4471 68.6091 14.3531 68.3811 14.3154 68.1409C14.2778 67.9006 14.2975 67.6548 14.3729 67.4236C15.0792 65.2623 16.451 63.3799 18.292 62.0455C20.1329 60.711 22.3488 59.9931 24.6225 59.9942C26.5207 59.9894 28.3854 60.4938 30.0222 61.455C30.1982 61.5568 30.3523 61.6925 30.4755 61.8542C30.5988 62.0158 30.6888 62.2004 30.7403 62.397C30.7918 62.5937 30.8039 62.7986 30.7757 63C30.7476 63.2013 30.6799 63.3951 30.5764 63.5701C30.473 63.7451 30.3359 63.8979 30.1731 64.0196C30.0102 64.1414 29.8249 64.2296 29.6278 64.2793C29.4306 64.329 29.2256 64.3392 29.0245 64.3092C28.8234 64.2792 28.6303 64.2096 28.4563 64.1045C27.2957 63.419 25.9704 63.0621 24.6225 63.0721C22.9971 63.0718 21.4134 63.5856 20.0977 64.54C18.782 65.4943 17.8019 66.8403 17.2976 68.3854C17.1961 68.6932 17.0001 68.9612 16.7376 69.1513C16.4751 69.3414 16.1593 69.4439 15.8352 69.4442Z" fill="#34A9FF"></path>
      <path d="M29.2381 64.3193C29.036 64.3194 28.8359 64.2796 28.6491 64.2023C28.4624 64.125 28.2927 64.0116 28.1498 63.8687C28.0069 63.7258 27.8935 63.5561 27.8162 63.3694C27.7389 63.1827 27.6991 62.9825 27.6992 62.7804V43.9744C27.6992 43.5662 27.8613 43.1748 28.1499 42.8862C28.4385 42.5976 28.83 42.4355 29.2381 42.4355C29.6463 42.4355 30.0377 42.5976 30.3263 42.8862C30.6149 43.1748 30.777 43.5662 30.777 43.9744V62.7804C30.7771 62.9825 30.7373 63.1827 30.66 63.3694C30.5827 63.5561 30.4693 63.7258 30.3264 63.8687C30.1835 64.0116 30.0138 64.125 29.8271 64.2023C29.6404 64.2796 29.4402 64.3194 29.2381 64.3193Z" fill="#34A9FF"></path>
      <path d="M69.1163 80.0007C68.8903 80.0008 68.667 79.9511 68.4622 79.8552C68.2575 79.7592 68.0765 79.6194 67.9319 79.4456C67.7873 79.2718 67.6827 79.0684 67.6256 78.8496C67.5685 78.6309 67.5603 78.4022 67.6015 78.18C67.677 77.7652 67.7147 77.3444 67.7142 76.9228C67.7118 74.8828 66.9003 72.9271 65.4578 71.4846C64.0153 70.0421 62.0596 69.2306 60.0196 69.2282C59.4632 69.2292 58.9085 69.2894 58.3649 69.4078C56.4138 69.8344 54.7064 71.0062 53.6069 72.6736C53.3801 73.0117 53.0286 73.2463 52.6293 73.3259C52.2299 73.4055 51.8154 73.3236 51.4763 73.0982C51.1372 72.8728 50.9012 72.5222 50.82 72.1232C50.7388 71.7242 50.819 71.3093 51.043 70.9693C52.3219 69.0406 54.188 67.5751 56.3649 66.7897C58.5417 66.0043 60.9137 65.9409 63.1294 66.6089C65.3451 67.2768 67.2868 68.6406 68.6669 70.4983C70.047 72.3559 70.7922 74.6086 70.792 76.9228C70.7929 77.5335 70.7381 78.1429 70.6282 78.7435C70.5623 79.0965 70.3751 79.4153 70.0991 79.6448C69.823 79.8744 69.4754 80.0003 69.1163 80.0007Z" fill="#34A9FF"></path>
      <path d="M58.0334 69.4442C57.7093 69.4438 57.3936 69.3414 57.1311 69.1513C56.8686 68.9612 56.6726 68.6932 56.5712 68.3854C56.0668 66.8403 55.0867 65.4943 53.771 64.5399C52.4553 63.5856 50.8715 63.0718 49.2462 63.0721C47.8983 63.0621 46.573 63.419 45.4124 64.1045C45.2384 64.2096 45.0452 64.2792 44.8441 64.3092C44.6431 64.3392 44.438 64.329 44.2409 64.2793C44.0438 64.2296 43.8584 64.1414 43.6956 64.0196C43.5328 63.8979 43.3957 63.7451 43.2922 63.5701C43.1888 63.3951 43.121 63.2013 43.0929 63C43.0648 62.7986 43.0768 62.5937 43.1284 62.397C43.1799 62.2004 43.2699 62.0158 43.3931 61.8542C43.5164 61.6925 43.6704 61.5568 43.8464 61.455C45.4833 60.4938 47.348 59.9894 49.2462 59.9942C51.5199 59.9931 53.7357 60.7111 55.5767 62.0455C57.4176 63.3799 58.7894 65.2624 59.4957 67.4236C59.5711 67.6548 59.5908 67.9006 59.5531 68.1409C59.5155 68.3812 59.4215 68.6091 59.2789 68.8062C59.1363 69.0032 58.9492 69.1637 58.7327 69.2746C58.5162 69.3855 58.2766 69.4436 58.0334 69.4442Z" fill="#34A9FF"></path>
      <path d="M44.6288 64.3193C44.4267 64.3194 44.2265 64.2796 44.0398 64.2023C43.853 64.125 43.6834 64.0116 43.5405 63.8687C43.3976 63.7258 43.2842 63.5561 43.2069 63.3694C43.1296 63.1827 43.0898 62.9825 43.0898 62.7804V43.9744C43.0898 43.5662 43.252 43.1748 43.5406 42.8862C43.8292 42.5976 44.2206 42.4355 44.6288 42.4355C45.0369 42.4355 45.4283 42.5976 45.717 42.8862C46.0056 43.1748 46.1677 43.5662 46.1677 43.9744V62.7804C46.1677 62.9825 46.128 63.1827 46.0507 63.3694C45.9733 63.5561 45.86 63.7258 45.7171 63.8687C45.5742 64.0116 45.4045 64.125 45.2178 64.2023C45.031 64.2796 44.8309 64.3194 44.6288 64.3193Z" fill="#34A9FF"></path>
      <path d="M43.0893 73.845C42.8872 73.845 42.687 73.8053 42.5003 73.7279C42.3136 73.6506 42.1439 73.5373 42.001 73.3943C41.8581 73.2514 41.7447 73.0818 41.6674 72.895C41.5901 72.7083 41.5503 72.5082 41.5504 72.3061C41.5494 71.49 41.2249 70.7077 40.6479 70.1307C40.0709 69.5537 39.2885 69.2291 38.4725 69.2282C38.0644 69.2282 37.6729 69.0661 37.3843 68.7775C37.0957 68.4889 36.9336 68.0974 36.9336 67.6893C36.9336 67.2811 37.0957 66.8897 37.3843 66.6011C37.6729 66.3125 38.0644 66.1504 38.4725 66.1504C40.1046 66.1521 41.6693 66.8012 42.8233 67.9552C43.9774 69.1093 44.6265 70.674 44.6282 72.3061C44.6283 72.5082 44.5885 72.7083 44.5112 72.895C44.4339 73.0818 44.3205 73.2514 44.1776 73.3943C44.0347 73.5373 43.865 73.6506 43.6783 73.7279C43.4915 73.8053 43.2914 73.845 43.0893 73.845Z" fill="#34A9FF"></path>
      <path d="M46.8901 45.5072H26.9743C26.6577 45.5074 26.3488 45.4099 26.0898 45.2279C25.8308 45.0459 25.6342 44.7884 25.527 44.4906C20.3437 30.1323 23.5508 14.3966 34.1053 2.39792L35.7765 0.498226C35.9251 0.340881 36.1042 0.215532 36.3029 0.12986C36.5017 0.0441891 36.7158 0 36.9322 0C37.1486 0 37.3628 0.0441891 37.5615 0.12986C37.7602 0.215532 37.9394 0.340881 38.0879 0.498226L39.7591 2.39784C50.3137 14.3966 53.5208 30.1323 48.3374 44.4906C48.2302 44.7884 48.0337 45.046 47.7746 45.2279C47.5156 45.4099 47.2067 45.5074 46.8901 45.5072ZM28.0714 42.4294H45.793C50.0822 29.4192 46.9998 15.2901 37.4477 4.43121L36.9322 3.84509L36.4167 4.43121C26.8646 15.2901 23.7822 29.4192 28.0714 42.4294Z" fill="#34A9FF"></path>
      <path d="M36.9334 52.2996C36.7313 52.2996 36.5311 52.2599 36.3444 52.1825C36.1577 52.1052 35.988 51.9919 35.8451 51.849C35.7022 51.706 35.5888 51.5364 35.5115 51.3496C35.4342 51.1629 35.3944 50.9628 35.3945 50.7607V37.1756C35.3945 36.7675 35.5566 36.376 35.8452 36.0874C36.1338 35.7988 36.5252 35.6367 36.9334 35.6367C37.3415 35.6367 37.733 35.7988 38.0216 36.0874C38.3102 36.376 38.4723 36.7675 38.4723 37.1756V50.7607C38.4724 50.9628 38.4326 51.1629 38.3553 51.3496C38.278 51.5364 38.1646 51.706 38.0217 51.849C37.8788 51.9919 37.7091 52.1052 37.5224 52.1825C37.3356 52.2599 37.1355 52.2996 36.9334 52.2996Z" fill="#34A9FF"></path>
      <path d="M16.9299 47.6821C16.6575 47.6822 16.39 47.61 16.1546 47.4729C15.9193 47.3357 15.7246 47.1386 15.5904 46.9015C15.4562 46.6644 15.3873 46.396 15.3908 46.1236C15.3944 45.8513 15.4702 45.5847 15.6104 45.3512L23.3967 32.3778C23.6068 32.0278 23.9473 31.7757 24.3432 31.6767C24.7392 31.5778 25.1583 31.6402 25.5082 31.8503C25.8582 32.0604 26.1104 32.4008 26.2093 32.7968C26.3082 33.1928 26.2458 33.6119 26.0357 33.9618L20.0769 43.8889L26.6549 42.4687C26.8525 42.4261 27.0565 42.4228 27.2553 42.459C27.4542 42.4952 27.6439 42.5702 27.8137 42.6798C27.9836 42.7893 28.1302 42.9313 28.2452 43.0975C28.3601 43.2637 28.4413 43.4509 28.4839 43.6485C28.5265 43.846 28.5298 44.05 28.4936 44.2489C28.4574 44.4477 28.3824 44.6374 28.2728 44.8073C28.1633 44.9771 28.0213 45.1237 27.8551 45.2387C27.6889 45.3537 27.5017 45.4348 27.3041 45.4774L17.2546 47.6476C17.1479 47.6706 17.0391 47.6822 16.9299 47.6821Z" fill="#34A9FF"></path>
      <path d="M56.9402 47.6821C56.831 47.6821 56.7222 47.6706 56.6155 47.6476L46.566 45.4774C46.3684 45.4348 46.1812 45.3537 46.015 45.2387C45.8488 45.1237 45.7068 44.9771 45.5973 44.8073C45.4877 44.6374 45.4127 44.4477 45.3765 44.2489C45.3403 44.05 45.3436 43.846 45.3862 43.6485C45.4288 43.4509 45.51 43.2637 45.6249 43.0975C45.7399 42.9313 45.8865 42.7893 46.0564 42.6798C46.3994 42.4585 46.8162 42.3826 47.2152 42.4687L53.7932 43.8889L47.8344 33.9618C47.7303 33.7885 47.6615 33.5965 47.6317 33.3966C47.6019 33.1967 47.6118 32.9929 47.6608 32.7968C47.7098 32.6007 47.7969 32.4162 47.9172 32.2538C48.0375 32.0914 48.1886 31.9543 48.3618 31.8503C48.5351 31.7463 48.7272 31.6774 48.9271 31.6476C49.127 31.6179 49.3308 31.6278 49.5269 31.6767C49.7229 31.7257 49.9074 31.8128 50.0698 31.9331C50.2322 32.0534 50.3694 32.2045 50.4734 32.3778L58.2597 45.3512C58.3999 45.5847 58.4757 45.8513 58.4792 46.1236C58.4828 46.396 58.4139 46.6644 58.2797 46.9015C58.1455 47.1385 57.9508 47.3357 57.7155 47.4729C57.4801 47.61 57.2126 47.6822 56.9402 47.6821Z" fill="#34A9FF"></path>
      <path d="M36.9332 24.5988C36.02 24.5988 35.1274 24.328 34.3682 23.8207C33.609 23.3134 33.0172 22.5924 32.6678 21.7488C32.3184 20.9052 32.227 19.9769 32.4051 19.0813C32.5832 18.1858 33.0229 17.3631 33.6686 16.7175C34.3143 16.0718 35.1369 15.6321 36.0325 15.4539C36.928 15.2758 37.8563 15.3672 38.6999 15.7167C39.5435 16.0661 40.2646 16.6578 40.7719 17.4171C41.2792 18.1763 41.5499 19.0689 41.5499 19.982C41.5486 21.206 41.0618 22.3796 40.1962 23.2451C39.3307 24.1106 38.1572 24.5974 36.9332 24.5988ZM36.9332 18.4431C36.6288 18.4431 36.3312 18.5333 36.0782 18.7024C35.8251 18.8715 35.6279 19.1119 35.5114 19.3931C35.3949 19.6743 35.3644 19.9837 35.4238 20.2822C35.4832 20.5808 35.6297 20.855 35.845 21.0702C36.0602 21.2854 36.3344 21.432 36.6329 21.4914C36.9314 21.5507 37.2409 21.5203 37.5221 21.4038C37.8033 21.2873 38.0436 21.0901 38.2127 20.837C38.3818 20.5839 38.4721 20.2864 38.4721 19.982C38.4717 19.574 38.3094 19.1828 38.0209 18.8943C37.7324 18.6058 37.3412 18.4435 36.9332 18.4431Z" fill="#34A9FF"></path>
    </g>
  </g>
  <defs>
    <clipPath id="clip0_1645_1448">
      <rect width="74" height="80" fill="white"></rect>
    </clipPath>
  </defs>
</svg>
