<svg xmlns="http://www.w3.org/2000/svg" width="89" height="88" viewBox="0 0 89 88" fill="none"><path d="M0.66836 85.946C0.80636 86.767 1.65136 87.28 2.45136 87.113C3.27336 86.943 3.74536 86.161 3.60836 85.348C3.46336 84.537 2.68736 84.009 1.87436 84.171C1.06236 84.332 0.522361 85.126 0.66836 85.946Z" fill="#34A9FF"></path><path d="M0.65681 64.8529C0.76181 65.6789 1.51081 66.2489 2.33081 66.1259C3.14981 66.0039 3.72981 65.2409 3.62581 64.4229C3.52181 63.6049 2.77281 63.0359 1.95281 63.1499C1.13181 63.2649 0.55181 64.0269 0.65681 64.8529Z" fill="#34A9FF"></path><path d="M3.63404 43.5024C3.69604 44.3244 3.07804 45.0524 2.25304 45.1284C1.42904 45.2044 0.709044 44.5934 0.645044 43.7634C0.582044 42.9334 1.20004 42.2054 2.02604 42.1374C2.85204 42.0684 3.57204 42.6804 3.63404 43.5024Z" fill="#34A9FF"></path><path d="M3.63404 22.5004C3.69604 23.3224 3.07804 24.0504 2.25304 24.1264C1.42904 24.2024 0.709044 23.5914 0.645044 22.7614C0.582044 21.9314 1.20004 21.2034 2.02604 21.1354C2.85204 21.0664 3.57204 21.6784 3.63404 22.5004Z" fill="#34A9FF"></path><path d="M3.63404 1.49652C3.69604 2.31852 3.07804 3.04652 2.25304 3.12252C1.42904 3.19852 0.709044 2.58751 0.645044 1.75751C0.582044 0.927514 1.20004 0.199514 2.02604 0.131514C2.85204 0.0625141 3.57204 0.67452 3.63404 1.49652Z" fill="#34A9FF"></path><path d="M2.19849 0.0296886C1.37749 0.167689 0.864486 1.01269 1.03149 1.81269C1.20149 2.63469 1.98349 3.10669 2.79649 2.96969C3.60749 2.82469 4.13549 2.04869 3.97349 1.23569C3.81249 0.423688 3.01849 -0.116311 2.19849 0.0296886Z" fill="#34A9FF"></path><path d="M23.2936 0.014232C22.4676 0.119232 21.8976 0.868232 22.0206 1.68823C22.1426 2.50723 22.9056 3.08723 23.7236 2.98323C24.5416 2.87923 25.1106 2.13023 24.9966 1.31023C24.8816 0.489232 24.1196 -0.090768 23.2936 0.014232Z" fill="#34A9FF"></path><path d="M44.6441 2.99342C43.8221 3.05542 43.0941 2.43742 43.0181 1.61242C42.9421 0.788419 43.5531 0.0684191 44.3831 0.00441912C45.2131 -0.0585809 45.9411 0.559419 46.0091 1.38542C46.0781 2.21142 45.4661 2.93142 44.6441 2.99342Z" fill="#34A9FF"></path><path d="M65.6441 2.99342C64.8221 3.05542 64.0941 2.43742 64.0181 1.61242C63.9421 0.788419 64.5531 0.0684191 65.3831 0.00441912C66.2131 -0.0585809 66.9411 0.559419 67.0091 1.38542C67.0781 2.21142 66.4661 2.93142 65.6441 2.99342Z" fill="#34A9FF"></path><path d="M86.648 2.99342C85.826 3.05542 85.098 2.43742 85.022 1.61242C84.946 0.788419 85.557 0.0684191 86.387 0.00441912C87.217 -0.0585809 87.945 0.559419 88.013 1.38542C88.082 2.21142 87.47 2.93142 86.648 2.99342Z" fill="#34A9FF"></path></svg>