<?xml version="1.0" encoding="UTF-8"?>
<svg xmlns="http://www.w3.org/2000/svg" width="88" height="88" viewBox="0 0 88 88" fill="none">
  <path d="M1.19849 0.0296886C0.377486 0.167689 -0.135514 1.01269 0.0314859 1.81269C0.201486 2.63469 0.983485 3.10669 1.79649 2.96969C2.60749 2.82469 3.13549 2.04869 2.97349 1.23569C2.81249 0.423688 2.01849 -0.116311 1.19849 0.0296886Z" fill="#34A9FF"></path>
  <path d="M22.2936 0.014232C21.4676 0.119232 20.8976 0.868232 21.0206 1.68823C21.1426 2.50723 21.9056 3.08723 22.7236 2.98323C23.5416 2.87923 24.1106 2.13023 23.9966 1.31023C23.8816 0.489232 23.1196 -0.090768 22.2936 0.014232Z" fill="#34A9FF"></path>
  <path d="M43.6441 2.99342C42.8221 3.05542 42.0941 2.43742 42.0181 1.61242C41.9421 0.788419 42.5531 0.0684191 43.3831 0.00441912C44.2131 -0.0585809 44.9411 0.559419 45.0091 1.38542C45.0781 2.21142 44.4661 2.93142 43.6441 2.99342Z" fill="#34A9FF"></path>
  <path d="M64.6441 2.99342C63.8221 3.05542 63.0941 2.43742 63.0181 1.61242C62.9421 0.788419 63.5531 0.0684191 64.3831 0.00441912C65.2131 -0.0585809 65.9411 0.559419 66.0091 1.38542C66.0781 2.21142 65.4661 2.93142 64.6441 2.99342Z" fill="#34A9FF"></path>
  <path d="M85.648 2.99342C84.826 3.05542 84.098 2.43742 84.022 1.61242C83.946 0.788419 84.557 0.0684191 85.387 0.00441912C86.217 -0.0585809 86.945 0.559419 87.013 1.38542C87.082 2.21142 86.47 2.93142 85.648 2.99342Z" fill="#34A9FF"></path>
  <path d="M83.6645 85.946C83.8025 86.767 84.6475 87.28 85.4475 87.113C86.2695 86.943 86.7415 86.161 86.6045 85.348C86.4595 84.537 85.6835 84.009 84.8705 84.171C84.0585 84.332 83.5185 85.126 83.6645 85.946Z" fill="#34A9FF"></path>
  <path d="M83.6529 64.8529C83.7579 65.6789 84.5069 66.2489 85.3269 66.1259C86.1459 66.0039 86.7259 65.2409 86.6219 64.4229C86.5179 63.6049 85.7689 63.0359 84.9489 63.1499C84.1279 63.2649 83.5479 64.0269 83.6529 64.8529Z" fill="#34A9FF"></path>
  <path d="M86.6301 43.5024C86.6921 44.3244 86.0741 45.0524 85.2491 45.1284C84.4251 45.2044 83.7051 44.5934 83.6411 43.7634C83.5781 42.9334 84.1961 42.2054 85.0221 42.1374C85.8481 42.0684 86.5681 42.6804 86.6301 43.5024Z" fill="#34A9FF"></path>
  <path d="M86.6301 22.5004C86.6921 23.3224 86.0741 24.0504 85.2491 24.1264C84.4251 24.2024 83.7051 23.5914 83.6411 22.7614C83.5781 21.9314 84.1961 21.2034 85.0221 21.1354C85.8481 21.0664 86.5681 21.6784 86.6301 22.5004Z" fill="#34A9FF"></path>
  <path d="M86.6301 1.49652C86.6921 2.31852 86.0741 3.04652 85.2491 3.12252C84.4251 3.19852 83.7051 2.58751 83.6411 1.75751C83.5781 0.927514 84.1961 0.199514 85.0221 0.131514C85.8481 0.0625141 86.5681 0.67452 86.6301 1.49652Z" fill="#34A9FF"></path>
</svg>
