<?xml version="1.0" encoding="UTF-8"?>
<svg xmlns="http://www.w3.org/2000/svg" width="83" height="80" viewBox="0 0 83 80" fill="none">
  <g clip-path="url(#clip0_1561_1464)">
    <path d="M15.6436 49.9805C21.2824 49.9805 25.8536 45.4093 25.8536 39.7705C25.8536 34.1317 21.2824 29.5605 15.6436 29.5605C10.0048 29.5605 5.43359 34.1317 5.43359 39.7705C5.43359 45.4093 10.0048 49.9805 15.6436 49.9805Z" fill="#34A9FF"></path>
    <path d="M19.4843 52.6855H11.8923C6.39461 52.6855 1.76958 56.7869 1.15872 62.2846L0.0242796 71.0983C-0.15025 72.2328 0.635133 73.2799 1.76958 73.5417C6.13282 74.5017 10.8451 74.938 15.6447 74.938C17.6518 74.938 19.5716 74.8508 21.4042 74.6763L22.3641 66.8224C22.8877 62.7209 24.8947 59.2303 27.8617 56.7869C25.9419 54.2562 22.8004 52.6855 19.4843 52.6855Z" fill="#34A9FF"></path>
    <path d="M67.3036 49.9805C72.9425 49.9805 77.5137 45.4093 77.5137 39.7705C77.5137 34.1317 72.9425 29.5605 67.3036 29.5605C61.6648 29.5605 57.0938 34.1317 57.0938 39.7705C57.0938 45.4093 61.6648 49.9805 67.3036 49.9805Z" fill="#34A9FF"></path>
    <path d="M81.8801 62.2846C81.2692 56.7869 76.5569 52.6855 71.1465 52.6855H63.5545C60.1511 52.6855 57.0969 54.2562 55.0898 56.7869C58.0568 59.2303 60.1511 62.7209 60.5875 66.8224L61.5474 74.6763C63.3799 74.8508 65.387 74.938 67.3068 74.938C72.1937 74.938 76.8187 74.4144 81.182 73.5417C82.3164 73.2799 83.0145 72.2328 82.9272 71.0983L81.8801 62.2846Z" fill="#34A9FF"></path>
    <path d="M45.229 57.834H37.637C32.1393 57.834 27.5143 61.9355 26.9034 67.3459L25.8563 76.1596C25.6817 77.2941 26.4671 78.4285 27.6016 78.603C31.9648 79.5629 36.6771 79.9993 41.4767 79.9993C46.3635 79.9993 50.9885 79.4757 55.3518 78.603C56.4862 78.3412 57.1843 77.2941 57.0971 76.1596L56.0499 67.3459C55.3518 61.9355 50.7267 57.834 45.229 57.834Z" fill="#34A9FF"></path>
    <path d="M41.4756 55.129C47.1144 55.129 51.6855 50.5578 51.6855 44.919C51.6855 39.2802 47.1144 34.709 41.4756 34.709C35.8367 34.709 31.2656 39.2802 31.2656 44.919C31.2656 50.5578 35.8367 55.129 41.4756 55.129Z" fill="#34A9FF"></path>
    <path d="M31.962 18.1293C32.5729 18.6528 32.8347 19.5255 32.6601 20.3109L31.0021 27.1175C30.5658 29.0374 32.6601 30.5209 34.3182 29.4737L40.3394 25.8086C41.0375 25.3722 41.9102 25.3722 42.6083 25.8086L48.6296 29.4737C50.2876 30.5209 52.382 28.9501 51.9456 27.1175L50.2876 20.3109C50.1131 19.5255 50.3749 18.6528 50.9857 18.1293L56.3089 13.5915C57.7924 12.2825 57.007 9.83911 55.0872 9.75184L48.106 9.14099C47.3206 9.05372 46.5352 8.53013 46.2734 7.83202L43.5682 1.37442C42.7828 -0.45814 40.2522 -0.45814 39.4668 1.37442L36.7616 7.74475C36.4125 8.53013 35.7144 9.05372 34.929 9.05372L27.9478 9.66458C26.028 9.83911 25.2426 12.2825 26.7261 13.5042L31.962 18.1293Z" fill="#34A9FF"></path>
  </g>
  <defs>
    <clipPath id="clip0_1561_1464">
      <rect width="83" height="80" fill="white"></rect>
    </clipPath>
  </defs>
</svg>
