<svg width="20" height="21" viewBox="0 0 20 21" fill="none" xmlns="http://www.w3.org/2000/svg">
<path d="M8.81438 0.302995C3.73124 0.951906 0 5.13739 0 10.1881C0 14.698 2.73624 18.4509 7.00825 19.8028C7.50575 19.9542 8.02488 20.084 8.17629 20.084H8.43585L8.41422 16.6556L8.38178 13.2163L7.1164 13.1839L5.84021 13.1514V11.7022V10.253L7.1164 10.2205L8.38178 10.1881L8.43585 8.40357C8.48993 6.61907 8.48993 6.61907 8.85765 5.93771C9.25781 5.20228 9.75531 4.74804 10.5664 4.36951C11.0207 4.16402 11.2694 4.13157 12.4916 4.13157C13.2702 4.13157 14.0273 4.17483 14.2004 4.21809L14.4924 4.2938V5.52673V6.74885L13.5406 6.80293C11.8643 6.90026 11.6263 7.17064 11.6263 8.9876V10.1881L13.0107 10.2205C14.0057 10.2422 14.3842 10.2854 14.3842 10.3828C14.3842 10.4585 14.2869 11.0749 14.1679 11.7563C14.0489 12.4376 13.9516 13.0325 13.9516 13.0757C13.9516 13.1298 13.4217 13.1623 12.7619 13.1623H11.5723V16.6231V20.084H11.8318C12.2644 20.084 14.0489 19.4459 14.8168 19.0241C17.4233 17.5965 19.1862 15.1847 19.781 12.2213C20.073 10.837 20.073 9.64732 19.781 8.26298C18.905 3.91527 15.5198 0.843754 11.0315 0.29218C10.0149 0.173212 9.88509 0.173212 8.81438 0.302995Z" fill="white"/>
</svg>
