<?xml version="1.0" encoding="UTF-8"?>
<svg xmlns="http://www.w3.org/2000/svg" width="84" height="80" viewBox="0 0 84 80" fill="none">
  <g clip-path="url(#clip0_1561_1479)">
    <path d="M80.5845 63.9211C80.2682 63.7871 79.9282 63.7183 79.5847 63.7188C79.2412 63.7194 78.9014 63.7893 78.5856 63.9243L65.2111 69.6039C64.1153 70.0699 62.9444 70.3341 61.7547 70.3838C61.6447 70.3902 61.5347 70.3944 61.4225 70.3944V70.392C61.3895 70.392 61.3569 70.3944 61.3239 70.3944H42.2238V67.1947H61.3239C61.3887 67.1947 61.4529 67.1917 61.5175 67.1899C62.1428 67.162 62.7324 66.8909 63.1605 66.4344C63.5886 65.9778 63.8213 65.372 63.8089 64.7463C63.7965 64.1205 63.54 63.5244 63.0941 63.0852C62.6483 62.646 62.0484 62.3984 61.4225 62.3954H49.0122C47.2603 62.3933 45.5327 61.9855 43.9649 61.2038C39.217 58.837 33.9854 57.602 28.6803 57.5957H24.625V72.7205L37.7861 78.1861C43.5448 80.5348 49.9814 80.6044 55.7895 78.3807L80.5045 68.9567C80.8331 68.8311 81.1333 68.641 81.3875 68.3977C81.6416 68.1544 81.8446 67.8627 81.9844 67.5398C82.133 67.2059 82.2134 66.8456 82.2209 66.4801C82.2284 66.1146 82.1628 65.7513 82.028 65.4116C81.9001 65.0787 81.7063 64.7752 81.4583 64.519C81.2102 64.2629 80.913 64.0595 80.5845 63.9211Z" fill="#34A9FF"></path>
    <path d="M0.628906 75.1949H21.4275V55.9961H0.628906V75.1949ZM15.028 68.7953H18.2278V71.9951H15.028V68.7953Z" fill="#34A9FF"></path>
    <path d="M80.6245 25.5977H77.4247C75.438 25.5975 73.4786 25.1345 71.702 24.2453C69.9253 23.3562 68.3802 22.0654 67.1892 20.4752C66.9119 20.6852 66.5734 20.7986 66.2255 20.798H59.8259C57.8951 20.789 55.9988 20.2856 54.3177 19.336C52.6366 18.3863 51.2267 17.022 50.2223 15.373C49.2251 17.0265 47.8179 18.3947 46.1369 19.3451C44.456 20.2955 42.5582 20.7959 40.6272 20.798H39.0273V35.197C39.0321 39.4387 40.7193 43.5053 43.7186 46.5047C46.7179 49.504 50.7845 51.1912 55.0262 51.196H61.4258C65.6675 51.1912 69.7341 49.504 72.7334 46.5047C75.7328 43.5053 77.4199 39.4387 77.4247 35.197V33.5971C77.4247 33.1728 77.5933 32.7659 77.8933 32.4659C78.1934 32.1658 78.6003 31.9973 79.0246 31.9973H80.6245C81.4732 31.9973 82.287 31.6601 82.8871 31.0601C83.4872 30.46 83.8243 29.6461 83.8243 28.7975C83.8243 27.9488 83.4872 27.1349 82.8871 26.5349C82.287 25.9348 81.4732 25.5977 80.6245 25.5977ZM45.4269 31.9973C45.1104 31.9973 44.8011 31.9034 44.538 31.7276C44.2749 31.5518 44.0699 31.302 43.9488 31.0096C43.8277 30.7173 43.796 30.3956 43.8577 30.0852C43.9194 29.7749 44.0718 29.4898 44.2956 29.2661C44.5193 29.0423 44.8044 28.8899 45.1147 28.8282C45.4251 28.7665 45.7468 28.7982 46.0391 28.9193C46.3315 29.0403 46.5813 29.2454 46.7571 29.5085C46.9329 29.7716 47.0268 30.0809 47.0268 30.3974C47.0255 30.8213 46.8565 31.2275 46.5568 31.5273C46.257 31.827 45.8508 31.996 45.4269 31.9973ZM50.2265 33.5971V27.1976H42.2271C41.8028 27.1976 41.3958 27.029 41.0958 26.729C40.7957 26.4289 40.6272 26.022 40.6272 25.5977C40.6272 25.1734 40.7957 24.7664 41.0958 24.4664C41.3958 24.1663 41.8028 23.9978 42.2271 23.9978H50.2265C51.0748 23.9989 51.8881 24.3364 52.4879 24.9362C53.0877 25.536 53.4252 26.3493 53.4263 27.1976V33.5971H55.0262C55.4505 33.5971 55.8575 33.7657 56.1575 34.0657C56.4576 34.3658 56.6261 34.7727 56.6261 35.197C56.6261 35.6214 56.4576 36.0283 56.1575 36.3283C55.8575 36.6284 55.4505 36.7969 55.0262 36.7969H53.4263C52.578 36.7958 51.7648 36.4583 51.165 35.8585C50.5651 35.2587 50.2277 34.4454 50.2265 33.5971ZM58.226 47.9962H55.0262C54.6019 47.9962 54.195 47.8276 53.8949 47.5276C53.5949 47.2276 53.4263 46.8206 53.4263 46.3963C53.4263 45.972 53.5949 45.565 53.8949 45.265C54.195 44.965 54.6019 44.7964 55.0262 44.7964H58.226C58.6503 44.7964 59.0573 44.965 59.3573 45.265C59.6573 45.565 59.8259 45.972 59.8259 46.3963C59.8259 46.8206 59.6573 47.2276 59.3573 47.5276C59.0573 47.8276 58.6503 47.9962 58.226 47.9962ZM61.4258 31.9973C61.1094 31.9973 60.8001 31.9034 60.5369 31.7276C60.2738 31.5518 60.0688 31.302 59.9477 31.0096C59.8266 30.7173 59.7949 30.3956 59.8566 30.0852C59.9184 29.7749 60.0708 29.4898 60.2945 29.2661C60.5183 29.0423 60.8033 28.8899 61.1137 28.8282C61.424 28.7665 61.7457 28.7982 62.0381 28.9193C62.3304 29.0403 62.5803 29.2454 62.7561 29.5085C62.9319 29.7716 63.0257 30.0809 63.0257 30.3974C63.0244 30.8213 62.8555 31.2275 62.5557 31.5273C62.2559 31.827 61.8497 31.996 61.4258 31.9973ZM64.6256 27.1976H58.226C57.8017 27.1976 57.3948 27.029 57.0947 26.729C56.7947 26.4289 56.6261 26.022 56.6261 25.5977C56.6261 25.1734 56.7947 24.7664 57.0947 24.4664C57.3948 24.1663 57.8017 23.9978 58.226 23.9978H64.6256C65.0499 23.9978 65.4568 24.1663 65.7569 24.4664C66.0569 24.7664 66.2255 25.1734 66.2255 25.5977C66.2255 26.022 66.0569 26.4289 65.7569 26.729C65.4568 27.029 65.0499 27.1976 64.6256 27.1976Z" fill="#34A9FF"></path>
    <path d="M46.5868 14.9324C47.9013 13.4672 48.6278 11.5678 48.6267 9.59936C48.6267 9.17504 48.7952 8.7681 49.0952 8.46807C49.3953 8.16803 49.8022 7.99947 50.2265 7.99947C50.6509 7.99947 51.0578 8.16803 51.3578 8.46807C51.6579 8.7681 51.8264 9.17504 51.8264 9.59936C51.8303 11.7198 52.6743 13.7522 54.1737 15.2516C55.673 16.7509 57.7055 17.595 59.8259 17.5988H64.6256V12.7991C64.6256 12.3748 64.7941 11.9679 65.0942 11.6679C65.3942 11.3678 65.8012 11.1993 66.2255 11.1993C66.6498 11.1993 67.0567 11.3678 67.3568 11.6679C67.6568 11.9679 67.8254 12.3748 67.8254 12.7991C67.8283 15.3442 68.8406 17.7841 70.6402 19.5837C72.4398 21.3833 74.8797 22.3956 77.4247 22.3985V11.3752C77.4213 8.3594 76.2217 5.46806 74.0892 3.33553C71.9567 1.203 69.0653 0.00344048 66.0495 0H50.4025C47.3867 0.00344048 44.4953 1.203 42.3628 3.33553C40.2303 5.46806 39.0307 8.3594 39.0273 11.3752V17.5988H40.6272C41.7532 17.6048 42.8675 17.37 43.8954 16.9101C44.9232 16.4502 45.8409 15.7759 46.5868 14.9324Z" fill="#34A9FF"></path>
    <path d="M8.62557 38.4042H18.225C18.5409 38.4042 18.8497 38.4977 19.1125 38.6729L26.2245 43.4142V40.0041C26.2245 39.5797 26.393 39.1727 26.693 38.8727C26.9931 38.5726 27.4 38.4042 27.8243 38.4042H36.0928C35.9139 37.345 35.8238 36.2727 35.8237 35.1986C34.1264 35.1986 32.4988 34.5243 31.2986 33.3242C30.0985 32.124 29.4242 30.4963 29.4242 28.799C29.4242 27.1017 30.0985 25.474 31.2986 24.2738C32.4988 23.0737 34.1264 22.3994 35.8237 22.3994V11.3762C35.8224 9.68118 36.118 7.99913 36.6973 6.40625H8.62557C7.77724 6.40725 6.96395 6.74469 6.36409 7.34455C5.76423 7.94441 5.42679 8.75771 5.42578 9.60603V35.2043C5.42679 36.0526 5.76423 36.866 6.36409 37.4659C6.96395 38.0657 7.77724 38.4032 8.62557 38.4042ZM19.8249 11.206H32.624V14.4057H19.8249V11.206ZM13.4253 11.206H16.6251V14.4057H13.4253V11.206ZM10.2255 17.6056H32.624V20.8053H10.2255V17.6056ZM10.2255 24.0051H26.2245V27.2049H10.2255V24.0051ZM10.2255 30.4046H26.2245V33.6045H10.2255V30.4046Z" fill="#34A9FF"></path>
    <path d="M35.8286 31.9973V25.5977C34.98 25.5977 34.1661 25.9348 33.566 26.5349C32.966 27.135 32.6289 27.9489 32.6289 28.7975C32.6289 29.6462 32.966 30.46 33.566 31.0601C34.1661 31.6602 34.98 31.9973 35.8286 31.9973Z" fill="#34A9FF"></path>
  </g>
  <defs>
    <clipPath id="clip0_1561_1479">
      <rect width="84" height="80" fill="white"></rect>
    </clipPath>
  </defs>
</svg>
