<?xml version="1.0" encoding="UTF-8"?>
<svg xmlns="http://www.w3.org/2000/svg" width="88" height="4" viewBox="0 0 88 4" fill="none">
  <path d="M1.82349 0.166407C1.00249 0.304407 0.489486 1.14941 0.656486 1.94941C0.826486 2.77141 1.60849 3.24341 2.42149 3.10641C3.23249 2.96141 3.76049 2.18541 3.59849 1.37241C3.43749 0.560407 2.64349 0.0204074 1.82349 0.166407Z" fill="#34A9FF"></path>
  <path d="M22.9186 0.150951C22.0926 0.255951 21.5226 1.00495 21.6456 1.82495C21.7676 2.64395 22.5306 3.22395 23.3486 3.11995C24.1666 3.01595 24.7356 2.26695 24.6216 1.44695C24.5066 0.625951 23.7446 0.0459508 22.9186 0.150951Z" fill="#34A9FF"></path>
  <path d="M44.2691 3.13014C43.4471 3.19214 42.7191 2.57414 42.6431 1.74914C42.5671 0.925138 43.1781 0.205138 44.0081 0.141138C44.8381 0.0781379 45.5661 0.696138 45.6341 1.52214C45.7031 2.34814 45.0911 3.06814 44.2691 3.13014Z" fill="#34A9FF"></path>
  <path d="M65.2691 3.13014C64.4471 3.19214 63.7191 2.57414 63.6431 1.74914C63.5671 0.925138 64.1781 0.205138 65.0081 0.141138C65.8381 0.0781379 66.5661 0.696138 66.6341 1.52214C66.7031 2.34814 66.0911 3.06814 65.2691 3.13014Z" fill="#34A9FF"></path>
  <path d="M86.273 3.13014C85.451 3.19214 84.723 2.57414 84.647 1.74914C84.571 0.925138 85.182 0.205138 86.012 0.141138C86.842 0.0781379 87.57 0.696138 87.638 1.52214C87.707 2.34814 87.095 3.06814 86.273 3.13014Z" fill="#34A9FF"></path>
</svg>
