<?xml version="1.0" encoding="UTF-8"?>
<svg xmlns="http://www.w3.org/2000/svg" width="76" height="81" viewBox="0 0 76 81" fill="none">
  <g clip-path="url(#clip0_1561_1486)">
    <path d="M12.4923 48.4824L8.36164 66.5224C8.27734 66.7753 8.27734 67.1125 8.27734 67.3654H16.37L20.1635 50.927L12.7452 48.5667C12.6609 48.5667 12.5766 48.5667 12.4923 48.4824Z" fill="#34A9FF"></path>
    <path d="M42.1656 29.6836C41.7442 27.9133 39.8896 26.8174 38.1193 27.2389L32.6398 28.672L28.4249 23.2768C28.2563 23.1082 28.172 22.9396 28.0034 22.771C26.9075 21.7594 25.5587 21.0851 24.0413 20.8322L17.8032 19.4834C15.9486 19.0619 14.0097 19.3148 12.2394 20.1578L4.82109 23.6983C3.9781 24.1198 3.30371 24.8785 3.05081 25.8058L0.774733 33.6456C0.268937 35.4159 1.28052 37.2705 3.05081 37.7763C3.38801 37.8606 3.6409 37.9449 3.9781 37.9449C5.41119 37.9449 6.75998 37.0176 7.18147 35.5002L9.03606 29.0935L12.5766 27.4075L11.2278 40.221C11.0592 42.0756 12.1551 43.8459 14.0097 44.4359L25.0529 47.9765L25.2215 59.4412C25.2215 59.6098 25.2215 59.8627 25.3058 60.0313H33.2299C33.2299 59.7784 33.3142 59.5255 33.3142 59.3569L33.0613 45.026C33.0613 43.3401 31.8811 41.8227 30.2794 41.2326L23.2826 39.0408L25.3058 30.1894L28.6778 34.5729C29.5208 35.6688 30.8695 36.0903 32.134 35.7531L39.721 33.8142C41.5755 33.2241 42.5871 31.4539 42.1656 29.6836Z" fill="#34A9FF"></path>
    <path d="M17.0475 70.7363H7.52167C6.93157 70.7363 6.42578 71.2421 6.42578 71.8322V79.5035C6.42578 80.0936 6.93157 80.5993 7.52167 80.5993H17.1318C17.7219 80.5993 18.2277 80.0936 18.2277 79.5035V71.8322C18.1434 71.2421 17.6376 70.7363 17.0475 70.7363Z" fill="#34A9FF"></path>
    <path d="M34.0749 63.3184H24.549C23.9589 63.3184 23.4531 63.8242 23.4531 64.4143V79.5039C23.4531 80.094 23.9589 80.5998 24.549 80.5998H34.1592C34.7493 80.5998 35.255 80.094 35.255 79.5039V64.4143C35.1707 63.8242 34.6649 63.3184 34.0749 63.3184Z" fill="#34A9FF"></path>
    <path d="M51.1023 55.9004H41.5764C40.9863 55.9004 40.4805 56.4062 40.4805 56.9963V79.5042C40.4805 80.0943 40.9863 80.6001 41.5764 80.6001H51.1865C51.7766 80.6001 52.2824 80.0943 52.2824 79.5042V56.9963C52.1981 56.4062 51.6923 55.9004 51.1023 55.9004Z" fill="#34A9FF"></path>
    <path d="M75.0427 44.351L64.7582 30.9474C64.0838 30.0201 62.6507 30.0201 61.9763 30.9474L51.6918 44.351C50.8488 45.5312 51.6075 47.1328 53.0406 47.1328H57.4241V79.5038C57.4241 80.0939 57.9299 80.5997 58.52 80.5997H68.1301C68.7202 80.5997 69.226 80.0939 69.226 79.5038V47.2171H73.6096C75.127 47.2171 75.8857 45.5312 75.0427 44.351Z" fill="#34A9FF"></path>
    <path d="M23.6219 18.3023C27.4861 18.3023 30.6187 15.1697 30.6187 11.3054C30.6187 7.44119 27.4861 4.30859 23.6219 4.30859C19.7576 4.30859 16.625 7.44119 16.625 11.3054C16.625 15.1697 19.7576 18.3023 23.6219 18.3023Z" fill="#34A9FF"></path>
    <path d="M54.2216 27.2381C61.5557 27.2381 67.5409 21.2529 67.5409 13.9189C67.5409 6.58485 61.5557 0.599609 54.2216 0.599609C46.8876 0.599609 40.9023 6.50055 40.9023 13.8346C40.9023 21.2529 46.8876 27.2381 54.2216 27.2381ZM47.8149 12.3172C48.5736 11.5585 49.8381 11.5585 50.5968 12.3172L52.7042 14.4247L58.0151 9.11383C58.7738 8.35514 60.0383 8.35514 60.797 9.11383C61.5557 9.87252 61.5557 11.137 60.797 11.8957L54.053 18.5553C53.7158 18.8925 53.21 19.1454 52.7042 19.1454C52.1984 19.1454 51.6927 18.9768 51.3555 18.5553L47.8992 15.099C47.0562 14.3404 47.0562 13.0759 47.8149 12.3172Z" fill="#34A9FF"></path>
  </g>
  <defs>
    <clipPath id="clip0_1561_1486">
      <rect width="76" height="81" fill="white"></rect>
    </clipPath>
  </defs>
</svg>
