<svg xmlns="http://www.w3.org/2000/svg" width="74" height="80" viewBox="0 0 74 80" fill="none"><g clip-path="url(#clip0_1561_1505)"><path d="M36.7527 62.5505C44.6769 62.5505 51.0836 56.1437 51.0836 48.2196C51.0836 40.2954 44.6769 33.8887 36.7527 33.8887C28.8286 33.8887 22.4219 40.2954 22.4219 48.2196C22.4219 56.1437 28.8286 62.5505 36.7527 62.5505ZM30.2617 46.6179C31.1047 45.7749 32.5378 45.7749 33.3808 46.6179L35.0667 48.3039L40.0404 43.3302C40.8834 42.4872 42.3165 42.4872 43.1595 43.3302C44.0025 44.1732 44.0025 45.6063 43.1595 46.4493L36.5841 53.0246C36.1626 53.4461 35.5725 53.699 34.9824 53.699C34.3923 53.699 33.8023 53.4461 33.3808 53.0246L30.0931 49.737C29.3344 48.894 29.3344 47.4609 30.2617 46.6179Z" fill="#34A9FF"></path><path d="M17.4479 22.1698C12.6429 25.7947 8.93375 30.5997 6.74197 36.1635C6.23617 37.428 6.82627 38.8611 8.17506 39.3668C8.51225 39.4511 8.76515 39.5354 9.10235 39.5354C10.1139 39.5354 11.0412 38.9454 11.3784 37.9338C13.233 33.213 16.352 29.1666 20.3984 26.1319C21.4943 25.2889 21.7472 23.7715 20.9042 22.6756C20.1455 21.5797 18.5438 21.3268 17.4479 22.1698Z" fill="#34A9FF"></path><path d="M48.3895 72.4973C44.7646 74.1832 40.8868 75.1105 36.7562 75.1105C32.6255 75.1105 28.832 74.2675 25.1229 72.4973C23.8584 71.9072 22.4253 72.413 21.8352 73.6775C21.2451 74.9419 21.7509 76.375 23.0154 76.9651C27.3147 78.9883 31.9511 79.9999 36.7562 79.9999C41.5612 79.9999 46.1977 78.9883 50.497 76.9651C51.7614 76.375 52.2672 74.9419 51.6771 73.6775C51.087 72.4973 49.5697 71.9072 48.3895 72.4973Z" fill="#34A9FF"></path><path d="M53.1069 26.1319C57.1533 29.1666 60.2724 33.2973 62.127 37.9338C62.5485 38.9454 63.4757 39.5354 64.403 39.5354C64.7402 39.5354 64.9931 39.4511 65.3303 39.3668C66.5948 38.8611 67.2691 37.428 66.7633 36.1635C64.5715 30.5997 60.8625 25.7947 56.0574 22.1698C54.9615 21.3268 53.4441 21.5797 52.6011 22.6756C51.7582 23.7715 51.9267 25.2889 53.1069 26.1319Z" fill="#34A9FF"></path><path d="M36.7544 12.8135C40.2927 12.8135 43.1611 9.94509 43.1611 6.40674C43.1611 2.8684 40.2927 0 36.7544 0C33.2161 0 30.3477 2.8684 30.3477 6.40674C30.3477 9.94509 33.2161 12.8135 36.7544 12.8135Z" fill="#34A9FF"></path><path d="M47.4589 24.7831C47.4589 20.1466 45.9416 16.1003 42.9068 13.8242C41.2208 15.2573 39.1133 16.1003 36.7529 16.1003C34.3926 16.1003 32.2851 15.2573 30.5991 13.8242C27.5643 16.1003 26.0469 20.1466 26.0469 24.7831C26.0469 28.155 47.4589 28.155 47.4589 24.7831Z" fill="#34A9FF"></path><path d="M10.6216 55.8897C14.1599 55.8897 17.0283 53.0213 17.0283 49.483C17.0283 45.9446 14.1599 43.0762 10.6216 43.0762C7.08324 43.0762 4.21484 45.9446 4.21484 49.483C4.21484 53.0213 7.08324 55.8897 10.6216 55.8897Z" fill="#34A9FF"></path><path d="M16.8599 56.9023C15.1739 58.3354 13.0664 59.1784 10.706 59.1784C8.34563 59.1784 6.23815 58.3354 4.55216 56.9023C1.51739 59.1784 0 63.2247 0 67.8612C0 71.2332 21.412 71.2332 21.412 67.8612C21.412 63.2247 19.8946 59.1784 16.8599 56.9023Z" fill="#34A9FF"></path><path d="M62.8872 55.8897C66.4256 55.8897 69.294 53.0213 69.294 49.483C69.294 45.9446 66.4256 43.0762 62.8872 43.0762C59.3489 43.0762 56.4805 45.9446 56.4805 49.483C56.4805 53.0213 59.3489 55.8897 62.8872 55.8897Z" fill="#34A9FF"></path><path d="M69.0396 56.9023C67.3536 58.3354 65.2461 59.1784 62.8857 59.1784C60.5254 59.1784 58.4179 58.3354 56.7319 56.9023C53.6971 59.1784 52.1797 63.2247 52.1797 67.8612C52.1797 71.2332 73.5917 71.2332 73.5917 67.8612C73.5917 63.2247 72.0744 59.1784 69.0396 56.9023Z" fill="#34A9FF"></path></g><defs><clipPath id="clip0_1561_1505"><rect width="74" height="80" fill="white"></rect></clipPath></defs></svg>