<svg width="20" height="21" viewBox="0 0 20 21" fill="none" xmlns="http://www.w3.org/2000/svg">
<path d="M5.61888 0.636241C3.29322 0.828048 1.57894 1.89498 0.655863 3.71715C0.0444764 4.93992 -0.0514274 6.11475 0.0205005 11.5933C0.0804404 16.4124 0.128392 16.7121 0.847671 17.9109C1.3152 18.7021 2.2143 19.5293 3.00551 19.9369C4.26424 20.5722 4.8037 20.6322 9.93456 20.6322C15.2932 20.6442 15.9046 20.5722 17.1993 19.793C18.0984 19.2536 18.3741 19.0018 18.9135 18.1866C19.501 17.3115 19.7167 16.7481 19.8726 15.6212C20.0404 14.4344 20.0404 6.86999 19.8846 5.63523C19.6448 3.82504 18.5299 2.1707 17.0194 1.35552C15.7727 0.684193 15.5329 0.660217 10.6538 0.624253C8.18431 0.612265 5.91858 0.612265 5.61888 0.636241ZM14.7897 2.49438C16.6718 2.75811 17.7387 3.7651 18.0984 5.61125C18.3022 6.66619 18.3022 14.5902 18.0984 15.6692C17.9185 16.6162 17.5589 17.2636 16.8396 17.9229C15.8686 18.81 15.6408 18.846 9.9945 18.846C5.67882 18.846 4.99551 18.822 4.4081 18.6422C3.58093 18.3784 2.9096 17.8989 2.45406 17.2516C1.83068 16.3525 1.75876 15.7531 1.69882 11.3415C1.63888 6.01884 1.77074 4.89197 2.59792 3.83703C3.17334 3.11775 4.02448 2.65022 5.03147 2.50636C6.08642 2.35052 13.7587 2.33853 14.7897 2.49438Z" fill="white"/>
<path d="M14.8718 4.22067C14.1645 4.53236 13.9846 5.45543 14.5121 6.04284C15.1954 6.78609 16.5261 6.25862 16.5261 5.23965C16.5261 4.79609 16.1904 4.31657 15.7948 4.17272C15.3273 4.01687 15.3633 4.00488 14.8718 4.22067Z" fill="white"/>
<path d="M8.77297 5.65917C6.17158 6.36646 4.51724 8.83598 4.92483 11.4134C5.20055 13.1876 6.5552 14.8659 8.18556 15.4294C10.4753 16.2326 12.8729 15.4414 14.2515 13.4394C15.3064 11.9169 15.3544 9.53128 14.3594 7.98484C13.1126 6.04278 10.8469 5.10772 8.77297 5.65917ZM11.4343 7.57724C12.6331 8.15267 13.3404 9.27954 13.3404 10.6342C13.3404 11.9049 12.729 12.9598 11.6261 13.6072C11.1346 13.8949 10.9548 13.9309 9.99574 13.9309C9.03671 13.9309 8.85689 13.8949 8.35339 13.6072C6.43532 12.4683 6.00375 10.0468 7.44231 8.4164C8.4493 7.27754 10.0677 6.92989 11.4343 7.57724Z" fill="white"/>
</svg>
