<?xml version="1.0" encoding="UTF-8"?>
<svg xmlns="http://www.w3.org/2000/svg" width="70" height="50" viewBox="0 0 70 50" fill="none">
  <path d="M47.3409 11.1978C47.2252 11.0718 47.0627 11 46.8917 11H23.1087C22.9377 11 22.7751 11.0718 22.6595 11.1978C22.5438 11.3238 22.4872 11.493 22.5024 11.6629L24.645 35.6619C24.6676 35.9127 24.8423 36.1239 25.0845 36.1933L34.8297 38.9769C34.8839 38.9921 34.9405 39 34.9965 39C35.0525 39 35.1091 38.9921 35.1633 38.9769L44.917 36.1933C45.1593 36.1239 45.334 35.9127 45.3565 35.6619L47.4979 11.6629C47.5131 11.493 47.4559 11.3238 47.3409 11.1978ZM27.0871 27.4372L31.348 28.6193V16.4783H33.7828V32.3043L27.0871 30.4472V27.4372ZM42.9461 23.1739L42.3045 30.6304L36.2176 32.3043V29.5037L40.3263 28.3746L40.4784 26.092L36.2176 26.8261V16.4783H43.5219L43.3119 18.913H38.6523V23.7826L42.9461 23.1739Z" fill="black"></path>
  <rect x="0.5" y="0.5" width="69" height="49" rx="2.5" stroke="#EEEEEE"></rect>
</svg>
