<?xml version="1.0" encoding="UTF-8"?>
<svg xmlns="http://www.w3.org/2000/svg" width="70" height="50" viewBox="0 0 70 50" fill="none">
  <path d="M22.3095 17.5846C19.7381 21.2812 20.0576 26.0904 22.0222 30.0168L22.1665 30.2971L22.259 30.4736L22.3151 30.5759L22.4174 30.7581L22.6051 31.0804L22.7116 31.2569L22.9288 31.5974L23.0213 31.7404L23.3366 32.1958L23.3983 32.2799L23.6855 32.6624L23.7934 32.7997L24.0737 33.1262L24.1746 33.2482L24.5445 33.6713L24.5669 33.6952L24.9425 34.0917L25.063 34.2136L25.3629 34.4939L25.4862 34.6102L25.8968 34.9843L25.9752 35.0502L26.3494 35.3655L26.4895 35.4888L26.8006 35.7326L26.9687 35.8728L27.3191 36.125L27.4816 36.2399L27.8207 36.4641L27.9679 36.5622L28.5003 36.8873L28.6475 36.9714L29.0468 37.1956L29.2682 37.3077L29.5541 37.4562L29.62 37.4884L29.7363 37.5445L30.1889 37.7547L30.2842 37.7967L30.8125 38.0153L30.9414 38.0658L31.4388 38.2507L31.5019 38.2732L32.0568 38.4553L32.1913 38.4946L32.7518 38.6571C45.1882 40.9272 48.8007 31.1827 48.8007 31.1827C45.7669 35.1343 40.393 36.1782 35.2783 35.018C35.085 34.9759 34.8972 34.9143 34.7094 34.8582L34.5693 34.8162C34.3862 34.7598 34.204 34.7005 34.0228 34.6382L33.9471 34.6102C33.7846 34.5542 33.6248 34.4925 33.4637 34.4308L33.3278 34.3776C33.1522 34.3084 32.978 34.236 32.8051 34.1604L32.7014 34.1141L32.2614 33.9096L32.1213 33.8479C32.0064 33.7919 31.8942 33.733 31.7807 33.6741L31.5537 33.555C31.4165 33.4813 31.2805 33.4052 31.146 33.3266L31.0086 33.2496C30.8295 33.1439 30.652 33.0355 30.4762 32.9245C30.4271 32.8936 30.3809 32.86 30.3332 32.8292L29.9549 32.5769C29.9128 32.5489 29.8736 32.5209 29.833 32.4929L29.4756 32.2336L29.3173 32.1145L28.995 31.8623L28.8507 31.7474L28.4485 31.4083C28.4345 31.3943 28.4205 31.3844 28.4065 31.3718C28.2635 31.2317 28.1234 31.1168 27.9833 30.9879L27.8642 30.873L27.5601 30.5759L27.441 30.4568C27.3145 30.3277 27.1902 30.1964 27.0682 30.063C26.9335 29.9158 26.8013 29.7663 26.6717 29.6146L26.5736 29.4969L26.3017 29.1606L26.2036 29.0205L25.8898 28.6029C23.0704 24.7466 22.0516 19.4161 24.3315 15.0385M30.3052 14.471C28.4457 17.1334 28.5466 20.7305 29.9969 23.5597C30.2398 24.0355 30.5146 24.4943 30.8195 24.9329C31.0997 25.3323 31.408 25.8073 31.7765 26.1282L32.1941 26.5486L32.3034 26.6565L32.7294 27.0531L32.7504 27.0713L33.2479 27.4833L33.36 27.5716L33.8813 27.9499L34.2456 28.1923L34.631 28.4305L34.687 28.4628L35.0289 28.6534L35.1508 28.7164L35.389 28.8397L35.4255 28.8565L35.9229 29.0892L36.0322 29.134L36.4526 29.2993L36.6278 29.3638L37.0019 29.4941L37.1701 29.5502C37.3494 29.6062 37.526 29.6903 37.7124 29.7071C47.3154 31.2976 49.5322 23.9058 49.5322 23.9058C47.534 26.784 43.6636 28.1573 39.534 27.0867L38.9903 26.9298L38.8264 26.8765L38.448 26.7448L38.2757 26.6803L37.8665 26.515L37.7544 26.4688L37.2542 26.2361L37.0019 26.096L36.8576 26.0217L36.4652 25.7975L36.0799 25.5621L35.7155 25.3197L35.1971 24.9414L35.0808 24.8489C33.2591 23.4224 31.8396 21.4858 31.1572 19.2606C30.4565 16.9667 30.5967 14.3925 31.834 12.3032M37.0047 12.1448C35.9089 13.7563 35.7996 15.7602 36.5619 17.544C37.3635 19.4357 39.0086 20.9071 40.9269 21.6077L41.1651 21.6918L41.2702 21.7254L41.6121 21.8235C46.9146 22.8464 48.3383 19.1022 48.7349 18.5515C47.4737 20.3648 45.3718 20.8006 42.7598 20.17C42.5471 20.1138 42.3368 20.0493 42.1292 19.9766C41.875 19.8866 41.6257 19.7832 41.3823 19.6669C40.9206 19.4448 40.4822 19.1772 40.0735 18.8682C37.7474 17.1026 36.2901 13.7395 37.8217 11" fill="#0868AC"></path>
  <rect x="0.5" y="0.5" width="69" height="49" rx="2.5" stroke="#EEEEEE"></rect>
</svg>
