<?xml version="1.0" encoding="UTF-8"?>
<svg xmlns="http://www.w3.org/2000/svg" width="82" height="80" viewBox="0 0 82 80" fill="none">
  <g clip-path="url(#clip0_1561_1451)">
    <path d="M0 80H81.5451V74.8498H76.3949V31.3305L47.897 23.5193V74.7639H44.0343V0L5.15021 7.72532V74.8498H0V80ZM64.721 38.0257H69.8712V44.721H64.721V38.0257ZM64.721 49.9571H69.8712V56.6524H64.721V49.9571ZM64.721 61.8884H69.8712V68.5837H64.721V61.8884ZM54.3348 38.0257H59.485V44.721H54.3348V38.0257ZM54.3348 49.9571H59.485V56.6524H54.3348V49.9571ZM54.3348 61.8884H59.485V68.5837H54.3348V61.8884ZM32.3605 14.2489H37.5107V20.9442H32.3605V14.2489ZM32.3605 26.1803H37.5107V32.8755H32.3605V26.1803ZM32.3605 38.0257H37.5107V44.721H32.3605V38.0257ZM32.3605 49.9571H37.5107V56.6524H32.3605V49.9571ZM21.9742 14.2489H27.1245V20.9442H21.9742V14.2489ZM21.9742 26.1803H27.1245V32.8755H21.9742V26.1803ZM21.9742 38.0257H27.1245V44.721H21.9742V38.0257ZM21.9742 49.9571H27.1245V56.6524H21.9742V49.9571ZM11.588 14.2489H16.7382V20.9442H11.588V14.2489ZM11.588 26.1803H16.7382V32.8755H11.588V26.1803ZM11.588 38.0257H16.7382V44.721H11.588V38.0257ZM11.588 49.9571H16.7382V56.6524H11.588V49.9571ZM19.6567 61.8884H29.5279V74.8498H19.6567V61.8884Z" fill="#34A9FF"></path>
  </g>
  <defs>
    <clipPath id="clip0_1561_1451">
      <rect width="82" height="80" fill="white"></rect>
    </clipPath>
  </defs>
</svg>
