<svg width="55" height="82" viewBox="0 0 55 82" fill="none" xmlns="http://www.w3.org/2000/svg">
<path d="M23.155 1.24415C17.1416 2.08518 11.0862 5.40725 6.79697 10.2011C1.16207 16.5509 -1.23487 26.0125 0.6154 34.8433C1.45643 38.8382 3.13849 42.2864 6.46056 46.7018C9.99289 51.4116 11.8432 54.5655 13.2309 58.0137C14.4083 60.9152 15.3334 61.6722 16.8473 60.8311C18.3191 60.0742 18.5293 59.0229 17.6883 56.5839C16.1745 52.2106 13.315 47.3326 9.86673 43.2116C8.98365 42.1603 7.638 39.9736 6.88107 38.3756C0.741554 25.1294 8.05852 9.6965 22.1037 6.37443C25.7622 5.5334 31.5653 5.78571 34.9715 7.0052C41.7838 9.36009 48.0074 16.2145 49.5634 23.0268C50.11 25.4658 50.1521 31.9417 49.5634 34.3387C48.8905 37.3243 47.2926 40.2259 43.9284 44.6834C40.6064 49.0147 37.2843 55.2383 36.7797 58.0557C36.4433 59.8639 37.3264 61.2937 38.8402 61.2937C40.2279 61.2937 40.6064 60.8311 41.8259 57.7193C43.3397 53.9347 44.8115 51.4957 48.3859 46.7859C53.348 40.1418 55.3665 34.2546 54.9459 27.232C54.3152 16.5929 48.5541 7.97239 38.9664 3.43082C34.0463 1.11799 28.9581 0.403116 23.155 1.24415Z" fill="black"/>
<path d="M24.3739 11.2945C16.7205 12.5981 10.6651 19.1581 10.1605 26.6433C9.99229 29.5448 10.0343 29.713 11.0856 30.3858C12.4733 31.311 14.1554 30.7223 14.4498 29.2505C14.5759 28.7038 14.8703 27.232 15.1226 25.9284C15.6692 23.153 17.3934 20.2094 19.4118 18.6535C21.0939 17.3919 25.2149 15.8781 26.9811 15.8781C29.1678 15.8781 30.5555 13.6073 29.336 11.9673C28.5791 11.0422 27.1073 10.8319 24.3739 11.2945Z" fill="black"/>
<path d="M15.8819 66.8025C15.2512 67.139 15.125 67.8118 15.125 70.7133C15.125 74.1616 15.125 74.2036 17.1435 77.1052C19.8768 81.1421 20.7179 81.4785 27.4461 81.4785C31.5671 81.4785 33.2071 81.3103 34.3005 80.8057C35.7723 80.0908 38.3374 76.8949 39.3467 74.498C40.1456 72.5636 40.1036 68.4426 39.2626 67.2651C38.6318 66.34 38.5056 66.34 27.6143 66.34C20.9281 66.34 16.3024 66.5502 15.8819 66.8025ZM35.3097 71.6805C35.3097 71.8487 34.721 72.9841 33.9641 74.2036L32.6184 76.4323H27.4881H22.3579L21.0543 74.4139C20.3394 73.2785 19.7507 72.1431 19.7507 71.8908C19.7507 71.5123 21.8953 71.3862 27.5302 71.3862C31.8194 71.3862 35.3097 71.5123 35.3097 71.6805Z" fill="black"/>
</svg>
