<?xml version="1.0" standalone="no"?>
<!DOCTYPE svg PUBLIC "-//W3C//DTD SVG 20010904//EN"
 "http://www.w3.org/TR/2001/REC-SVG-20010904/DTD/svg10.dtd">
<svg version="1.0" xmlns="http://www.w3.org/2000/svg"
 width="197.000000pt" height="216.000000pt" viewBox="0 0 197.000000 216.000000"
 preserveAspectRatio="xMidYMid meet">

<g transform="translate(0.000000,216.000000) scale(0.100000,-0.100000)"
fill="#000000" stroke="none">
<path d="M222 1879 c-20 -6 -40 -22 -52 -42 -19 -31 -20 -55 -20 -787 0 -584
3 -761 13 -780 7 -14 28 -33 47 -42 32 -17 90 -18 773 -18 670 0 742 2 774 17
65 30 63 4 63 825 0 687 -1 746 -18 778 -11 24 -28 39 -52 47 -44 15 -1477 17
-1528 2z m406 -274 l44 -45 -4 -61 c-4 -57 -8 -65 -46 -100 -35 -34 -48 -39
-87 -39 -133 0 -202 141 -118 241 33 38 55 48 117 48 45 1 52 -3 94 -44z m817
-362 c51 -27 79 -57 104 -113 32 -74 41 -161 41 -427 l0 -253 -130 0 -131 0 2
244 c1 223 -1 247 -19 289 -16 36 -27 47 -57 57 -21 7 -55 10 -77 7 -104 -14
-118 -57 -118 -369 l0 -228 -130 0 -130 0 0 393 c0 292 3 396 12 405 13 13
192 17 222 6 11 -4 16 -19 16 -45 0 -21 3 -39 8 -39 4 0 20 14 36 30 55 56
100 71 211 67 78 -2 109 -8 140 -24z m-797 5 c9 -9 12 -113 12 -405 l0 -393
-130 0 -130 0 0 399 c0 310 3 400 13 404 27 11 223 7 235 -5z"/>
</g>
</svg>
