<svg width="20" height="21" viewBox="0 0 20 21" fill="none" xmlns="http://www.w3.org/2000/svg">
<path d="M0.862272 0.918794C0.622752 0.99065 0.383232 1.18227 0.23952 1.42179C0.011976 1.79304 0 2.08047 0 10.8469C0 17.8409 0.035928 19.9606 0.155688 20.1882C0.23952 20.3558 0.491016 20.5834 0.71856 20.6912C1.10179 20.8948 1.7964 20.9067 9.97601 20.9067C17.9999 20.9067 18.8622 20.8828 19.2454 20.7031C20.0239 20.3439 19.9999 20.6552 19.9999 10.8229C19.9999 2.59543 19.9879 1.88885 19.7844 1.50562C19.6526 1.21819 19.449 1.03855 19.1616 0.942746C18.6347 0.763106 1.47305 0.739154 0.862272 0.918794ZM5.72453 4.20022L6.25147 4.73914L6.20357 5.46967C6.15566 6.15231 6.10776 6.24811 5.65267 6.66727C5.23351 7.07446 5.07782 7.13434 4.61076 7.13434C3.01795 7.13434 2.19161 5.44572 3.19759 4.24812C3.5928 3.79303 3.85627 3.67327 4.59878 3.67327C5.1377 3.6613 5.22154 3.7092 5.72453 4.20022ZM15.5089 8.53553C16.1197 8.85888 16.455 9.21816 16.7544 9.88882C17.1377 10.775 17.2454 11.817 17.2454 15.0026V18.0325H15.6886H14.1197L14.1437 15.1104C14.1556 12.4397 14.1317 12.1523 13.9161 11.6493C13.7245 11.2182 13.5928 11.0864 13.2335 10.9667C12.982 10.8828 12.5748 10.8469 12.3113 10.8828C11.0658 11.0505 10.8982 11.5655 10.8982 15.302V18.0325H9.34128H7.7844V13.3259C7.7844 9.82894 7.82033 8.58343 7.92811 8.47565C8.0838 8.31996 10.2275 8.27206 10.5868 8.40379C10.7185 8.4517 10.7784 8.63134 10.7784 8.94271C10.7784 9.19421 10.8143 9.40978 10.8742 9.40978C10.9221 9.40978 11.1137 9.24211 11.3053 9.0505C11.964 8.37984 12.5029 8.2002 13.8323 8.24811C14.7664 8.27206 15.1377 8.34391 15.5089 8.53553ZM5.96405 8.47565C6.07183 8.58343 6.10776 9.82894 6.10776 13.3259V18.0325H4.55088H2.994V13.2541C2.994 9.54151 3.02993 8.46367 3.14969 8.41577C3.47304 8.28403 5.82034 8.33194 5.96405 8.47565Z" fill="white"/>
</svg>
