<svg width="20" height="21" viewBox="0 0 20 21" fill="none" xmlns="http://www.w3.org/2000/svg">
<path d="M4.96496 0.774934C4.84971 0.795889 4.16868 0.963527 3.44574 1.13117C1.16167 1.66551 0.868305 1.75981 0.585416 2.02174C0.0196373 2.54561 -0.043227 2.81802 0.0196373 4.2639C0.166321 7.31282 0.994034 9.9636 2.60755 12.541C4.08486 14.8984 5.81363 16.6272 8.24438 18.1674C10.7275 19.739 13.9231 20.6924 16.8463 20.7448C17.936 20.7658 17.9883 20.7553 18.3551 20.4724C18.5751 20.3048 18.8161 20.0743 18.8894 19.9485C19.057 19.6866 20 15.7052 20 15.2861C19.9895 14.7518 19.6333 14.1441 19.1409 13.8717C18.2293 13.3373 14.9185 11.9857 14.4156 11.9333C13.6612 11.86 13.263 12.101 12.3515 13.1697L11.5762 14.1022L11.1466 13.8507C9.47023 12.8554 7.87767 11.2628 6.95566 9.67023L6.65182 9.15684L6.97662 8.88443C7.14426 8.73774 7.56335 8.38151 7.89863 8.09862C8.62157 7.48046 8.94637 6.85181 8.84159 6.26508C8.75777 5.80408 7.06044 1.80172 6.77755 1.40358C6.43179 0.921618 5.56217 0.617774 4.96496 0.774934ZM5.89745 2.24177C6.32702 3.09044 7.63669 6.28604 7.63669 6.49558C7.63669 6.68418 7.37476 6.96707 6.53657 7.65857C5.92888 8.16149 5.38406 8.6644 5.32119 8.77965C5.18499 9.03111 5.41549 9.55498 6.16986 10.6865C7.19664 12.2372 8.53775 13.5678 10.1513 14.6365C11.2619 15.3594 11.66 15.5376 11.9324 15.4118C12.0477 15.3594 12.5506 14.8251 13.064 14.2174C13.5669 13.6097 14.0593 13.1068 14.1641 13.0859C14.447 13.0335 18.6379 14.8461 18.7532 15.087C18.837 15.2232 18.7741 15.6528 18.5436 16.6586C18.0617 18.6913 17.9045 19.278 17.7788 19.4247C17.6426 19.5923 16.3539 19.6028 15.2118 19.4456C12.0581 19.0161 9.03018 17.6226 6.68325 15.5166C3.35144 12.5306 1.45504 8.6644 1.18263 4.31629C1.11976 3.25807 1.13024 3.1533 1.31883 2.97518C1.53886 2.77611 4.70303 1.99031 5.35262 1.96936C5.67742 1.95888 5.77172 2.01127 5.89745 2.24177Z" fill="white"/>
</svg>
