<?xml version="1.0" encoding="UTF-8"?>
<svg xmlns="http://www.w3.org/2000/svg" width="71" height="59" viewBox="0 0 71 59" fill="none">
  <g clip-path="url(#clip0_1607_1463)">
    <path d="M31.435 34.797V54.473C31.4341 54.8718 31.3546 55.2665 31.201 55.6345C31.0474 56.0025 30.8228 56.3366 30.54 56.6177C30.2572 56.8989 29.9217 57.1215 29.5528 57.2729C29.1839 57.4243 28.7888 57.5015 28.39 57.5H4.043C3.6444 57.5012 3.24948 57.4238 2.88079 57.2723C2.51211 57.1208 2.17689 56.8981 1.89429 56.617C1.6117 56.3359 1.38726 56.0019 1.23382 55.634C1.08037 55.2661 1.00092 54.8716 1 54.473L1 4.52702C1.00092 4.12842 1.08037 3.7339 1.23382 3.36602C1.38726 2.99814 1.6117 2.6641 1.89429 2.38299C2.17689 2.10188 2.51211 1.87922 2.88079 1.72771C3.24948 1.5762 3.6444 1.49883 4.043 1.50002H28.391C28.7897 1.4987 29.1847 1.57598 29.5535 1.72742C29.9223 1.87887 30.2577 2.10152 30.5404 2.38264C30.8231 2.66376 31.0476 2.99785 31.2011 3.36579C31.3546 3.73374 31.4341 4.12833 31.435 4.52702V25.717" stroke="#34A9FF" stroke-width="2"></path>
    <path d="M1 48.5H31.435M31.435 9.5H1" stroke="#34A9FF" stroke-width="2" stroke-linejoin="round"></path>
    <path d="M40 34.797V54.473C40.0009 54.8716 40.0804 55.2661 40.2338 55.634C40.3873 56.0019 40.6117 56.3359 40.8943 56.617C41.1769 56.8982 41.5121 57.1208 41.8808 57.2723C42.2495 57.4238 42.6444 57.5012 43.043 57.5H67.391C67.7897 57.5013 68.1847 57.4241 68.5535 57.2726C68.9223 57.1212 69.2577 56.8985 69.5404 56.6174C69.8231 56.3363 70.0476 56.0022 70.2011 55.6342C70.3546 55.2663 70.4341 54.8717 70.435 54.473V4.52702C70.4341 4.12825 70.3546 3.73358 70.201 3.36556C70.0474 2.99755 69.8228 2.66342 69.54 2.38229C69.2572 2.10115 68.9217 1.87852 68.5528 1.72714C68.1839 1.57575 67.7888 1.49857 67.39 1.50002H43.043C42.6444 1.49884 42.2495 1.57621 41.8808 1.72771C41.5121 1.87922 41.1769 2.10189 40.8943 2.383C40.6117 2.66411 40.3873 2.99815 40.2338 3.36603C40.0804 3.73391 40.0009 4.12842 40 4.52702V25.717" stroke="#34A9FF" stroke-width="2"></path>
    <path d="M70.435 48.5H40M40 9.5H70.435" stroke="#34A9FF" stroke-width="2" stroke-linejoin="round"></path>
    <path d="M58.217 30.5H43M54 35.58L58.565 31.04L54 26.5M37 30.5H40.043M13 30.5H28.217M17.565 34.58L13 30.04L17.565 25.5" stroke="#34A9FF" stroke-width="2"></path>
    <path d="M55.5 54.5C56.3284 54.5 57 53.8284 57 53C57 52.1716 56.3284 51.5 55.5 51.5C54.6716 51.5 54 52.1716 54 53C54 53.8284 54.6716 54.5 55.5 54.5Z" stroke="#34A9FF" stroke-width="2"></path>
    <path d="M15.5 54.5C16.3284 54.5 17 53.8284 17 53C17 52.1716 16.3284 51.5 15.5 51.5C14.6716 51.5 14 52.1716 14 53C14 53.8284 14.6716 54.5 15.5 54.5Z" stroke="#34A9FF" stroke-width="2"></path>
    <path d="M34.043 30.5H31" stroke="#34A9FF" stroke-width="2"></path>
  </g>
  <defs>
    <clipPath id="clip0_1607_1463">
      <rect width="71" height="58" fill="white" transform="translate(0 0.5)"></rect>
    </clipPath>
  </defs>
</svg>
