<?xml version="1.0" encoding="UTF-8"?>
<svg xmlns="http://www.w3.org/2000/svg" width="70" height="50" viewBox="0 0 70 50" fill="none">
  <path d="M28.1884 22.5938L23.2703 25.3149C23.0859 25.4161 22.9727 25.6045 22.9727 25.808V31.2533C22.9727 31.4567 23.0859 31.6442 23.2703 31.7464L28.1894 34.4695C28.3728 34.5708 28.6004 34.5708 28.7838 34.4695L33.7019 31.7464C33.8843 31.6442 33.9975 31.4567 33.9975 31.2533V25.808C33.9975 25.6045 33.8843 25.4171 33.6999 25.3149L28.7828 22.5938C28.6906 22.5426 28.5873 22.5176 28.4851 22.5176C28.3819 22.5176 28.2796 22.5426 28.1874 22.5938M53.4925 27.4958L52.6727 27.9488C52.6416 27.9659 52.6236 27.9969 52.6236 28.031V28.9391C52.6236 28.9731 52.6426 29.0042 52.6727 29.0213L53.4925 29.4753C53.5236 29.4923 53.5607 29.4923 53.5917 29.4753L54.4116 29.0213C54.4417 29.0042 54.4607 28.9731 54.4607 28.9391V28.031C54.4607 27.9969 54.4417 27.9659 54.4106 27.9488L53.5907 27.4958C53.5757 27.4868 53.5587 27.4828 53.5416 27.4828C53.5246 27.4828 53.5076 27.4868 53.4925 27.4958Z" fill="#388E3C"></path>
  <path d="M46.7831 16.8219L44.3887 15.4859C44.3136 15.4438 44.2213 15.4448 44.1472 15.4889C44.073 15.533 44.0269 15.6122 44.0269 15.6984L44.0259 23.7686L41.8179 22.5468C41.7257 22.4957 41.6225 22.4707 41.5202 22.4707C41.418 22.4707 41.3148 22.4957 41.2226 22.5468H41.2236L36.3055 25.268C36.1211 25.3692 36.0078 25.5576 36.0078 25.7601V31.2054C36.0078 31.4088 36.1211 31.5963 36.3055 31.6985L41.2246 34.4216C41.408 34.5229 41.6355 34.5229 41.8189 34.4216L46.737 31.6985C46.9194 31.5973 47.0327 31.4088 47.0327 31.2054V17.2469C47.0327 17.0705 46.9365 16.9081 46.7831 16.8219ZM43.8916 29.9455L41.6566 31.1833C41.5734 31.2294 41.4701 31.2294 41.3869 31.1833L39.1509 29.9455C39.0657 29.8994 39.0146 29.8132 39.0146 29.721V27.2454C39.0146 27.1532 39.0657 27.068 39.1499 27.0209L41.3859 25.7841C41.428 25.7611 41.4731 25.7501 41.5202 25.7501C41.5674 25.7501 41.6135 25.7621 41.6556 25.7841L43.8906 27.0209C43.9748 27.068 44.0259 27.1542 44.0259 27.2464V29.722C44.0259 29.8132 43.9748 29.8994 43.8916 29.9455Z" fill="#37474F"></path>
  <path d="M28.1884 22.5938L22.9727 31.2533C22.9727 31.4567 23.0859 31.6442 23.2703 31.7464L28.1894 34.4695C28.3728 34.5708 28.6004 34.5708 28.7838 34.4695L33.9975 25.808C33.9975 25.6045 33.8843 25.4171 33.6999 25.3149L28.7828 22.5938C28.6906 22.5426 28.5873 22.5176 28.4851 22.5176C28.3819 22.5176 28.2796 22.5426 28.1874 22.5938" fill="#2E7D32"></path>
  <path d="M28.1884 22.5938L23.2703 25.3149C23.0859 25.4161 22.9727 25.6045 22.9727 25.808L28.1884 34.4695C28.3718 34.5708 28.5994 34.5708 28.7828 34.4695L33.7009 31.7464C33.8843 31.6442 33.9975 31.4567 33.9975 31.2533L28.7828 22.5938C28.6906 22.5426 28.5873 22.5176 28.4851 22.5176C28.3819 22.5176 28.2796 22.5426 28.1874 22.5938" fill="#4CAF50"></path>
  <path d="M58.7562 25.2661L53.8391 22.5449C53.7469 22.4938 53.6437 22.4688 53.5414 22.4688C53.4392 22.4688 53.336 22.4938 53.2438 22.5449L48.3267 25.2661C48.1432 25.3673 48.029 25.5597 48.029 25.7702V31.1934C48.029 31.4029 48.1432 31.5963 48.3267 31.6976L53.2458 34.4207C53.4302 34.5229 53.6557 34.5229 53.8401 34.4207L56.1082 33.1649C56.3157 33.0496 56.3147 32.752 56.1062 32.6377L51.1711 29.9446C51.0879 29.8975 51.0358 29.8103 51.0358 29.7161V27.2445C51.0358 27.1523 51.0859 27.0671 51.1661 27.023L53.4061 25.7842H53.4051C53.4472 25.7612 53.4933 25.7502 53.5404 25.7502C53.5875 25.7502 53.6336 25.7622 53.6757 25.7842L55.9158 27.024C55.996 27.0681 56.0461 27.1533 56.0461 27.2455V29.2621C56.0461 29.3483 56.0922 29.4285 56.1674 29.4715C56.2425 29.5136 56.3347 29.5136 56.4099 29.4705L58.8133 28.0744C58.9617 27.9882 59.0539 27.8288 59.0539 27.6565V25.7722C59.0539 25.5607 58.9396 25.3673 58.7562 25.2661ZM21.6725 25.2661L16.7554 22.5449C16.6632 22.4938 16.56 22.4688 16.4578 22.4688C16.3555 22.4688 16.2523 22.4938 16.1601 22.5449L11.243 25.2661C11.0596 25.3673 10.9453 25.5597 10.9453 25.7702V33.2521C10.9453 33.3383 10.9914 33.4185 11.0666 33.4616C11.1418 33.5036 11.234 33.5036 11.3091 33.4605L13.7126 32.0644C13.8609 31.9782 13.9521 31.8188 13.9521 31.6465V27.2435C13.9521 27.1513 14.0022 27.0661 14.0824 27.022L16.3224 25.7832C16.3645 25.7602 16.4106 25.7492 16.4578 25.7492C16.5049 25.7492 16.551 25.7612 16.5931 25.7832L18.8331 27.023C18.9133 27.0671 18.9634 27.1523 18.9634 27.2445V31.6475C18.9634 31.8198 19.0546 31.9792 19.2039 32.0654L21.6074 33.4616C21.6825 33.5046 21.7747 33.5046 21.8499 33.4626C21.9241 33.4185 21.9702 33.3383 21.9702 33.2521V25.7712C21.9702 25.5607 21.8559 25.3673 21.6725 25.2661Z" fill="#37474F"></path>
  <rect x="0.5" y="0.5" width="69" height="49" rx="2.5" stroke="#EEEEEE"></rect>
</svg>
