<?xml version="1.0" encoding="UTF-8"?>
<svg xmlns="http://www.w3.org/2000/svg" width="70" height="50" viewBox="0 0 70 50" fill="none">
  <path d="M34.9985 11C20.5063 11 9.15234 17.1502 9.15234 25C9.15234 32.8498 20.5063 39 34.9985 39C49.4907 39 60.8446 32.8498 60.8446 25C60.8446 17.1502 49.4907 11 34.9985 11ZM32.3146 15.3077H35.1373L34.2413 19.6154H36.7611C38.3597 19.6154 39.4324 19.8383 40.0424 20.3978C40.6397 20.9489 40.8206 21.8534 40.5808 23.0859L39.4618 28.2308H36.5928L37.6235 23.473C37.7497 22.8209 37.6992 22.3666 37.4805 22.1268C37.2617 21.887 36.7822 21.7692 36.0628 21.7692H33.8038L32.4408 28.2308H29.6139L32.3146 15.3077ZM19.9216 19.6154H25.6638C28.4023 19.6154 30.0598 21.4495 29.412 24.1881C28.659 27.3684 26.6397 28.2308 22.9294 28.2308H21.1541L20.5904 31.4615H17.7383L19.9216 19.6154ZM42.537 19.6154H48.2791C51.0177 19.6154 52.6752 21.4495 52.0273 24.1881C51.2743 27.3684 49.2551 28.2308 45.5448 28.2308H43.7695L43.2058 31.4615H40.3537L42.537 19.6154ZM22.3657 21.7692L21.5538 26.0769H23.3963C24.9907 26.0769 26.4715 25.896 26.7197 23.5192C26.8122 22.598 26.4294 21.7692 24.5868 21.7692H22.3657ZM44.9811 21.7692L44.1692 26.0769H46.0117C47.6061 26.0769 49.0868 25.896 49.335 23.5192C49.4276 22.598 49.0448 21.7692 47.2022 21.7692H44.9811Z" fill="black"></path>
  <rect x="0.5" y="0.5" width="69" height="49" rx="2.5" stroke="#EEEEEE"></rect>
</svg>
