<?xml version="1.0" encoding="UTF-8"?>
<svg xmlns="http://www.w3.org/2000/svg" width="70" height="50" viewBox="0 0 70 50" fill="none">
  <path d="M35.3569 11.0001C34.2111 11.0037 33.4168 11.1047 32.4567 11.2705C29.6214 11.7642 29.1048 12.8009 29.1048 14.7115V17.6316H35.7364V19.1053H28.8528H25.6476C23.7053 19.1053 22.0054 20.0205 21.4668 22.214C20.8581 24.7318 20.8309 26.3087 21.4668 28.9377C21.9494 30.8984 23.0126 32.3684 24.9557 32.3684H27.6319V28.6076C27.6319 26.4221 29.6111 24.2632 31.879 24.2632H37.2108C39.0699 24.2632 40.895 22.8912 40.895 21.038V14.7115C40.895 12.9144 39.5989 11.5704 37.787 11.269C37.832 11.2646 36.4931 10.9956 35.3569 11.0001ZM31.6845 13.9474C32.2895 13.9474 32.7898 14.4463 32.7898 15.0542C32.7898 15.6679 32.2895 16.1579 31.6845 16.1579C31.0678 16.1579 30.5793 15.6687 30.5793 15.0542C30.5793 14.4485 31.0678 13.9474 31.6845 13.9474Z" fill="#0277BD"></path>
  <path d="M34.6436 38.9992C35.7894 38.9956 36.5837 38.8946 37.5438 38.7288C40.3791 38.2351 40.8957 37.1984 40.8957 35.2878V32.3677H34.2641V30.894H41.1484H44.3537C46.296 30.894 47.9959 29.9788 48.5345 27.7853C49.1431 25.2675 49.1704 23.6906 48.5345 21.0616C48.0511 19.1009 46.9879 17.6309 45.0448 17.6309H42.3686V21.3917C42.3686 23.5772 40.3894 25.7361 38.1215 25.7361H32.7897C30.9306 25.7361 29.1055 27.1081 29.1055 28.9613V35.2878C29.1055 37.0849 30.4016 38.4289 32.2135 38.7303C32.1685 38.7347 33.5074 39.0037 34.6436 38.9992ZM38.3167 36.0519C37.7118 36.0519 37.2115 35.553 37.2115 34.9451C37.2115 34.3314 37.7118 33.8414 38.3167 33.8414C38.9334 33.8414 39.422 34.3306 39.422 34.9451C39.422 35.5508 38.9327 36.0519 38.3167 36.0519Z" fill="#FFC107"></path>
  <rect x="0.5" y="0.5" width="69" height="49" rx="2.5" stroke="#EEEEEE"></rect>
</svg>
