<?xml version="1.0" encoding="UTF-8"?>
<svg xmlns="http://www.w3.org/2000/svg" width="67" height="80" viewBox="0 0 67 80" fill="none">
  <g clip-path="url(#clip0_1561_1495)">
    <path d="M22.5431 56.7038C22.1217 56.3666 21.616 56.1138 21.1103 56.1138L17.5702 55.8609C13.9459 55.6081 10.743 53.7538 8.63587 51.0566L0.207239 69.0096C-0.551338 70.6953 0.881529 72.6339 2.73583 72.2968L10.3216 70.8639C11.2487 70.6953 12.2602 71.1167 12.7659 72.0439L16.4745 78.7868C17.4016 80.4725 19.7617 80.3882 20.5202 78.6182L28.696 61.171C27.4317 60.6652 26.336 59.991 25.2403 59.0638L22.5431 56.7038Z" fill="#34A9FF"></path>
    <path d="M66.6255 69.0096L58.1969 51.0566C56.0897 53.7538 52.8868 55.5238 49.2625 55.8609L45.7225 56.1138C45.1325 56.1981 44.7111 56.3666 44.2896 56.7038L41.5925 58.9795C40.581 59.8224 39.401 60.581 38.1367 61.0867L46.3125 78.5339C47.0711 80.2197 49.5154 80.304 50.3582 78.7025L54.0668 71.9596C54.5726 71.1167 55.4997 70.611 56.5111 70.7796L64.0969 72.2125C65.9512 72.5496 67.4684 70.6953 66.6255 69.0096Z" fill="#34A9FF"></path>
    <path d="M41.001 52.9107C42.1811 51.8993 43.6982 51.225 45.2996 51.1407L48.8397 50.8879C52.5483 50.635 55.4983 47.685 55.7512 43.9764L56.004 40.4364C56.0883 38.8349 56.7626 37.3178 57.774 36.1378L60.134 33.4406C62.5783 30.5749 62.5783 26.4448 60.134 23.6634L57.774 20.9662C56.7626 19.7862 56.0883 18.2691 56.004 16.6676L55.7512 13.1276C55.4983 9.419 52.5483 6.46898 48.8397 6.21612L45.2996 5.96326C43.6982 5.87897 42.1811 5.20468 41.001 4.19324L38.3039 1.83323C35.4381 -0.611076 31.3081 -0.611076 28.5267 1.83323L25.8295 3.94039C24.6495 4.95182 23.1323 5.62611 21.5309 5.7104L17.9909 5.96326C14.2823 6.21612 11.3323 9.16614 11.0794 12.8747L10.8265 16.4148C10.7423 18.0162 10.068 19.5334 9.05653 20.7134L6.69651 23.4105C4.25221 26.2763 4.25221 30.4063 6.69651 33.1877L9.05653 35.8849C10.068 37.0649 10.7423 38.5821 10.8265 40.1835L11.0794 43.7235C11.3323 47.4321 14.2823 50.3822 17.9909 50.635L21.5309 50.8879C23.1323 50.9722 24.6495 51.6465 25.8295 52.6579L28.5267 55.0179C31.3924 57.4622 35.5224 57.4622 38.3039 55.0179L41.001 52.9107ZM17.5694 28.4677C17.5694 19.7019 24.6495 12.6219 33.4153 12.6219C42.1811 12.6219 49.2611 19.7019 49.2611 28.4677C49.2611 37.2335 42.1811 44.3135 33.4153 44.3135C24.6495 44.3135 17.5694 37.1492 17.5694 28.4677Z" fill="#34A9FF"></path>
    <path d="M42.3522 24.3371L37.9693 23.4942C37.5479 23.41 37.1263 23.1571 36.9578 22.7357L34.7664 18.7742C34.1764 17.7628 32.6593 17.7628 32.1535 18.7742L29.9621 22.7357C29.7092 23.1571 29.3721 23.41 28.9507 23.4942L24.5678 24.3371C23.3878 24.59 22.9663 26.0228 23.7249 26.8657L26.7592 30.1529C27.0964 30.49 27.1806 30.9114 27.1806 31.3329L26.6748 35.8001C26.5062 36.9801 27.7706 37.8229 28.7821 37.3172L32.8278 35.3786C33.2493 35.21 33.6707 35.21 34.0921 35.3786L38.1378 37.3172C39.2335 37.8229 40.4136 36.9801 40.245 35.8001L39.7393 31.3329C39.655 30.9114 39.8236 30.4057 40.1607 30.1529L43.195 26.8657C43.9536 25.9385 43.5322 24.59 42.3522 24.3371Z" fill="#34A9FF"></path>
  </g>
  <defs>
    <clipPath id="clip0_1561_1495">
      <rect width="67" height="80" fill="white"></rect>
    </clipPath>
  </defs>
</svg>
