<?xml version="1.0" encoding="UTF-8"?>
<svg xmlns="http://www.w3.org/2000/svg" width="70" height="50" viewBox="0 0 70 50" fill="none">
  <path d="M34.9981 31.7868C26.2203 31.7868 19.3477 28.7928 19.3477 24.9823C19.3477 21.1717 26.2203 18.1777 34.9981 18.1777C43.776 18.1777 50.6486 21.1717 50.6486 24.9823C50.6486 28.7928 43.776 31.7868 34.9981 31.7868ZM34.9981 19.5386C26.4244 19.5386 20.7086 22.3285 20.7086 24.9823C20.7086 27.6361 26.4244 30.4259 34.9981 30.4259C43.5719 30.4259 49.2877 27.6361 49.2877 24.9823C49.2877 22.3285 43.5719 19.5386 34.9981 19.5386Z" fill="#80DEEA"></path>
  <path d="M28.9428 38.9992C28.2623 38.9992 27.7179 38.8631 27.1736 38.5229C23.8393 36.6176 24.7239 29.2007 29.0789 21.5796C31.1202 18.0412 33.6379 15.0472 36.0875 13.1419C38.7413 11.1005 41.1229 10.4881 42.756 11.4408C44.4572 12.3934 45.0696 14.775 44.6613 18.1092C44.253 21.2393 42.8921 24.9138 40.8507 28.4522C38.8094 31.9905 36.2917 34.9845 33.842 36.8898C32.0729 38.2507 30.3717 38.9992 28.9428 38.9992ZM41.0549 12.3254C39.9661 12.3254 38.5372 12.9378 36.9721 14.1626C34.6586 15.9998 32.277 18.8577 30.3037 22.26C26.0168 29.677 25.6085 36.0733 27.854 37.3661C29.0108 38.0466 30.9161 37.4342 33.0255 35.8011C35.339 33.9639 37.7206 31.1059 39.694 27.7037C41.6673 24.3014 42.9602 20.8311 43.3684 17.9051C43.7087 15.1833 43.3004 13.278 42.1436 12.5975C41.8034 12.4615 41.4631 12.3254 41.0549 12.3254Z" fill="#80DEEA"></path>
  <path d="M41.1222 39C37.7199 39 32.8206 34.8492 29.1461 28.3849C24.7232 20.7638 23.8386 13.3468 27.1728 11.4415C30.507 9.53627 36.4951 13.9592 40.918 21.5803C42.9594 25.1187 44.3203 28.7932 44.7286 31.9233C45.2049 35.2575 44.5244 37.571 42.8233 38.5917C42.2789 38.8639 41.7346 39 41.1222 39ZM27.8533 12.5983C25.6078 13.8912 26.016 20.2875 30.3029 27.7044C34.5898 35.1214 39.8973 38.6598 42.1428 37.3669C43.2996 36.6865 43.7079 34.7812 43.3677 32.0594C42.9594 29.1334 41.6665 25.6631 39.6932 22.2608C35.4063 14.8438 30.0988 11.3055 27.8533 12.5983Z" fill="#80DEEA"></path>
  <path d="M34.9992 27.7054C36.5024 27.7054 37.721 26.4868 37.721 24.9835C37.721 23.4803 36.5024 22.2617 34.9992 22.2617C33.4959 22.2617 32.2773 23.4803 32.2773 24.9835C32.2773 26.4868 33.4959 27.7054 34.9992 27.7054Z" fill="#80DEEA"></path>
  <rect x="0.5" y="0.5" width="69" height="49" rx="2.5" stroke="#EEEEEE"></rect>
</svg>
