<?xml version="1.0" encoding="UTF-8"?>
<svg xmlns="http://www.w3.org/2000/svg" width="84" height="80" viewBox="0 0 84 80" fill="none">
  <g clip-path="url(#clip0_1561_1455)">
    <path d="M16.8391 21.9971C22.1757 21.9971 26.5337 17.6522 26.5337 12.3026C26.5337 6.96606 22.1757 2.62109 16.8391 2.62109C11.4895 2.62109 7.14453 6.96606 7.14453 12.3026C7.14453 17.6522 11.4895 21.9971 16.8391 21.9971Z" fill="#34A9FF"></path>
    <path d="M3.13654 55.2809C4.85783 55.2809 6.25843 53.8804 6.25843 52.1591V35.8184H9.13965V52.1591V75.0866C9.13965 76.4217 9.66653 77.6724 10.6231 78.6087C11.915 79.8734 13.8013 80.3198 15.4579 79.7647V59.901H18.3391V79.6993C21.5575 80.6591 24.5376 78.0744 24.537 74.9291V52.1591V35.8184H27.4182V52.1591C27.4182 53.8804 28.8188 55.2809 30.5401 55.2809C32.2698 55.2809 33.6767 53.874 33.6767 52.145V33.1678C33.6767 28.4689 29.8543 24.6465 25.1553 24.6465H8.52134C3.82238 24.6465 0 28.4689 0 33.1678V52.145C1.30479e-07 53.874 1.4068 55.2809 3.13654 55.2809Z" fill="#34A9FF"></path>
    <path d="M76.6 48.7715C76.7336 48.66 81.5585 44.6325 81.2581 44.8832C81.1274 44.7527 72.3618 36.001 72.9205 36.5588C72.809 36.6923 68.7815 41.5172 69.0322 41.2169C68.3015 40.8384 67.5448 40.5252 66.7619 40.2642C66.774 40.1308 67.3454 33.8464 67.3099 34.2361H55.5146C55.5267 34.3695 56.0981 40.6538 56.0627 40.2642C55.2798 40.5252 54.523 40.8384 53.7923 41.2169C53.6808 41.0832 49.6533 36.2584 49.904 36.5588C49.7727 36.6901 43.6509 42.8021 41.5664 44.8832C41.7 44.9947 46.5249 49.0222 46.2245 48.7715C45.8592 49.5152 45.546 50.272 45.2851 51.0548C45.1516 51.0427 38.8543 50.4716 39.2439 50.507V62.2892C39.3774 62.2773 45.6749 61.7197 45.2851 61.7542C45.546 62.524 45.8592 63.2939 46.2245 64.0245C46.091 64.136 41.266 68.1635 41.5664 67.9128C43.1715 69.5147 44.4273 70.7676 45.4001 71.7385C44.6899 71.0302 45.2118 71.5524 49.904 76.2373C50.0158 76.1039 54.0434 71.2922 53.7923 71.5922C54.523 71.9576 55.2798 72.2707 56.0627 72.5317C56.0506 72.6651 55.4792 78.9625 55.5146 78.573H67.3099C67.2978 78.4395 66.7265 72.142 66.7619 72.5317C67.5448 72.2707 68.3015 71.9576 69.0322 71.5922C69.1439 71.7256 73.1716 76.5373 72.9205 76.2373C73.0511 76.107 79.1738 69.9939 81.2581 67.9128C81.1246 67.8013 76.2996 63.7738 76.6 64.0245C76.9653 63.2939 77.2915 62.524 77.5394 61.7542C77.6729 61.766 83.9704 62.3236 83.5806 62.2892V50.507C83.4471 50.5191 77.1498 51.0902 77.5394 51.0548C77.2915 50.272 76.9653 49.5152 76.6 48.7715ZM61.4123 65.1336C56.5976 65.1336 52.6832 61.2191 52.6832 56.4044C52.6832 51.5768 56.5976 47.6624 61.4123 47.6624C66.2269 47.6624 70.1544 51.5768 70.1544 56.4044C70.1544 61.2191 66.2269 65.1336 61.4123 65.1336Z" fill="#34A9FF"></path>
    <path d="M44.321 23.1404C46.1922 24.1884 48.2557 24.7223 50.3429 24.7223C51.4693 24.7223 52.6021 24.5668 53.7144 24.2527C56.8923 23.357 59.5312 21.2775 61.1431 18.3978L58.8673 17.1223C57.5944 19.3942 55.5136 21.0347 53.0073 21.7413C50.4983 22.4472 47.8671 22.1356 45.5965 20.8633C43.3239 19.591 41.6834 17.5096 40.9768 15.0033C40.2703 12.4963 40.5818 9.86439 41.8548 7.59248C43.1271 5.32057 45.2085 3.68003 47.7155 2.97348C50.2206 2.26502 52.8518 2.57784 55.1262 3.85141L56.4005 1.5744C50.4588 -1.75574 42.9085 0.370272 39.5777 6.317C37.9646 9.19734 37.5696 12.5339 38.4654 15.7111C39.3611 18.8883 41.4406 21.5272 44.321 23.1404Z" fill="#34A9FF"></path>
    <path d="M47.7982 10.2313L45.9531 12.0763L51.573 17.6962L62.1872 7.08138L60.3421 5.23633L51.573 14.0061L47.7982 10.2313Z" fill="#34A9FF"></path>
  </g>
  <defs>
    <clipPath id="clip0_1561_1455">
      <rect width="84" height="80" fill="white"></rect>
    </clipPath>
  </defs>
</svg>
