<svg xmlns="http://www.w3.org/2000/svg" width="28" height="21" viewBox="0 0 28 21" fill="none"><path d="M24.1402 4.1825C22.8989 3.69287 21.5269 3.64556 20.2549 4.04853C18.9829 4.4515 17.8884 5.28017 17.1555 6.3952L8.84917 18.5522L8.54297 19.0004C8.73347 19.1306 8.87917 19.2301 9.03597 19.3373C9.95187 19.7835 10.9988 19.8811 11.9813 19.6117C12.9638 19.3424 13.8147 18.7245 14.3749 17.8737L20.4993 8.90993C20.7019 8.59973 20.9742 8.34113 21.2946 8.15493C21.6479 7.99243 22.0467 7.95733 22.423 8.05563C22.7992 8.15393 23.1299 8.37953 23.3586 8.69413C23.5958 8.96913 23.7305 9.31763 23.7401 9.68063C23.7497 10.0436 23.6335 10.3987 23.4112 10.6858L17.2256 19.7392C17.3712 19.8387 17.4609 19.8999 17.5393 19.9535C18.4369 20.4617 19.4907 20.62 20.4979 20.398C21.5052 20.176 22.3948 19.5894 22.9957 18.751C24.3583 16.7565 25.721 14.7621 27.076 12.7789C27.4381 12.1968 27.6975 11.5568 27.8428 10.8868C28.1292 9.51123 27.9132 8.07853 27.2339 6.84855C26.5546 5.61855 25.457 4.6727 24.1402 4.1825Z" fill="white"></path><path d="M16.4695 1.17516L16.791 0.704571C16.5557 0.543801 16.3428 0.398351 16.0875 0.338981C15.1671 -0.0554394 14.136 -0.10746 13.1805 0.19233C12.2251 0.492111 11.4085 1.12389 10.8784 1.97343L0.3368 17.4022L0 17.8952C0.2353 18.056 0.436901 18.1938 0.627401 18.3239C1.5382 18.7493 2.5741 18.8227 3.5357 18.53C4.4974 18.2372 5.3167 17.5991 5.836 16.7384C9.4133 11.5347 12.9578 6.34698 16.4695 1.17516Z" fill="white"></path></svg>