<?xml version="1.0" encoding="UTF-8"?>
<svg xmlns="http://www.w3.org/2000/svg" width="70" height="50" viewBox="0 0 70 50" fill="none">
  <path d="M44.2894 16.3986C44.2728 16.2496 44.1404 16.1834 44.041 16.1668C43.9417 16.1503 41.9547 16.1337 41.9547 16.1337C41.9547 16.1337 40.2824 14.5111 40.1168 14.3455C39.9512 14.1799 39.6367 14.2296 39.5042 14.2627C39.5042 14.2627 39.1896 14.362 38.6597 14.5276C38.577 14.2461 38.4445 13.8984 38.2624 13.5507C37.6663 12.4082 36.8053 11.8122 35.7456 11.8122C35.6794 11.8122 35.5966 11.8122 35.5303 11.8287C35.4972 11.7956 35.4641 11.7625 35.431 11.7128C34.9674 11.2161 34.3879 10.9843 33.6924 11.0008C32.3347 11.0339 30.9935 12.0108 29.8842 13.766C29.1059 14.9912 28.5264 16.5311 28.3608 17.7233C26.8044 18.2034 25.7116 18.5346 25.6951 18.5511C24.9168 18.7995 24.8837 18.8161 24.7844 19.5612C24.7016 20.1076 22.6484 36.0195 22.6484 36.0195L39.885 38.9999L47.3525 37.1455C47.3525 37.1455 44.3059 16.5311 44.2894 16.3986ZM37.7987 14.7925C37.4014 14.9084 36.9543 15.0575 36.4576 15.2065C36.441 14.5276 36.3582 13.5673 36.0436 12.7394C37.0868 12.9381 37.5835 14.0971 37.7987 14.7925ZM35.5635 15.488C34.6528 15.7694 33.6759 16.0675 32.6824 16.3821C32.9639 15.3224 33.4937 14.2627 34.1395 13.5673C34.3879 13.3023 34.719 13.0209 35.1164 12.8553C35.4972 13.6335 35.5635 14.7429 35.5635 15.488ZM33.709 11.9115C34.0236 11.9115 34.2885 11.9777 34.5203 12.1268C34.156 12.3089 33.7918 12.5904 33.4606 12.9546C32.5996 13.8819 31.9373 15.3058 31.6724 16.6967C30.8445 16.945 30.0497 17.1934 29.3046 17.4252C29.8014 15.2396 31.6227 11.9777 33.709 11.9115Z" fill="#95BF47"></path>
  <path d="M44.0427 16.1668C43.9434 16.1502 41.9564 16.1337 41.9564 16.1337C41.9564 16.1337 40.2841 14.511 40.1185 14.3454C40.0523 14.2792 39.9695 14.2461 39.8867 14.2461V38.9999L47.3542 37.1454C47.3542 37.1454 44.3076 16.5476 44.2911 16.3986C44.258 16.2496 44.1421 16.1833 44.0427 16.1668Z" fill="#5E8E3E"></path>
  <path d="M35.745 20.0088L34.884 23.2541C34.884 23.2541 33.9237 22.807 32.7647 22.8898C31.0758 22.9892 31.0592 24.0489 31.0758 24.3303C31.1751 25.7874 34.9834 26.102 35.1986 29.4963C35.3642 32.1787 33.7747 34 31.4897 34.1491C28.7411 34.3146 27.2344 32.7085 27.2344 32.7085L27.8139 30.2414C27.8139 30.2414 29.3372 31.3839 30.5459 31.3177C31.3407 31.268 31.6222 30.6223 31.5891 30.1586C31.4731 28.2711 28.3603 28.3704 28.1616 25.2741C27.996 22.658 29.718 20.0088 33.5097 19.7604C34.9999 19.6279 35.745 20.0088 35.745 20.0088Z" fill="white"></path>
  <rect x="0.5" y="0.5" width="69" height="49" rx="2.5" stroke="#EEEEEE"></rect>
</svg>
