<svg width="20" height="21" viewBox="0 0 20 21" fill="none" xmlns="http://www.w3.org/2000/svg">
<path d="M6.97797 0.320304C6.0568 0.445919 4.68551 0.916973 3.90042 1.36709C3.04205 1.88002 1.50327 3.4502 1.03222 4.30856C-0.39141 6.92553 -0.33907 10.0764 1.1683 12.6305C1.67076 13.4784 3.06299 14.8497 3.93182 15.3626C6.75814 17.0166 10.1602 16.8386 12.8923 14.9125L13.3843 14.5671L16.0327 17.1945C18.7125 19.8638 19.194 20.3035 19.4452 20.3035C19.665 20.3035 20 19.9057 20 19.6545C20 19.487 19.1626 18.5867 17.1737 16.5874C15.6244 15.0277 14.3474 13.7192 14.3474 13.6773C14.3474 13.6354 14.5148 13.3737 14.7137 13.1016C15.2685 12.327 15.7919 11.1336 15.9803 10.202C16.2316 8.96676 16.1374 6.92553 15.7814 5.80547C15.1115 3.76423 13.3843 1.82768 11.4373 0.969312C10.1183 0.39358 8.3702 0.131883 6.97797 0.320304ZM9.61587 1.62879C11.5838 2.02657 13.3634 3.37692 14.2217 5.12506C14.7975 6.29746 15.0068 7.14536 15.0068 8.3701C15.0068 13.5622 9.63681 16.8491 4.9472 14.5252C3.36656 13.7506 2.13135 12.2955 1.51374 10.516C1.25205 9.77279 1.22064 9.53203 1.22064 8.3701C1.22064 7.20816 1.26251 6.9674 1.52421 6.17184C2.67568 2.79072 6.04633 0.906505 9.61587 1.62879Z" fill="black"/>
</svg>
