<?xml version="1.0" encoding="UTF-8"?>
<svg xmlns="http://www.w3.org/2000/svg" width="90" height="81" viewBox="0 0 90 81" fill="none">
  <g clip-path="url(#clip0_1561_1434)">
    <path d="M31.1111 42.639C31.1111 37.2686 34.2592 32.639 38.7037 30.602C36.6666 25.9724 32.037 22.8242 26.6666 22.8242H26.1111L19.8148 38.1946L13.5185 22.8242H12.963C5.74074 22.8242 0 28.7501 0 35.7872V42.4538C0 45.0464 2.03704 47.2686 4.81481 47.2686H32.037C31.4815 45.7872 31.1111 44.3057 31.1111 42.639Z" fill="#34A9FF"></path>
    <path d="M19.8148 19.6765C25.2353 19.6765 29.6296 15.2823 29.6296 9.86168C29.6296 4.44111 25.2353 0.046875 19.8148 0.046875C14.3942 0.046875 10 4.44111 10 9.86168C10 15.2823 14.3942 19.6765 19.8148 19.6765Z" fill="#34A9FF"></path>
    <path d="M75.9266 22.6387H75.3711L69.0748 38.0091L62.7785 22.6387H62.2229C56.8526 22.6387 52.4081 25.7869 50.3711 30.4165C55.0007 32.4535 58.1489 37.2683 58.1489 42.6387C58.1489 44.3054 57.9637 45.7868 57.4081 47.2683H84.4451C87.0377 47.2683 89.2599 45.2313 89.2599 42.4535V35.7869C88.8896 28.5646 82.9637 22.6387 75.9266 22.6387Z" fill="#34A9FF"></path>
    <path d="M69.0726 19.6765C74.4931 19.6765 78.8874 15.2823 78.8874 9.86168C78.8874 4.44111 74.4931 0.046875 69.0726 0.046875C63.652 0.046875 59.2578 4.44111 59.2578 9.86168C59.2578 15.2823 63.652 19.6765 69.0726 19.6765Z" fill="#34A9FF"></path>
    <path d="M51.4831 55.416H50.9275L44.6313 70.7863L38.335 55.416H37.7794C30.5572 55.416 24.8164 61.1567 24.8164 68.3789V75.2308C24.8164 77.8234 26.8535 80.0456 29.6313 80.0456H60.0016C62.5942 80.0456 64.8164 78.0085 64.8164 75.2308V68.5641C64.446 61.3419 58.5201 55.416 51.4831 55.416Z" fill="#34A9FF"></path>
    <path d="M44.6312 52.4538C50.0518 52.4538 54.446 48.0596 54.446 42.639C54.446 37.2184 50.0518 32.8242 44.6312 32.8242C39.2106 32.8242 34.8164 37.2184 34.8164 42.639C34.8164 48.0596 39.2106 52.4538 44.6312 52.4538Z" fill="#34A9FF"></path>
  </g>
  <defs>
    <clipPath id="clip0_1561_1434">
      <rect width="90" height="81" fill="white"></rect>
    </clipPath>
  </defs>
</svg>
