<?xml version="1.0" encoding="UTF-8"?>
<svg xmlns="http://www.w3.org/2000/svg" width="75" height="80" viewBox="0 0 75 80" fill="none">
  <g clip-path="url(#clip0_1561_1475)">
    <path d="M37.0584 17.2344C24.5082 17.2344 14.3164 27.4262 14.3164 39.9764C14.3164 52.5266 24.5082 62.7184 37.0584 62.7184C49.6086 62.7184 59.8003 52.5266 59.8003 39.9764C59.8003 27.4262 49.6086 17.2344 37.0584 17.2344ZM46.9132 42.1663H37.0584C35.8791 42.1663 34.8684 41.2398 34.8684 39.9764V28.4369C34.8684 27.2577 35.7949 26.247 37.0584 26.247C38.2376 26.247 39.2483 27.1735 39.2483 28.4369V37.8706H46.9132C48.0924 37.8706 49.1032 38.7972 49.1032 40.0606C49.1032 41.324 48.0924 42.1663 46.9132 42.1663Z" fill="#34A9FF"></path>
    <path d="M14.3171 17.2334C22.7401 8.81041 35.1218 5.69392 46.577 9.23156L47.1666 9.40002L46.0716 12.6007C45.819 13.443 45.9874 14.2853 46.577 14.8749C47.1666 15.4645 48.0089 15.7172 48.8512 15.5488L59.5484 13.0219C60.3064 12.8534 60.9803 12.2638 61.233 11.5058C61.4857 10.7477 61.3172 9.90539 60.8118 9.31579L53.7365 0.808604C53.1469 0.134767 52.3889 -0.117921 51.5466 0.0505376C50.7043 0.218997 50.0304 0.808604 49.7777 1.56667L48.767 4.68316L48.2616 4.5147C44.5555 3.33549 40.8494 2.83011 37.1433 2.83011C27.4569 2.83011 17.939 6.62044 10.8637 13.6957C-0.591521 25.1509 -3.28686 43.0918 4.20956 57.4109C4.54648 58.0005 5.13609 58.5058 5.80993 58.6743C6.48376 58.8428 7.1576 58.7585 7.66298 58.5058C8.84219 57.832 9.26334 56.3159 8.67373 55.1367C2.10383 42.6707 4.46225 27.1725 14.3171 17.2334Z" fill="#34A9FF"></path>
    <path d="M69.9911 22.5405C69.6542 21.9509 69.0646 21.4455 68.3907 21.2771C67.7169 21.1086 67.0431 21.1928 66.5377 21.4455C65.3585 22.1194 64.9373 23.6355 65.5269 24.8147C72.0968 37.1964 69.7384 52.7789 59.8836 62.6338C51.4606 71.0567 39.0789 74.1732 27.6236 70.6356L27.034 70.5513L28.129 67.3506C28.3817 66.5083 28.2133 65.666 27.6236 65.0764C27.2025 64.5711 26.5287 64.3184 25.9391 64.3184C25.7706 64.3184 25.6021 64.3184 25.3495 64.4026L14.6523 66.9295C13.8942 67.0979 13.2204 67.6875 12.9677 68.4456C12.715 69.2037 12.8835 70.046 13.3889 70.6356L20.4641 79.1428C21.0537 79.8166 21.896 80.0693 22.6541 79.9851C23.4964 79.8166 24.1702 79.227 24.4229 78.4689L25.4337 75.3524L25.9391 75.5209C39.1631 79.6481 53.5663 76.1105 63.337 66.3399C74.9607 54.632 77.656 37.1122 69.9911 22.5405Z" fill="#34A9FF"></path>
  </g>
  <defs>
    <clipPath id="clip0_1561_1475">
      <rect width="75" height="80" fill="white"></rect>
    </clipPath>
  </defs>
</svg>
