<?xml version="1.0" encoding="UTF-8"?>
<svg xmlns="http://www.w3.org/2000/svg" width="69" height="81" viewBox="0 0 69 81" fill="none">
  <g clip-path="url(#clip0_1561_1447)">
    <path d="M10.6579 30.7007H14.1096V45.7704C15.0357 45.9388 15.9618 46.4439 16.7195 47.1174L26.5695 56.1256H41.7234L51.5735 47.0333C52.3312 46.3597 53.1731 45.9388 54.1833 45.6862V30.7007H57.635C60.4132 30.7007 61.8444 27.3332 59.8239 25.3127L36.4196 1.82408C35.1567 0.561246 33.2204 0.561246 31.9576 1.82408L8.3848 25.3127C6.44847 27.3332 7.79548 30.7007 10.6579 30.7007ZM35.1567 34.1524H33.3888C29.5161 34.1524 26.1486 31.29 25.896 27.4174C25.6435 23.6289 28.2533 20.4297 31.7892 19.7562V16.8938C31.7892 16.6412 31.9576 16.4729 32.2101 16.4729H35.9144C36.167 16.4729 36.3354 16.6412 36.3354 16.8938V19.8404C39.5345 20.4297 42.0602 23.1238 42.2286 26.4913C42.2286 26.7439 42.0602 26.9964 41.8076 26.9964H38.0191C37.8508 26.9964 37.5982 26.828 37.5982 26.6597C37.4298 25.3968 36.3354 24.3866 34.9884 24.3866H33.052C31.7892 24.3866 30.6106 25.2285 30.358 26.4913C30.0212 28.1751 31.2841 29.6063 32.9678 29.6063H34.9884C39.1136 29.6063 42.4811 33.1422 42.2286 37.3516C42.0602 40.6349 39.4503 43.2448 36.3354 43.9183V46.7807C36.3354 47.0333 36.167 47.2016 35.9144 47.2016H32.2101C31.9576 47.2016 31.7892 47.0333 31.7892 46.7807V43.9183C28.59 43.329 26.0644 40.5507 25.896 37.2674C25.896 37.0148 26.0644 36.7623 26.317 36.7623H30.1054C30.2738 36.7623 30.5264 36.9306 30.5264 37.099C30.6948 38.3619 31.7892 39.3721 33.1362 39.3721H34.9884C36.2512 39.3721 37.4298 38.5302 37.6824 37.2674C38.0191 35.6678 36.7563 34.1524 35.1567 34.1524Z" fill="#34A9FF"></path>
    <path d="M24.7191 58.7348L14.6165 49.4741C14.1956 49.0532 13.5221 48.8006 12.9328 48.8848C12.3435 48.8848 11.7541 49.2215 11.3332 49.6425C10.6597 50.4002 10.5755 51.5788 11.1648 52.5049L11.5016 53.01C13.1853 55.5357 15.0375 57.8087 17.058 59.9976L18.9943 62.0182C19.2469 62.3549 19.4153 62.6917 19.4153 63.1126C19.4153 63.5336 19.2469 63.8703 18.9101 64.2071C18.5734 64.4596 18.2366 64.628 17.8157 64.628C17.3948 64.628 16.9738 64.4596 16.7212 64.1229L14.7849 62.1023C12.5118 59.7451 10.4913 57.1352 8.72335 54.4412L8.55497 54.1045C7.20796 52.0839 7.37634 49.3899 8.97592 47.5378C9.14429 47.3694 9.31267 47.201 9.39686 47.0326L5.18744 39.1189C4.68231 38.1929 3.67205 37.6035 2.66179 37.6877C1.90409 37.6877 1.1464 38.0245 0.641267 38.6138C0.136136 39.2031 -0.116429 39.9608 0.0519481 40.7185L2.83016 62.0182C3.08273 64.0387 4.09299 65.8066 5.69257 67.0695L13.7747 73.6362C14.2798 74.0571 14.6165 74.6464 14.7007 75.2357L15.29 79.9503C15.3742 80.3712 15.711 80.708 16.2161 80.708H28.2551C28.7602 80.708 29.1811 80.2028 29.1811 79.6977L26.8239 62.4391C26.5713 61.0921 25.8136 59.7451 24.7191 58.7348Z" fill="#34A9FF"></path>
    <path d="M67.6539 38.7816C67.1488 38.1923 66.4752 37.8555 65.6334 37.8555C64.6231 37.8555 63.6128 38.3607 63.1077 39.2867L58.8983 47.2004C59.0667 47.3688 59.235 47.5372 59.3192 47.7056C60.9188 49.5577 61.0872 52.2517 59.7402 54.2723L59.5718 54.609C57.8038 57.3872 55.6991 59.9129 53.5102 62.2702L51.7423 64.2065C51.4897 64.5432 51.0688 64.7116 50.6478 64.7116C50.2269 64.7116 49.8059 64.5433 49.5534 64.2907C49.2166 64.0381 49.0482 63.6172 49.0482 63.1962C49.0482 62.7753 49.2166 62.3543 49.4692 62.1018L51.4055 60.0813C53.426 57.8924 55.2782 55.5351 56.962 53.0936L57.2987 52.5885C57.888 51.6624 57.8038 50.568 57.1303 49.7261C56.7094 49.221 56.1201 48.9684 55.5308 48.9684C54.8572 48.9684 54.2679 49.1368 53.847 49.5577L43.7444 58.8184C42.6499 59.8287 41.8922 61.1757 41.6397 62.6911L39.1982 79.8655C39.114 80.3707 39.535 80.8758 40.1243 80.8758H52.2474C52.6683 80.8758 53.0893 80.539 53.1735 80.1181L53.7628 75.4035C53.847 74.73 54.1837 74.2249 54.6889 73.804L62.771 67.2373C64.2863 65.9745 65.2966 64.2065 65.6334 62.186L68.3274 40.8863C68.4116 40.1286 68.159 39.3709 67.6539 38.7816Z" fill="#34A9FF"></path>
  </g>
  <defs>
    <clipPath id="clip0_1561_1447">
      <rect width="69" height="81" fill="white"></rect>
    </clipPath>
  </defs>
</svg>
