<?xml version="1.0" encoding="UTF-8"?>
<svg xmlns="http://www.w3.org/2000/svg" width="58" height="27" viewBox="0 0 58 27" fill="none">
  <path d="M16.4883 13.9214C16.4883 16.7033 15.3213 17.8568 13.245 17.8568C11.1688 17.8568 10.0017 16.7033 10.0017 13.9214V5.7793H6.58203V14.0436C6.58203 18.3589 9.06539 20.7473 13.2314 20.7473C17.3975 20.7473 19.8673 18.3589 19.8673 14.0436V8.73761L16.4883 10.1896V13.9214Z" fill="black"></path>
  <path d="M16.4844 5.7793V9.55182L19.8634 8.09981V5.7793H16.4844Z" fill="#104FF5"></path>
  <path d="M22.608 26.5127H3.85395C3.34784 26.5127 2.84669 26.4131 2.37911 26.2194C1.91153 26.0257 1.48667 25.7418 1.1288 25.3839C0.770924 25.0261 0.487044 24.6012 0.293365 24.1336C0.099686 23.6661 0 23.1649 0 22.6588V3.89116C0.00359079 2.87138 0.411218 1.8946 1.13358 1.17478C1.85595 0.454956 2.83416 0.0507749 3.85395 0.0507813H22.608C23.6254 0.0543575 24.6002 0.46012 25.3196 1.17956C26.039 1.89899 26.4448 2.87373 26.4484 3.89116V22.6588C26.4448 23.6775 26.0395 24.6536 25.3205 25.3752C24.6014 26.0968 23.6267 26.5056 22.608 26.5127ZM3.85395 1.19068C3.13414 1.19068 2.44381 1.47663 1.93483 1.98561C1.42585 2.49459 1.1399 3.18492 1.1399 3.90473V22.6588C1.1399 23.3786 1.42585 24.0689 1.93483 24.5779C2.44381 25.0869 3.13414 25.3728 3.85395 25.3728H22.608C23.3278 25.3728 24.0181 25.0869 24.5271 24.5779C25.0361 24.0689 25.3221 23.3786 25.3221 22.6588V3.89116C25.3221 3.17135 25.0361 2.48102 24.5271 1.97204C24.0181 1.46305 23.3278 1.17711 22.608 1.17711L3.85395 1.19068Z" fill="black"></path>
  <path d="M53.9995 7.0243C52.7582 6.53467 51.3862 6.48736 50.1142 6.89033C48.8422 7.2933 47.7477 8.12197 47.0148 9.237L38.7085 21.394L38.4023 21.8422C38.5928 21.9724 38.7385 22.0719 38.8953 22.1791C39.8112 22.6253 40.8581 22.7229 41.8406 22.4535C42.8231 22.1842 43.674 21.5663 44.2342 20.7155L50.3586 11.7517C50.5612 11.4415 50.8335 11.1829 51.1539 10.9967C51.5072 10.8342 51.906 10.7991 52.2823 10.8974C52.6585 10.9957 52.9892 11.2213 53.2179 11.5359C53.4551 11.8109 53.5898 12.1594 53.5994 12.5224C53.609 12.8854 53.4928 13.2405 53.2705 13.5276L47.0849 22.581C47.2305 22.6805 47.3202 22.7417 47.3986 22.7953C48.2962 23.3035 49.35 23.4618 50.3572 23.2398C51.3645 23.0178 52.2541 22.4312 52.855 21.5928C54.2176 19.5983 55.5803 17.6039 56.9353 15.6207C57.2974 15.0386 57.5568 14.3986 57.7021 13.7286C57.9885 12.353 57.7725 10.9203 57.0932 9.69035C56.4139 8.46035 55.3163 7.5145 53.9995 7.0243Z" fill="black"></path>
  <path d="M46.3289 4.01696L46.6504 3.54637C46.4151 3.3856 46.2022 3.24015 45.9469 3.18078C45.0265 2.78636 43.9954 2.73434 43.0399 3.03413C42.0845 3.33391 41.2679 3.96569 40.7378 4.81523L30.1962 20.244L29.8594 20.737C30.0947 20.8978 30.2963 21.0356 30.4868 21.1657C31.3976 21.5911 32.4335 21.6645 33.3951 21.3718C34.3568 21.079 35.1761 20.4409 35.6954 19.5802C39.2727 14.3765 42.8172 9.18878 46.3289 4.01696Z" fill="black"></path>
</svg>
