<?xml version="1.0" encoding="UTF-8"?>
<svg xmlns="http://www.w3.org/2000/svg" width="744" height="724" viewBox="0 0 744 724" fill="none">
  <g opacity="0.05">
    <path d="M733.341 184.547C785.167 -3.58904 593.183 -22.739 454.635 34.0683C373.798 63.2835 320.712 -27.5737 220.571 8.68627C120.43 44.9463 240.478 159.165 87.2503 217.786C-65.9774 276.406 8.82693 538.686 142.75 541.708C276.674 544.73 239.875 588.846 373.798 689.77C507.722 790.693 733.34 650.488 677.237 502.426C621.134 354.365 677.238 388.207 733.341 184.547Z" stroke="black" stroke-width="3"></path>
    <path d="M445.106 330.963C451.086 313.045 423.077 284.137 400.556 296.474C379.932 307.771 358.931 300.152 345.056 305.188C308.528 318.447 321.964 325.466 305.636 341.213C285.766 360.375 276.284 410.553 321.964 410.553C359.534 410.553 348.293 428.833 376.425 436.933C404.558 445.032 436.462 431.245 436.462 394.947C436.462 381.316 435.146 360.808 445.106 330.963Z" stroke="black" stroke-width="3"></path>
    <path d="M707.141 196.944C754.8 24.2818 577.723 4.2448 449.722 57.0094C374.36 84.5957 324.19 1.30552 231.891 34.727C137.533 68.896 247.89 173.37 107.107 228.092C-33.997 283.126 33.1451 526.124 159.046 528.871C284.21 531.618 249.735 573.385 374.041 665.87C498.347 758.356 706.355 629.643 655.352 491.741C604.35 355.901 655.233 384.803 707.141 196.944Z" stroke="black" stroke-width="3"></path>
    <path d="M680.942 209.341C724.432 52.1532 562.262 31.2291 444.81 79.9509C374.921 105.908 327.668 30.1852 243.212 60.7682C154.637 92.8462 255.301 187.574 126.964 238.399C-2.01694 289.846 57.4627 513.562 175.342 516.034C291.746 518.506 259.594 557.925 374.283 641.972C488.972 726.018 679.37 608.798 633.467 481.057C587.565 357.437 633.229 381.398 680.942 209.341Z" stroke="black" stroke-width="3"></path>
    <path d="M654.742 221.739C694.064 80.0253 546.801 58.2141 439.897 102.893C375.482 127.222 331.146 59.0657 254.532 86.8102C171.74 116.797 262.712 201.78 146.821 248.707C29.9633 296.566 81.7806 501.001 191.638 503.198C299.283 505.396 269.454 542.466 374.525 618.074C479.597 693.682 652.384 587.954 611.582 470.373C570.78 358.975 611.224 377.995 654.742 221.739Z" stroke="black" stroke-width="3"></path>
    <path d="M628.542 234.137C663.696 107.898 531.34 85.2001 434.983 125.836C376.042 148.536 334.623 87.947 265.852 112.853C188.843 140.749 270.123 215.986 166.677 259.016C61.9429 303.288 106.098 488.44 207.933 490.363C306.818 492.286 279.313 527.007 374.767 594.177C470.221 661.346 625.398 567.111 589.696 459.691C553.995 360.513 589.218 374.592 628.542 234.137Z" stroke="black" stroke-width="3"></path>
    <path d="M602.341 247.164C633.328 136.399 515.879 112.814 430.07 149.408C376.603 170.478 338.1 117.457 277.171 139.524C205.946 165.329 277.534 230.821 186.533 269.953C93.9224 310.638 130.415 476.508 224.228 478.156C314.354 479.804 289.172 512.177 375.009 570.908C460.846 629.639 598.412 546.896 567.811 449.636C537.209 362.679 567.213 371.817 602.341 247.164Z" stroke="black" stroke-width="3"></path>
    <path d="M576.141 260.934C602.96 165.644 500.417 141.171 425.156 173.722C377.163 193.164 341.577 147.709 288.491 166.938C223.048 190.652 284.944 246.398 206.389 281.633C125.902 318.731 154.732 465.319 240.522 466.692C321.889 468.066 299.031 498.09 375.25 548.382C451.469 598.674 571.426 527.424 545.924 440.324C520.423 365.589 545.207 369.786 576.141 260.934Z" stroke="black" stroke-width="3"></path>
    <path d="M549.939 274.745C572.591 194.929 484.955 169.57 420.242 198.078C377.722 215.89 345.054 178.003 299.809 194.393C240.15 216.016 292.354 262.017 226.244 293.354C157.88 326.865 179.048 454.171 256.817 455.27C329.424 456.369 308.889 484.044 375.491 525.897C442.093 567.751 544.439 507.994 524.038 431.054C503.636 368.539 523.201 367.795 549.939 274.745Z" stroke="black" stroke-width="3"></path>
    <path d="M523.737 288.616C542.22 224.274 469.491 198.028 415.326 222.493C378.281 238.677 348.529 208.356 311.127 221.908C257.25 241.44 299.762 277.695 246.098 305.135C189.857 335.059 203.363 443.083 273.109 443.907C336.957 444.731 318.746 470.057 375.73 503.472C432.715 536.888 517.45 488.623 502.15 421.844C486.849 371.55 501.193 365.865 523.737 288.616Z" stroke="black" stroke-width="3"></path>
    <path d="M497.533 302.574C511.848 253.707 454.026 226.573 410.409 246.996C378.837 261.551 352.002 238.797 322.443 249.511C274.349 266.952 307.169 293.461 265.95 317.004C221.833 343.34 227.676 432.082 289.401 432.631C344.489 433.181 328.601 456.158 375.968 481.135C423.335 506.112 490.46 469.339 480.26 412.72C470.059 374.647 479.183 364.022 497.533 302.574Z" stroke="black" stroke-width="3"></path>
    <path d="M471.324 316.665C481.472 283.272 438.557 255.252 405.487 271.631C379.39 284.557 355.472 269.371 333.754 277.246C291.444 292.596 314.572 309.36 285.798 329.005C253.805 351.754 251.986 421.214 305.688 421.489C352.017 421.764 338.452 442.392 376.202 458.93C413.952 475.468 463.466 450.189 458.366 403.73C453.266 377.878 457.17 362.311 471.324 316.665Z" stroke="black" stroke-width="3"></path>
  </g>
</svg>
