<?xml version="1.0" encoding="UTF-8"?>
<svg xmlns="http://www.w3.org/2000/svg" width="96" height="79" viewBox="0 0 96 79" fill="none">
  <g clip-path="url(#clip0_1614_1520)">
    <path fill-rule="evenodd" clip-rule="evenodd" d="M1 77.9091H95V1H1V77.9091Z" stroke="#141414" stroke-width="2"></path>
    <path d="M1 13.8184H95" stroke="#141414" stroke-width="2"></path>
    <path d="M7.41016 7.4082H11.6829" stroke="#141414" stroke-width="2"></path>
    <path d="M15.9531 7.4082H20.2259" stroke="#141414" stroke-width="2"></path>
    <path d="M24.5 7.4082H28.7727" stroke="#141414" stroke-width="2"></path>
    <path d="M48 32C39.7163 32 33 38.7163 33 47C33 55.2837 39.7163 62 48 62C56.2837 62 63 55.2837 63 47C63 38.7163 56.2837 32 48 32ZM59.355 41.8038C59.3587 41.9238 59.3775 42.0263 59.3775 42.1513C59.3775 43.455 59.1325 44.9225 58.3988 46.76L54.665 57.5562C53.8725 58.0587 53.0213 58.4713 52.1225 58.7863L48.2275 48.1225L44.4887 58.9875C43.6887 58.7525 42.9225 58.4412 42.1975 58.06L36.4338 42.2762C36.7725 41.45 37.195 40.6687 37.6938 39.9412C37.8213 39.9437 37.965 39.9475 38.0775 39.9475C39.4225 39.9475 41.5063 39.7838 41.5063 39.7838C42.2013 39.745 42.2813 40.7625 41.5888 40.845C41.5888 40.845 40.8912 40.9262 40.1162 40.9675L44.8012 54.9063L47.6162 46.46L45.6137 40.965C44.9187 40.9262 44.2637 40.845 44.2637 40.845C43.5687 40.8038 43.6525 39.7425 44.345 39.7838C44.345 39.7838 46.47 39.9475 47.7325 39.9475C49.0775 39.9475 51.1612 39.7838 51.1612 39.7838C51.8562 39.745 51.9362 40.7625 51.2437 40.845C51.2437 40.845 50.545 40.9262 49.7712 40.9675L54.4212 54.8L55.7063 50.5075C56.3588 48.8362 56.685 47.4525 56.685 46.3488C56.685 44.7588 56.115 43.6575 55.6238 42.8012C54.9725 41.74 54.3587 40.8437 54.3587 39.7825C54.3587 38.7212 55.0837 37.7325 56.1475 37.54C57.5025 38.71 58.6 40.1613 59.355 41.8038Z" fill="#34A9FF"></path>
  </g>
  <defs>
    <clipPath id="clip0_1614_1520">
      <rect width="96" height="79" fill="white"></rect>
    </clipPath>
  </defs>
</svg>
