<?xml version="1.0" encoding="UTF-8"?>
<svg xmlns="http://www.w3.org/2000/svg" width="96" height="79" viewBox="0 0 96 79" fill="none">
  <g clip-path="url(#clip0_1614_1461)">
    <path fill-rule="evenodd" clip-rule="evenodd" d="M1 77.9091H95V1H1V77.9091Z" stroke="#141414" stroke-width="2"></path>
    <path d="M1 13.8184H95" stroke="#141414" stroke-width="2"></path>
    <path d="M7.41016 7.4082H11.6829" stroke="#141414" stroke-width="2"></path>
    <path d="M15.9531 7.4082H20.2259" stroke="#141414" stroke-width="2"></path>
    <path d="M24.5 7.4082H28.7727" stroke="#141414" stroke-width="2"></path>
    <path fill-rule="evenodd" clip-rule="evenodd" d="M53.2138 20C54.2958 21.2319 54.653 22.9934 54.3419 24.5822C54.008 26.3668 53.0179 27.9441 51.8552 29.3026C50.9226 30.3964 49.8518 31.3635 48.7351 32.2615C47.4341 33.3092 46.1562 34.4375 45.3387 35.9112C44.6479 37.1086 44.4868 38.5822 44.9588 39.8832C45.7302 42.1168 47.5262 43.7747 48.5048 45.8816C47.4226 44.926 46.3634 43.9359 45.3733 42.8882C44.3371 41.7829 43.3585 40.6086 42.7137 39.227C42.2762 38.2599 42.0805 37.1316 42.4144 36.1069C42.7483 35.0592 43.4966 34.2187 44.245 33.4359C46.3289 31.352 48.8964 29.8207 50.9341 27.7023C52.0625 26.5395 52.995 25.1464 53.3172 23.5461C53.5821 22.3717 53.4555 21.1628 53.2138 20Z" fill="#34A9FF" stroke="#34A9FF" stroke-width="0.5" stroke-linecap="round"></path>
    <path fill-rule="evenodd" clip-rule="evenodd" d="M53.2138 20C54.2958 21.2319 54.653 22.9934 54.3419 24.5822C54.008 26.3668 53.0179 27.9441 51.8552 29.3026C50.9226 30.3964 49.8518 31.3635 48.7351 32.2615C47.4341 33.3092 46.1562 34.4375 45.3387 35.9112C44.6479 37.1086 44.4868 38.5822 44.9588 39.8832C45.7302 42.1168 47.5262 43.7747 48.5048 45.8816C47.4226 44.926 46.3634 43.9359 45.3733 42.8882C44.3371 41.7829 43.3585 40.6086 42.7137 39.227C42.2762 38.2599 42.0805 37.1316 42.4144 36.1069C42.7483 35.0592 43.4966 34.2187 44.245 33.4359C46.3289 31.352 48.8964 29.8207 50.9341 27.7023C52.0625 26.5395 52.995 25.1464 53.3172 23.5461C53.5821 22.3717 53.4555 21.1628 53.2138 20Z" stroke="#34A9FF" stroke-width="0.5" stroke-linecap="round"></path>
    <path fill-rule="evenodd" clip-rule="evenodd" d="M51.5085 33.1141C53.7421 31.4677 56.3554 30.42 59.0035 29.6602C56.9082 30.9957 54.7207 32.2161 52.913 33.9315C52.2569 34.5648 51.6351 35.2901 51.3472 36.1766C51.1285 36.8329 51.2207 37.5582 51.4856 38.1799C51.969 39.2852 52.7864 40.1832 53.4082 41.1963C53.9377 42.0598 54.0299 43.1651 53.6269 44.0977C53.0166 45.4677 51.8193 46.4694 50.576 47.2638C50.4148 47.3559 50.2767 47.5286 50.0808 47.5516C50.91 46.8033 51.5546 45.744 51.5314 44.6042C51.5085 43.7523 51.0365 43.0039 50.4837 42.3937C49.3439 41.0352 48.3885 39.3082 48.5842 37.4776C48.78 35.647 50.0923 34.1733 51.5085 33.1141Z" fill="#34A9FF" stroke="#34A9FF" stroke-width="0.5" stroke-linecap="round"></path>
    <path fill-rule="evenodd" clip-rule="evenodd" d="M51.5085 33.1141C53.7421 31.4677 56.3554 30.42 59.0035 29.6602C56.9082 30.9957 54.7207 32.2161 52.913 33.9315C52.2569 34.5648 51.6351 35.2901 51.3472 36.1766C51.1285 36.8329 51.2207 37.5582 51.4856 38.1799C51.969 39.2852 52.7864 40.1832 53.4082 41.1963C53.9377 42.0598 54.0299 43.1651 53.6269 44.0977C53.0166 45.4677 51.8193 46.4694 50.576 47.2638C50.4148 47.3559 50.2767 47.5286 50.0808 47.5516C50.91 46.8033 51.5546 45.744 51.5314 44.6042C51.5085 43.7523 51.0365 43.0039 50.4837 42.3937C49.3439 41.0352 48.3885 39.3082 48.5842 37.4776C48.78 35.647 50.0923 34.1733 51.5085 33.1141Z" stroke="#34A9FF" stroke-width="0.5" stroke-linecap="round"></path>
    <path fill-rule="evenodd" clip-rule="evenodd" d="M59.4302 46.4227C59.9137 45.8355 60.6849 45.6858 61.3875 45.5937C62.6077 45.4325 63.9086 45.7434 64.8297 46.5839C65.5898 47.2631 66.0156 48.3224 65.8543 49.347C65.6816 50.5329 64.8872 51.523 63.9893 52.2714C62.3661 53.5723 60.3627 54.3322 58.3594 54.8389C58.4745 54.712 58.601 54.5969 58.7508 54.5049C60.2704 53.6875 61.7787 52.7319 62.8956 51.3964C63.575 50.5674 64.1044 49.4852 63.8857 48.3914C63.6554 47.125 62.4236 46.2039 61.1686 46.1348C60.5698 46.0773 60.0059 46.3075 59.4302 46.4227Z" fill="#34A9FF" stroke="#34A9FF" stroke-width="0.5" stroke-linecap="round"></path>
    <path fill-rule="evenodd" clip-rule="evenodd" d="M59.4302 46.4227C59.9137 45.8355 60.6849 45.6858 61.3875 45.5937C62.6077 45.4325 63.9086 45.7434 64.8297 46.5839C65.5898 47.2631 66.0156 48.3224 65.8543 49.347C65.6816 50.5329 64.8872 51.523 63.9893 52.2714C62.3661 53.5723 60.3627 54.3322 58.3594 54.8389C58.4745 54.712 58.601 54.5969 58.7508 54.5049C60.2704 53.6875 61.7787 52.7319 62.8956 51.3964C63.575 50.5674 64.1044 49.4852 63.8857 48.3914C63.6554 47.125 62.4236 46.2039 61.1686 46.1348C60.5698 46.0773 60.0059 46.3075 59.4302 46.4227Z" stroke="#34A9FF" stroke-width="0.5" stroke-linecap="round"></path>
    <path fill-rule="evenodd" clip-rule="evenodd" d="M36.288 47.4695C38.4064 46.5599 40.7089 45.9728 43.0232 46.0073C41.6761 46.3988 40.2946 46.7326 39.0281 47.3313C38.7288 47.4925 38.3834 47.6422 38.2107 47.953C38.1185 48.1948 38.3719 48.356 38.5561 48.4366C39.339 48.7589 40.2025 48.805 41.0429 48.8856C43.9903 49.0813 46.9492 48.9662 49.885 48.782C52.7862 48.5978 55.6645 48.2063 58.5314 47.7458C57.8982 48.0451 57.2534 48.3445 56.6664 48.7244C56.3668 48.9316 55.9985 48.9892 55.6645 49.0698C52.1416 49.8527 48.5265 50.0945 44.9344 50.152C43.5413 50.1636 42.1597 50.1405 40.7781 50.0484C39.2354 49.9448 37.6811 49.8297 36.1729 49.4267C35.7354 49.3001 35.2748 49.1619 34.9294 48.8511C34.7567 48.7129 34.7567 48.4366 34.9064 48.2754C35.2863 47.8839 35.8159 47.6997 36.288 47.4695Z" fill="#34A9FF" stroke="#34A9FF" stroke-width="0.5" stroke-linecap="round"></path>
    <path fill-rule="evenodd" clip-rule="evenodd" d="M36.288 47.4695C38.4064 46.5599 40.7089 45.9728 43.0232 46.0073C41.6761 46.3988 40.2946 46.7326 39.0281 47.3313C38.7288 47.4925 38.3834 47.6422 38.2107 47.953C38.1185 48.1948 38.3719 48.356 38.5561 48.4366C39.339 48.7589 40.2025 48.805 41.0429 48.8856C43.9903 49.0813 46.9492 48.9662 49.885 48.782C52.7862 48.5978 55.6645 48.2063 58.5314 47.7458C57.8982 48.0451 57.2534 48.3445 56.6664 48.7244C56.3668 48.9316 55.9985 48.9892 55.6645 49.0698C52.1416 49.8527 48.5265 50.0945 44.9344 50.152C43.5413 50.1636 42.1597 50.1405 40.7781 50.0484C39.2354 49.9448 37.6811 49.8297 36.1729 49.4267C35.7354 49.3001 35.2748 49.1619 34.9294 48.8511C34.7567 48.7129 34.7567 48.4366 34.9064 48.2754C35.2863 47.8839 35.8159 47.6997 36.288 47.4695Z" stroke="#34A9FF" stroke-width="0.5" stroke-linecap="round"></path>
    <path fill-rule="evenodd" clip-rule="evenodd" d="M39.0076 52.3866C39.6063 51.9146 40.3201 51.6498 41.0339 51.3965C40.8037 51.6728 40.4813 51.9376 40.4583 52.3175C40.4468 52.5593 40.6425 52.7435 40.8382 52.8587C41.2182 53.0544 41.6441 53.1235 42.0701 53.181C44.2807 53.4113 46.5142 53.5379 48.7478 53.3883C50.7855 53.2846 52.812 52.9508 54.8268 52.5939C55.3792 53.1119 56.0357 53.4689 56.7265 53.7797C54.297 54.4935 51.7987 54.908 49.2888 55.1036C46.9172 55.2649 44.5109 55.2534 42.1507 54.8733C41.2182 54.7006 40.2626 54.505 39.4106 54.0675C39.0652 53.8833 38.6737 53.6416 38.5701 53.2386C38.501 52.8932 38.7543 52.5823 39.0076 52.3866Z" fill="#34A9FF" stroke="#34A9FF" stroke-width="0.5" stroke-linecap="round"></path>
    <path fill-rule="evenodd" clip-rule="evenodd" d="M39.0076 52.3866C39.6063 51.9146 40.3201 51.6498 41.0339 51.3965C40.8037 51.6728 40.4813 51.9376 40.4583 52.3175C40.4468 52.5593 40.6425 52.7435 40.8382 52.8587C41.2182 53.0544 41.6441 53.1235 42.0701 53.181C44.2807 53.4113 46.5142 53.5379 48.7478 53.3883C50.7855 53.2846 52.812 52.9508 54.8268 52.5939C55.3792 53.1119 56.0357 53.4689 56.7265 53.7797C54.297 54.4935 51.7987 54.908 49.2888 55.1036C46.9172 55.2649 44.5109 55.2534 42.1507 54.8733C41.2182 54.7006 40.2626 54.505 39.4106 54.0675C39.0652 53.8833 38.6737 53.6416 38.5701 53.2386C38.501 52.8932 38.7543 52.5823 39.0076 52.3866Z" stroke="#34A9FF" stroke-width="0.5" stroke-linecap="round"></path>
    <path fill-rule="evenodd" clip-rule="evenodd" d="M40.3406 57.407C40.8702 56.9811 41.5265 56.7623 42.1712 56.5781C41.964 56.7737 41.5955 57.0155 41.7567 57.3494C42.0676 57.7524 42.6432 57.7985 43.1038 57.9021C45.0495 58.1439 47.0182 58.3051 48.964 58.1553C50.4375 58.0634 51.8884 57.7985 53.3276 57.5453C54.1564 58.0288 55.0199 58.4431 55.9063 58.8118C54.5478 59.4218 53.0856 59.8133 51.6235 60.0896C49.1596 60.527 46.6153 60.5846 44.1399 60.1934C43.0462 59.9974 41.9294 59.7442 40.9393 59.203C40.5594 58.9845 40.1564 58.731 39.9952 58.3051C39.8686 57.9712 40.0758 57.6143 40.3406 57.407Z" fill="#34A9FF" stroke="#34A9FF" stroke-width="0.5" stroke-linecap="round"></path>
    <path fill-rule="evenodd" clip-rule="evenodd" d="M40.3406 57.407C40.8702 56.9811 41.5265 56.7623 42.1712 56.5781C41.964 56.7737 41.5955 57.0155 41.7567 57.3494C42.0676 57.7524 42.6432 57.7985 43.1038 57.9021C45.0495 58.1439 47.0182 58.3051 48.964 58.1553C50.4375 58.0634 51.8884 57.7985 53.3276 57.5453C54.1564 58.0288 55.0199 58.4431 55.9063 58.8118C54.5478 59.4218 53.0856 59.8133 51.6235 60.0896C49.1596 60.527 46.6153 60.5846 44.1399 60.1934C43.0462 59.9974 41.9294 59.7442 40.9393 59.203C40.5594 58.9845 40.1564 58.731 39.9952 58.3051C39.8686 57.9712 40.0758 57.6143 40.3406 57.407Z" stroke="#34A9FF" stroke-width="0.5" stroke-linecap="round"></path>
    <path fill-rule="evenodd" clip-rule="evenodd" d="M33.9526 60.6641C35.0118 60.3073 36.1056 60.0194 37.2223 59.9848C37.6713 59.9733 38.1319 59.9962 38.5233 60.2264C37.1878 60.3073 35.8523 60.6409 34.6549 61.2512C34.3901 61.401 34.0908 61.5737 33.9871 61.8845C33.9871 62.2413 34.3901 62.3564 34.6549 62.4715C36.3243 63.0933 38.1088 63.2889 39.8588 63.4734C45.0743 63.9107 50.3242 63.7955 55.5398 63.3236C57.5084 63.1047 59.4889 62.886 61.4 62.345C62.01 62.1376 62.7008 61.9305 63.1038 61.3893C63.3458 61.067 63.1845 60.6641 62.9428 60.3877C63.3341 60.6065 63.8868 60.8829 63.8063 61.4124C63.6565 61.9649 63.0923 62.2528 62.6318 62.5177C61.1583 63.266 59.5347 63.6461 57.9229 63.9797C53.2371 64.9008 48.4361 65.1081 43.6697 64.9701C40.0776 64.8432 36.4855 64.4978 32.9394 63.8877C32.3062 63.738 31.5924 63.6114 31.1319 63.1163C30.8325 62.7709 31.0973 62.2874 31.3852 62.0342C32.1105 61.3664 33.0431 60.9981 33.9526 60.6641Z" fill="#34A9FF" stroke="#34A9FF" stroke-width="0.5" stroke-linecap="round"></path>
    <path fill-rule="evenodd" clip-rule="evenodd" d="M33.9526 60.6641C35.0118 60.3073 36.1056 60.0194 37.2223 59.9848C37.6713 59.9733 38.1319 59.9962 38.5233 60.2264C37.1878 60.3073 35.8523 60.6409 34.6549 61.2512C34.3901 61.401 34.0908 61.5737 33.9871 61.8845C33.9871 62.2413 34.3901 62.3564 34.6549 62.4715C36.3243 63.0933 38.1088 63.2889 39.8588 63.4734C45.0743 63.9107 50.3242 63.7955 55.5398 63.3236C57.5084 63.1047 59.4889 62.886 61.4 62.345C62.01 62.1376 62.7008 61.9305 63.1038 61.3893C63.3458 61.067 63.1845 60.6641 62.9428 60.3877C63.3341 60.6065 63.8868 60.8829 63.8063 61.4124C63.6565 61.9649 63.0923 62.2528 62.6318 62.5177C61.1583 63.266 59.5347 63.6461 57.9229 63.9797C53.2371 64.9008 48.4361 65.1081 43.6697 64.9701C40.0776 64.8432 36.4855 64.4978 32.9394 63.8877C32.3062 63.738 31.5924 63.6114 31.1319 63.1163C30.8325 62.7709 31.0973 62.2874 31.3852 62.0342C32.1105 61.3664 33.0431 60.9981 33.9526 60.6641Z" stroke="#34A9FF" stroke-width="0.5" stroke-linecap="round"></path>
    <path fill-rule="evenodd" clip-rule="evenodd" d="M62.6415 64.6014C63.8046 64.1985 65.0478 63.7726 65.9113 62.8516C65.7618 63.8531 64.8983 64.5439 64.0463 64.993C62.4113 65.845 60.5809 66.2365 58.7617 66.5587C54.9162 67.169 51.0132 67.3186 47.1104 67.2495C44.4509 67.169 41.7683 67.0654 39.1547 66.5126C38.5331 66.3399 37.8653 66.2248 37.3242 65.8565C39.6499 66.2479 42.0101 66.4092 44.3703 66.5011C48.2502 66.6162 52.1417 66.4668 55.9986 65.983C58.2321 65.6723 60.4772 65.2922 62.6415 64.6014Z" fill="#34A9FF" stroke="#34A9FF" stroke-width="0.5" stroke-linecap="round"></path>
    <path fill-rule="evenodd" clip-rule="evenodd" d="M62.6415 64.6014C63.8046 64.1985 65.0478 63.7726 65.9113 62.8516C65.7618 63.8531 64.8983 64.5439 64.0463 64.993C62.4113 65.845 60.5809 66.2365 58.7617 66.5587C54.9162 67.169 51.0132 67.3186 47.1104 67.2495C44.4509 67.169 41.7683 67.0654 39.1547 66.5126C38.5331 66.3399 37.8653 66.2248 37.3242 65.8565C39.6499 66.2479 42.0101 66.4092 44.3703 66.5011C48.2502 66.6162 52.1417 66.4668 55.9986 65.983C58.2321 65.6723 60.4772 65.2922 62.6415 64.6014Z" stroke="#34A9FF" stroke-width="0.5" stroke-linecap="round"></path>
  </g>
  <defs>
    <clipPath id="clip0_1614_1461">
      <rect width="96" height="79" fill="white"></rect>
    </clipPath>
  </defs>
</svg>
