<?xml version="1.0" encoding="UTF-8"?>
<svg xmlns="http://www.w3.org/2000/svg" width="92" height="86" viewBox="0 0 92 86" fill="none">
  <g clip-path="url(#clip0_1614_1434)">
    <path d="M56.2188 78.6961V72.5656H51.4309C50.9936 70.5222 50.3683 69.4575 49.5652 68.0536L54.3939 63.2249L47.1682 56.0012L42.3394 60.8279C40.9356 60.0248 39.4234 59.3995 37.8274 58.9642V52.1309H27.6101V58.9642C26.0141 59.3995 24.5019 60.0248 23.0981 60.8279L18.2693 56.0012L11.0436 63.2249L15.8723 68.0536C15.0692 69.4575 14.4439 70.5222 14.0066 72.5656H9.21875V78.6961" stroke="#34A9FF" stroke-width="2"></path>
    <path d="M25.6797 78.6951C25.6797 74.7451 28.8818 71.543 32.8319 71.543C36.7819 71.543 39.984 74.7451 39.984 78.6951" stroke="#34A9FF" stroke-width="2"></path>
    <path d="M84.8269 25.5645H78.6965V30.3523C76.653 30.7876 75.5884 31.4129 74.1845 32.218L69.3558 27.3893L62.1321 34.615L66.9588 39.4417C66.1557 40.8476 65.5304 41.9123 65.0951 43.9558H58.2617V54.1731H64.3922C64.8274 55.7691 66.1557 57.2813 66.9588 58.6852L62.1321 63.5139L69.3558 70.7376L74.1845 65.9109C75.5884 66.714 76.653 67.3393 78.6965 67.7745V72.5645H84.8269" stroke="#34A9FF" stroke-width="2"></path>
    <path d="M84.8241 56.1033C80.874 56.1033 77.6719 52.9011 77.6719 48.9511C77.6719 44.999 80.874 41.7969 84.8241 41.7969" stroke="#34A9FF" stroke-width="2"></path>
    <path fill-rule="evenodd" clip-rule="evenodd" d="M1.04297 84.8256H90.956V1.04297H1.04297V84.8256Z" stroke="#141414" stroke-width="2"></path>
    <path d="M1.04297 13.3047H90.956" stroke="#141414" stroke-width="2"></path>
    <path d="M7.17188 7.17383H11.2588" stroke="#141414" stroke-width="2"></path>
    <path d="M15.3477 7.17383H19.4346" stroke="#141414" stroke-width="2"></path>
    <path d="M23.5195 7.17383H27.6065" stroke="#141414" stroke-width="2"></path>
  </g>
  <defs>
    <clipPath id="clip0_1614_1434">
      <rect width="92" height="86" fill="white"></rect>
    </clipPath>
  </defs>
</svg>
