<?xml version="1.0" encoding="UTF-8"?>
<svg xmlns="http://www.w3.org/2000/svg" width="72" height="65" viewBox="0 0 72 65" fill="none">
  <g clip-path="url(#clip0_1607_1438)">
    <path fill-rule="evenodd" clip-rule="evenodd" d="M67.9588 63.5005H16.2188C15.8204 63.5018 15.4257 63.4246 15.0571 63.2733C14.6886 63.122 14.3534 62.8996 14.0708 62.6188C13.7883 62.338 13.5638 62.0043 13.4102 61.6367C13.2566 61.2691 13.177 60.8748 13.1758 60.4765V55.9395H36.0018L37.5238 57.4515H46.6538L48.1758 55.9395H71.0018V60.4765C71.0006 60.8748 70.9209 61.2691 70.7674 61.6367C70.6138 62.0043 70.3893 62.338 70.1067 62.6188C69.8241 62.8996 69.489 63.122 69.1205 63.2733C68.7519 63.4246 68.3572 63.5018 67.9588 63.5005Z" stroke="#34A9FF" stroke-width="2" stroke-linejoin="round"></path>
    <path d="M39.043 22.6699H63.391C63.7896 22.6685 64.1845 22.7456 64.5532 22.8969C64.9219 23.0482 65.2572 23.2706 65.5399 23.5516C65.8226 23.8325 66.0472 24.1664 66.2008 24.5342C66.3544 24.902 66.4339 25.2964 66.435 25.6949V55.9399M17.74 55.9389V25.6949C17.7412 25.2966 17.8208 24.9023 17.9744 24.5347C18.128 24.1671 18.3525 23.8334 18.6351 23.5526C18.9176 23.2717 19.2528 23.0494 19.6213 22.8981C19.9899 22.7468 20.3846 22.6696 20.783 22.6709H29.913M14.696 42.3299H4.043C3.64445 42.3313 3.24955 42.254 2.88087 42.1026C2.51219 41.9512 2.17696 41.7286 1.89435 41.4476C1.61174 41.1666 1.3873 40.8326 1.23384 40.4648C1.08038 40.097 1.00092 39.7025 1 39.3039V34.7669H14.696" stroke="#34A9FF" stroke-width="2" stroke-linejoin="round"></path>
    <path d="M5.56641 34.768V4.52402C5.56759 4.12547 5.6473 3.73106 5.80101 3.36333C5.95471 2.99561 6.17938 2.66178 6.46217 2.38094C6.74497 2.10009 7.08034 1.87774 7.44912 1.72659C7.8179 1.57543 8.21285 1.49845 8.61141 1.50002H51.2194C51.6179 1.49858 52.0127 1.57566 52.3814 1.72687C52.7501 1.87809 53.0853 2.10046 53.368 2.38129C53.6507 2.66212 53.8753 2.9959 54.0289 3.36356C54.1825 3.73122 54.2622 4.12556 54.2634 4.52402V19.646" stroke="#34A9FF" stroke-width="2" stroke-linejoin="round"></path>
    <path d="M39.0441 16.6229L34.4791 12.0859M34.4791 12.0859L29.9141 16.6229M34.4791 12.0859V33.2569M39.0441 28.7209L34.4791 33.2569M34.4791 33.2569L29.9141 28.7209" stroke="#34A9FF" stroke-width="2" stroke-linejoin="round"></path>
  </g>
  <defs>
    <clipPath id="clip0_1607_1438">
      <rect width="72" height="64" fill="white" transform="translate(0 0.5)"></rect>
    </clipPath>
  </defs>
</svg>
