<svg width="20" height="21" viewBox="0 0 20 21" fill="none" xmlns="http://www.w3.org/2000/svg">
<path d="M8.70069 0.219124C6.41494 0.49582 4.35777 1.55448 2.72165 3.29887C0.881024 5.2598 0.0629671 7.3651 0.0629671 10.1441C0.0629671 11.696 0.303572 12.9231 0.856964 14.1863L1.27802 15.1246L0.965236 16.3036C0.796813 16.9532 0.508087 18.072 0.315602 18.8059C0.111088 19.5277 -0.0212447 20.1412 0.00281579 20.1653C0.0268763 20.1894 1.20584 19.9127 2.62541 19.5397L5.19989 18.8781L5.72922 19.1307C8.44806 20.442 11.8286 20.3578 14.6075 18.9262C17.8076 17.278 19.7806 14.2103 19.9851 10.5651C20.2738 5.48838 16.3399 0.868758 11.191 0.231154C10.012 0.0867909 9.87966 0.0867909 8.70069 0.219124ZM11.6842 1.96351C14.8121 2.56502 17.5189 5.28386 18.2407 8.54406C19.0226 12.0449 17.0737 15.9427 13.7053 17.6028C12.6947 18.0961 11.0225 18.5051 9.92778 18.5051C8.88114 18.5051 7.29315 18.1081 6.22246 17.5788L5.34425 17.1457L3.84047 17.5427C3.02241 17.7592 2.32466 17.9156 2.30059 17.8916C2.27653 17.8675 2.43293 17.1698 2.6615 16.3517L3.07053 14.8599L2.7818 14.3667C1.32614 11.8404 1.24193 9.00121 2.5412 6.36659C2.98632 5.45229 3.27505 5.05529 4.0931 4.24926C4.89913 3.4312 5.29613 3.14248 6.21043 2.69736C7.96685 1.83118 9.73529 1.59057 11.6842 1.96351Z" fill="white"/>
<path d="M6.01668 5.64473C5.65577 5.82518 5.16253 6.58309 4.99411 7.1846C4.65726 8.44778 5.23471 9.8072 6.94301 11.732C8.23025 13.1877 9.58967 14.102 11.2859 14.6554C13.1747 15.2689 14.7747 14.5591 14.9552 13.0313L15.0153 12.502L13.8845 11.9486C13.2709 11.6478 12.6814 11.4072 12.5732 11.4072C12.4649 11.4072 12.2002 11.6478 11.9837 11.9486C11.4062 12.7546 11.2739 12.7907 10.4558 12.3576C9.04831 11.6117 8.12198 10.7576 7.56858 9.68689C7.40016 9.37411 7.41219 9.32598 7.82122 8.79665C8.04979 8.4959 8.24228 8.17108 8.24228 8.0989C8.24228 7.94251 7.71295 6.59512 7.38813 5.93345C7.24377 5.6327 7.13549 5.57255 6.7385 5.54848C6.47383 5.53645 6.14901 5.57255 6.01668 5.64473Z" fill="white"/>
</svg>
