<?xml version="1.0" encoding="UTF-8"?>
<svg xmlns="http://www.w3.org/2000/svg" width="70" height="50" viewBox="0 0 70 50" fill="none">
  <path d="M35 13C28.373 13 23 18.373 23 25C23 31.627 28.373 37 35 37C41.627 37 47 31.627 47 25C47 18.373 41.627 13 35 13ZM44.084 20.843C44.087 20.939 44.102 21.021 44.102 21.121C44.102 22.164 43.906 23.338 43.319 24.808L40.332 33.445C39.698 33.847 39.017 34.177 38.298 34.429L35.182 25.898L32.191 34.59C31.551 34.402 30.938 34.153 30.358 33.848L25.747 21.221C26.018 20.56 26.356 19.935 26.755 19.353C26.857 19.355 26.972 19.358 27.062 19.358C28.138 19.358 29.805 19.227 29.805 19.227C30.361 19.196 30.425 20.01 29.871 20.076C29.871 20.076 29.313 20.141 28.693 20.174L32.441 31.325L34.693 24.568L33.091 20.172C32.535 20.141 32.011 20.076 32.011 20.076C31.455 20.043 31.522 19.194 32.076 19.227C32.076 19.227 33.776 19.358 34.786 19.358C35.862 19.358 37.529 19.227 37.529 19.227C38.085 19.196 38.149 20.01 37.595 20.076C37.595 20.076 37.036 20.141 36.417 20.174L40.137 31.24L41.165 27.806C41.687 26.469 41.948 25.362 41.948 24.479C41.948 23.207 41.492 22.326 41.099 21.641C40.578 20.792 40.087 20.075 40.087 19.226C40.087 18.377 40.667 17.586 41.518 17.432C42.602 18.368 43.48 19.529 44.084 20.843Z" fill="black"></path>
  <rect x="0.5" y="0.5" width="69" height="49" rx="2.5" stroke="#EEEEEE"></rect>
</svg>
