<?xml version="1.0" encoding="UTF-8"?>
<svg xmlns="http://www.w3.org/2000/svg" width="70" height="65" viewBox="0 0 70 65" fill="none">
  <g clip-path="url(#clip0_1607_1444)">
    <path d="M62.391 49.372H68.478V1H1.522V49.372H7.609M0 64.488H70" stroke="#34A9FF" stroke-width="2"></path>
    <path d="M54.7844 44.8369V40.3019C54.7844 36.9629 52.0584 34.2559 48.6974 34.2559H45.6534C42.2924 34.2559 39.5664 36.9629 39.5664 40.3019V44.8369M27.3924 55.4189V54.0599M27.3924 54.0599C27.3924 49.7999 24.0324 47.8599 19.7844 47.8599C15.5344 47.8599 12.1744 49.7999 12.1744 54.0599V55.4179M27.3924 54.0599C27.3924 49.7999 30.7524 47.8599 35.0014 47.8599C39.2504 47.8599 42.6104 49.7999 42.6104 54.0599M42.6104 55.4189V54.0599M42.6104 54.0599C42.6104 49.7999 45.9704 47.8599 50.2184 47.8599C54.4674 47.8599 57.8274 49.7999 57.8274 54.0599V55.4189M19.7844 64.4879V61.6199C19.7844 57.3599 16.4244 55.4199 12.1744 55.4199C7.92641 55.4199 4.56641 57.3599 4.56641 61.6199V64.4899" stroke="#34A9FF" stroke-width="2"></path>
    <path d="M34.9982 64.4887V61.6207M34.9982 61.6207C34.9982 57.3607 31.6382 55.4207 27.3892 55.4207C23.1412 55.4207 19.7812 57.3607 19.7812 61.6207V64.4907M34.9982 61.6207C34.9982 57.3607 38.3583 55.4207 42.6073 55.4207C46.8553 55.4207 50.2152 57.3607 50.2152 61.6207M34.9982 61.6207V64.4907M50.2152 64.4887V61.6207M50.2152 61.6207C50.2152 57.3607 53.5752 55.4207 57.8242 55.4207C62.0732 55.4207 65.4332 57.3607 65.4332 61.6207V64.4887M50.2152 61.6207V64.4907M47.1722 29.7207C47.7703 29.7251 48.3634 29.611 48.9172 29.3851C49.471 29.1592 49.9746 28.8259 50.3989 28.4044C50.8233 27.9829 51.16 27.4816 51.3897 26.9293C51.6194 26.3771 51.7375 25.7849 51.7372 25.1867V23.6747C51.7375 23.0766 51.6194 22.4844 51.3897 21.9322C51.16 21.3799 50.8233 20.8786 50.3989 20.4571C49.9746 20.0356 49.471 19.7023 48.9172 19.4764C48.3634 19.2505 47.7703 19.1364 47.1722 19.1407C46.5742 19.1364 45.9811 19.2505 45.4273 19.4764C44.8735 19.7023 44.3699 20.0356 43.9456 20.4571C43.5212 20.8786 43.1845 21.3799 42.9548 21.9322C42.7251 22.4844 42.607 23.0766 42.6073 23.6747V25.1867C42.6068 25.7849 42.7249 26.3773 42.9545 26.9296C43.1841 27.482 43.5208 27.9834 43.9452 28.405C44.3696 28.8266 44.8732 29.16 45.4271 29.386C45.981 29.612 46.5741 29.7261 47.1722 29.7217V29.7207Z" stroke="#34A9FF" stroke-width="2"></path>
  </g>
  <defs>
    <clipPath id="clip0_1607_1444">
      <rect width="70" height="65" fill="white"></rect>
    </clipPath>
  </defs>
</svg>
